<?xml version="1.0" encoding="UTF-8" standalone="no"?>
<svg
   xml:space="preserve"
   width="5cm"
   height="5cm"
   viewBox="0 0 188.976 188.976"
   version="1.1"
   id="svg1"
   sodipodi:docname="min-off.svg"
   inkscape:version="1.4.2 (ebf0e940, 2025-05-08)"
   xmlns:inkscape="http://www.inkscape.org/namespaces/inkscape"
   xmlns:sodipodi="http://sodipodi.sourceforge.net/DTD/sodipodi-0.dtd"
   xmlns:xlink="http://www.w3.org/1999/xlink"
   xmlns="http://www.w3.org/2000/svg"
   xmlns:svg="http://www.w3.org/2000/svg"><defs
   id="defs1"><inkscape:path-effect
     effect="simplify"
     id="path-effect13"
     is_visible="false"
     lpeversion="1.3"
     threshold="0.27806971"
     steps="1"
     smooth_angles="47.292225"
     helper_size="8.766756"
     simplify_individual_paths="false"
     simplify_just_coalesce="false" /><linearGradient
     id="swatch10"
     inkscape:swatch="solid"><stop
       style="stop-color:#000000;stop-opacity:1;"
       offset="0"
       id="stop10" /></linearGradient><linearGradient
     id="swatch9"
     inkscape:swatch="solid"><stop
       style="stop-color:#000000;stop-opacity:1;"
       offset="0"
       id="stop9" /></linearGradient><linearGradient
     id="swatch8"
     inkscape:swatch="solid"
     inkscape:label="Tracing Line Swatch"
     gradientTransform="matrix(0.99999397,0,0,0.99999397,2.2094718,1.4296578)"
     inkscape:pinned="true"><stop
       style="stop-color:#1aabff;stop-opacity:1;"
       offset="0"
       id="stop8" /></linearGradient></defs><sodipodi:namedview
   id="namedview1"
   pagecolor="#ffffff"
   bordercolor="#000000"
   borderopacity="0.25"
   inkscape:showpageshadow="2"
   inkscape:pageopacity="0.0"
   inkscape:pagecheckerboard="0"
   inkscape:deskcolor="#d1d1d1"
   inkscape:document-units="cm"
   showgrid="false"
   inkscape:zoom="3.8470417"
   inkscape:cx="99.297079"
   inkscape:cy="88.769509"
   inkscape:current-layer="svg1"
   showguides="true"><sodipodi:guide
     position="94.487999,188.976"
     orientation="-1,0"
     id="guide6"
     inkscape:locked="false"
     inkscape:label=""
     inkscape:color="rgb(0,134,229)" /><sodipodi:guide
     position="0,94.487999"
     orientation="0,1"
     id="guide7"
     inkscape:locked="false"
     inkscape:label=""
     inkscape:color="rgb(0,134,229)" /></sodipodi:namedview>
  
<path
   style="display:inline;opacity:1;fill:#000000;fill-opacity:1;stroke:none;stroke-width:0.999998;stroke-dasharray:none;stroke-opacity:1"
   d="m 72.320724,178.1574 c -1.155351,-0.77369 -2.100639,-1.46336 -2.100639,-1.5326 0,-0.27235 2.896324,-2.71276 5.259586,-4.43166 4.296378,-3.12494 8.809712,-5.91013 11.279042,-6.96033 1.844118,-0.7843 1.977561,-0.90778 1.238031,-1.14559 -2.564973,-0.82481 -3.207365,-0.74307 -9.531255,1.2128 -3.938897,1.21824 -6.020146,1.58602 -8.15313,1.44075 -2.82472,-0.19239 -6.98076,-1.2616 -9.105679,-2.3426 l -0.708797,-0.36059 0.838929,-0.53203 c 2.751781,-1.74513 6.041028,-3.07983 8.606453,-3.4923 1.712843,-0.2754 5.925355,-0.22921 7.658695,0.084 2.805747,0.50694 2.874223,0.19081 0.178469,-0.82394 -1.011665,-0.38082 -2.238576,-0.86996 -2.726469,-1.08698 -0.787248,-0.35019 -3.292523,-1.23488 -8.247992,-2.91265 -1.946436,-0.659 -5.107675,-0.73204 -7.289601,-0.16842 -3.314466,0.85617 -9.590224,0.50985 -13.328333,-0.73551 -4.0514,-1.34973 -9.818404,-4.68199 -12.688888,-7.33182 l -1.28794,-1.18894 0.642026,-0.1151 c 4.784229,-0.85771 10.544472,-0.88685 13.676537,-0.0692 1.869428,0.48803 5.492718,1.8843 8.038971,3.09788 2.375199,1.13206 2.666209,0.87785 0.564638,-0.49324 -0.73588,-0.48009 -2.126902,-1.38618 -3.09116,-2.01353 -0.964257,-0.62734 -2.866841,-1.87361 -4.227965,-2.76948 -3.904417,-2.56983 -5.151481,-3.04187 -10.73322,-4.06269 -7.784805,-1.42373 -12.235147,-4.69559 -18.172088,-13.35997 l -1.441797,-2.10416 1.64575,0.13354 c 3.813231,0.3094 8.542064,1.90442 11.349474,3.82813 1.194157,0.81827 4.860164,3.7527 6.129679,4.90646 1.229387,1.1173 1.609152,1.3474 1.609152,0.97502 0,-0.0981 -0.628377,-0.90782 -1.396394,-1.79933 -0.768017,-0.89152 -2.405161,-3.03272 -3.638099,-4.75823 -3.279175,-4.58925 -4.867753,-6.07452 -8.67342,-8.10939 -5.980189,-3.19756 -10.133545,-8.4149 -12.716388,-15.97398 -0.964027,-2.82137 -1.733333,-5.860505 -1.533957,-6.059881 0.199097,-0.199096 3.778064,1.826202 5.454586,3.086691 3.762898,2.82912 6.498881,6.41027 9.55723,12.50954 0.416039,0.8297 0.835973,1.55771 0.933186,1.61779 0.433289,0.26779 0.371902,-0.36679 -0.129036,-1.33388 -1.12872,-2.17906 -2.846158,-7.2824 -3.071859,-9.12798 -0.163783,-1.33928 -0.925536,-4.20525 -1.325691,-4.987703 -0.393002,-0.768468 -1.796139,-2.553286 -3.697057,-4.702732 -3.857849,-4.362228 -5.648094,-8.187687 -6.547049,-13.98997 -0.416945,-2.69116 -0.573142,-7.463822 -0.288292,-8.808873 l 0.148423,-0.700852 0.913618,0.764925 c 1.492736,1.249789 4.131102,4.450252 5.268865,6.391383 0.584083,0.9965 1.212989,2.019433 1.397571,2.273185 0.297171,0.408533 0.636085,1.223046 1.563038,3.756448 0.143168,0.391284 0.463974,1.927637 0.712904,3.414117 0.555864,3.319343 0.605916,3.533154 0.82709,3.533154 0.108017,0 0.175893,-1.728611 0.1743,-4.438894 -0.0014,-2.441391 0.09308,-5.327243 0.210036,-6.413004 0.349267,-3.242442 -0.0396,-4.91372 -1.971025,-8.471121 -2.664233,-4.907123 -3.828491,-12.404446 -2.773971,-17.863176 0.928626,-4.807036 1.663691,-7.167979 2.055532,-6.602129 1.634386,2.360193 3.762578,6.824653 4.313047,9.047791 0.776574,3.136288 0.853693,3.917001 0.829127,8.393699 -0.01334,2.431644 0.04713,4.336236 0.135944,4.281348 0.08799,-0.05438 0.321483,-0.655219 0.518876,-1.335197 3.02865,-10.433064 3.297688,-12.40948 2.245381,-16.495107 -1.571803,-6.102586 -1.03898,-11.783535 1.597912,-17.036921 0.60429,-1.203906 4.613593,-6.897979 4.867928,-6.913507 0.112834,-0.0069 0.316628,1.478598 0.739498,5.390327 0.507382,4.693495 -0.06016,10.066029 -1.407086,13.31985 -0.368915,0.891202 -0.629327,1.661794 -0.578695,1.712426 0.182591,0.182592 0.501153,-0.172197 0.950094,-1.05814 0.251553,-0.496414 0.90393,-1.590898 1.449728,-2.432186 1.331621,-2.052546 1.612199,-2.645237 2.427709,-5.128278 2.35554,-7.17208 7.780277,-13.388861 13.282403,-15.221712 0.903934,-0.301116 4.150883,-1.018412 4.609994,-1.018412 0.167859,0 0.09007,0.500334 -0.279735,1.799332 -1.820161,6.39353 -4.721407,9.991616 -12.536083,15.547075 -3.978335,2.828202 -5.248516,4.25852 -8.207511,9.242274 -1.408048,2.371535 -1.355175,2.865523 0.1269,1.185623 4.040678,-4.580022 7.196247,-6.286883 13.659774,-7.388632 0.982067,-0.167399 1.871316,-0.275783 1.976109,-0.240852 0.530751,0.176917 -4.463838,6.830794 -6.847172,9.121919 -3.119593,2.9989 -4.969497,3.991252 -10.441918,5.601401 -2.238492,0.65863 -2.592847,1.11232 -4.111015,5.263439 -2.57692,7.046054 -3.692741,11.650071 -1.892382,7.808207 2.488593,-5.310519 6.518566,-8.768273 12.745437,-10.935705 1.024459,-0.356591 1.944401,-0.648348 2.044315,-0.648348 0.210037,0 -1.031816,2.871842 -2.51378,5.813227 -2.893918,5.743819 -5.77086,8.742328 -11.331274,11.810083 -2.955362,1.630513 -3.383585,2.407032 -3.670898,6.656636 -0.322648,4.772232 -0.443466,10.599413 -0.219763,10.599413 0.11289,0 0.251023,-0.311422 0.306963,-0.69205 0.31932,-2.172733 1.249255,-5.681854 1.827339,-6.895484 1.253286,-2.631147 4.741512,-6.613185 7.407583,-8.456238 l 1.383813,-0.956629 -0.0017,0.703095 c -0.0053,2.234705 -0.738448,6.707695 -1.563769,9.540966 -1.026551,3.524078 -1.947992,5.153356 -5.17788,9.15545 -3.037789,3.764068 -3.274968,4.206709 -3.164331,5.905499 0.169541,2.60325 1.544714,7.22095 3.508498,11.78121 1.360582,3.15951 1.463706,3.0159 0.6968,-0.97035 -0.749749,-3.89706 -0.157069,-8.28167 1.650969,-12.21376 0.685522,-1.49086 3.097625,-5.421144 3.328832,-5.424 0.177493,-0.0022 0.887456,3.439384 1.198934,5.81189 0.159908,1.21801 0.304994,3.75092 0.322412,5.62868 0.04185,4.51143 -0.131585,5.32297 -2.386069,11.16509 -0.907662,2.35205 -0.763567,3.45665 0.875524,6.71158 0.746718,1.48284 1.693481,3.20151 2.103919,3.81927 1.439891,2.1672 5.279144,6.53973 5.742143,6.53973 0.394751,0 0.304799,-0.18145 -0.960602,-1.93774 -1.75538,-2.43634 -2.668398,-5.10478 -3.216298,-9.40014 -0.247361,-1.93923 0.349377,-6.34481 1.22073,-9.01236 0.468343,-1.43378 0.468569,-1.43407 0.797651,-1.01501 1.13714,1.44806 4.542791,8.11274 5.448041,10.66154 1.022646,2.87932 1.231225,4.22901 1.368951,8.85825 l 0.129027,4.33685 0.636647,1.19686 c 0.775169,1.45727 3.006136,3.7619 5.065772,5.23302 2.958078,2.11286 3.54859,2.49019 5.9055,3.77361 1.464777,0.79762 2.46619,1.24045 2.571353,1.13707 0.09473,-0.0931 0.136257,-0.20031 0.09227,-0.23818 -0.04398,-0.0379 -0.934315,-0.7102 -1.978513,-1.49407 -1.065821,-0.8001 -2.300125,-1.92471 -2.814119,-2.56402 -2.425251,-3.01653 -5.34205,-11.06035 -5.344554,-14.73895 l -5.89e-4,-0.86643 1.337965,0.91941 c 1.694919,1.16471 6.463277,5.39007 7.76263,6.87866 2.414573,2.76624 3.724926,4.98475 5.464758,9.25217 1.413619,3.4673 2.143369,4.92503 2.760105,5.51351 0.828804,0.79084 5.097664,2.76176 9.618385,4.44079 2.385269,0.88591 5.167313,1.96662 6.182321,2.40157 1.015007,0.43496 3.645216,1.38657 5.844907,2.11469 l 3.999439,1.32386 2.367428,-0.90733 c 1.302086,-0.49903 3.322459,-1.21958 4.489717,-1.60124 5.01405,-1.63943 14.84786,-5.4394 16.52308,-6.38484 2.1344,-1.20458 2.42325,-1.63163 4.23088,-6.25509 1.99876,-5.11234 2.64948,-6.39202 4.51014,-8.86941 2.07099,-2.75743 5.76803,-6.15575 9.20003,-8.45666 l 1.15342,-0.77328 v 0.93763 c 0,0.5157 -0.28618,2.21505 -0.63595,3.77634 -1.6641,7.42819 -3.87009,11.28171 -8.22345,14.36514 -1.41583,1.00282 -1.88078,1.5709 -1.08183,1.32181 1.16271,-0.36249 7.69396,-4.48365 9.94123,-6.27281 3.16606,-2.52066 3.94272,-4.29089 4.24928,-9.68523 0.42126,-7.41271 1.27897,-10.14732 5.30426,-16.91136 1.77812,-2.98792 2.07291,-3.36515 2.07291,-2.65267 0,0.20187 0.16286,0.97005 0.36191,1.70706 0.85491,3.16548 1.18119,8.55581 0.65338,10.79432 -0.41873,1.77589 -2.08294,5.70841 -3.07475,7.26563 -0.49131,0.77139 -0.89329,1.54646 -0.89329,1.72237 0,0.655 5.09076,-5.15653 6.98313,-7.97184 2.73796,-4.07329 2.98965,-5.97121 1.35185,-10.19364 -2.47024,-6.36852 -2.65687,-10.66878 -0.83097,-19.146734 0.26779,-1.243385 0.53671,-2.256573 0.59761,-2.251529 0.15527,0.01286 2.50584,3.407008 3.1974,4.616945 2.16191,3.782458 2.85177,10.423868 1.50896,14.527068 -0.30619,0.93561 -0.3324,1.51607 -0.0684,1.51607 0.10468,0 0.23962,-0.14533 0.29985,-0.32296 0.0602,-0.17763 0.42669,-1.02885 0.81436,-1.89161 3.14607,-7.00164 4.0633,-12.52457 2.44516,-14.723019 -0.27796,-0.377653 -1.22181,-1.517102 -2.09744,-2.53211 -3.19309,-3.701362 -4.53536,-6.242685 -5.7122,-10.814977 -1.16809,-4.538226 -1.81586,-9.064693 -1.24854,-8.724441 2.9328,1.758964 4.55436,3.178576 6.36451,5.571891 2.47864,3.277156 3.77663,6.407542 4.395,10.599547 0.0562,0.380628 0.19453,0.69205 0.30751,0.69205 0.52176,0 -0.29685,-13.441675 -0.89543,-14.703082 -0.39972,-0.842359 -1.61876,-1.911634 -3.12067,-2.737295 -3.74248,-2.057394 -6.81189,-4.724055 -8.75939,-7.610045 -1.11583,-1.653546 -4.97861,-9.137112 -4.97861,-9.645325 0,-0.277464 3.67359,1.065348 5.25766,1.921841 4.79037,2.590104 6.91025,4.684168 8.92084,8.812201 1.97694,4.058938 2.02692,3.249811 0.1671,-2.705318 -1.77968,-5.698544 -2.24158,-6.873222 -3.21113,-8.166393 -0.58228,-0.776629 -1.0339,-0.998523 -4.28088,-2.103302 -4.74474,-1.614393 -6.99267,-3.111072 -10.41359,-6.933407 -2.10434,-2.351261 -5.41148,-7.124745 -5.00068,-7.217923 0.65789,-0.149225 4.3585,0.618552 6.4446,1.337084 3.65232,1.257991 7.08152,3.602928 9.41637,6.439044 0.47389,0.575634 0.9366,1.000263 1.02825,0.943621 0.0917,-0.05664 0.13581,-0.159531 0.0981,-0.228643 -1.24405,-2.281942 -4.22538,-6.704628 -5.09365,-7.556231 -0.85921,-0.842713 -2.65187,-2.263121 -4.71712,-3.737579 -5.83612,-4.166623 -9.13493,-7.913723 -11.1445,-12.658967 -0.62416,-1.473837 -1.58189,-4.477413 -1.46497,-4.594335 0.22739,-0.227388 4.27092,0.900026 5.63099,1.570028 5.42393,2.671951 9.61592,7.607587 11.80648,13.900922 0.74157,2.130464 1.82926,4.380837 2.83518,5.865806 0.38575,0.56945 0.90962,1.441434 1.16417,1.937742 0.62768,1.223802 0.95224,1.627963 1.18956,1.481292 0.13263,-0.08197 0.017,-0.52612 -0.34434,-1.323115 -1.39551,-3.077731 -1.67713,-4.568755 -1.68944,-8.944511 -0.0126,-4.490666 0.54891,-9.521875 1.05966,-9.494143 0.85033,0.04617 4.91298,6.581445 5.91326,9.512189 1.14021,3.340771 1.26833,4.106284 1.26339,7.548376 -0.005,3.13447 -0.0247,3.303826 -0.68403,5.751224 -1.1747,4.360093 -0.98039,6.622521 1.15444,13.441651 0.3972,1.26876 0.91396,2.929682 1.14835,3.690938 l 0.42617,1.384101 0.11835,-4.890492 c 0.17746,-7.33365 0.80632,-9.535339 4.73692,-16.584425 l 0.55214,-0.990213 0.36832,0.990213 c 3.16489,8.508631 2.58168,16.926304 -1.7308,24.981308 -1.42354,2.658952 -1.5452,3.654018 -1.41575,11.580316 0.0997,6.103613 0.2216,7.627555 0.50936,6.366867 0.0521,-0.228377 0.34896,-1.702445 0.65963,-3.275707 0.31067,-1.573262 0.76467,-3.571225 1.00889,-4.439918 0.9496,-3.377729 4.41312,-8.450052 7.56335,-11.076521 l 1.29183,-1.077047 0.12473,0.776458 c 0.39166,2.438134 0.0328,7.395976 -0.78428,10.834262 -1.36957,5.763394 -3.03209,9.046896 -6.54083,12.918282 -3.03469,3.348347 -3.59912,4.421395 -4.78105,9.08945 -0.93149,3.67894 -1.26594,4.78968 -2.23643,7.42749 -1.42038,3.8606 -1.08498,3.74029 1.02897,-0.36909 3.40814,-6.62519 5.77474,-9.13801 11.72007,-12.444223 1.10768,-0.615984 2.08759,-1.119971 2.17758,-1.119971 0.48028,0 -0.73293,4.749874 -2.02689,7.935514 -1.68784,4.15534 -2.95132,6.08752 -6.00759,9.18714 -2.12128,2.15136 -3.18543,2.97591 -5.77711,4.47638 -4.84425,2.80458 -5.17136,3.09503 -8.24661,7.32202 -1.12345,1.54421 -2.85896,3.78646 -3.85667,4.98276 -2.17832,2.61189 -2.43283,3.38436 -0.58432,1.77345 4.70826,-4.10306 6.53657,-5.42399 9.61843,-6.94915 3.07291,-1.52074 5.1586,-2.12392 8.0058,-2.31528 0.98963,-0.0665 1.79933,-0.0941 1.79933,-0.0613 0,0.0328 -0.7968,1.26842 -1.77066,2.74588 -4.83212,7.33086 -10.46147,11.23695 -18.56336,12.88075 -5.45486,1.10673 -6.25592,1.44522 -10.96726,4.63423 -1.91719,1.29771 -4.35779,2.93932 -5.42355,3.64803 -1.06576,0.70871 -1.96682,1.31098 -2.00236,1.33838 -0.0355,0.0274 -0.008,0.14165 0.0615,0.25391 0.084,0.13591 0.50633,-0.007 1.26417,-0.42921 1.40623,-0.78257 5.83652,-2.54588 7.69371,-3.0622 2.65468,-0.73802 8.27446,-1.01197 11.89901,-0.58004 0.9135,0.10887 1.78549,0.19989 1.93774,0.20227 1.19231,0.0187 0.80349,0.64884 -1.47638,2.39268 -4.57553,3.49976 -9.88106,6.18846 -13.91652,7.05253 -2.70637,0.57949 -7.46806,0.58329 -10.48114,0.008 -1.33391,-0.25452 -2.8511,-0.41082 -3.96776,-0.40874 -2.04079,0.004 -3.60762,0.47225 -10.29715,3.07875 -1.82701,0.71187 -3.89655,1.49396 -4.59898,1.73798 -1.37324,0.47705 -1.96546,1.0683 -0.82373,0.82237 2.49542,-0.53749 6.36618,-0.61995 9.00596,-0.19184 2.38942,0.38751 4.02107,0.97086 7.17933,2.56678 l 2.70173,1.36523 -1.45082,0.66116 c -2.60966,1.18926 -5.81847,1.9298 -9.00866,2.07905 -3.03382,0.14194 -4.37501,-0.0816 -8.54119,-1.42352 -5.04493,-1.62498 -5.38309,-1.70596 -6.54408,-1.56699 -2.069716,0.24773 -2.253942,0.39152 -1.16079,0.906 4.83412,2.27515 17.27578,11.03576 16.97206,11.95063 -0.0789,0.23752 -3.91243,2.74032 -4.19739,2.74032 -0.16032,0 -0.57768,-0.29799 -0.92747,-0.66219 -0.72742,-0.7574 -4.72083,-4.06458 -6.91058,-5.72306 -2.63167,-1.99319 -4.81149,-3.36151 -7.957127,-4.99485 l -3.084454,-1.60157 -0.9579,0.20092 c -3.967997,0.8323 -11.765961,5.90993 -17.271479,11.2463 -0.975414,0.94545 -1.815618,1.719 -1.867118,1.719 -0.0515,0 -1.038925,-0.63302 -2.194277,-1.40671 z M 92.08889,154.15116 c -2.103654,-0.3637 -4.403502,-1.36021 -5.571175,-2.41396 -2.322498,-2.0959 -3.68386,-4.85593 -3.802681,-7.70955 -0.162846,-3.9109 0.769418,-7.31341 4.345499,-15.85985 1.622429,-3.87742 2.435345,-6.64796 2.583311,-8.8043 0.115004,-1.67596 0.14994,-1.64518 -2.2609,-1.99202 -10.206463,-1.46836 -21.398428,-6.92457 -28.78853,-14.03472 -2.813529,-2.70695 -9.678409,-8.867637 -11.350415,-10.186103 -2.368835,-1.867953 -2.368497,-1.912349 0.03831,-5.029525 3.001604,-3.887526 8.387148,-9.012967 12.383371,-11.785298 9.535652,-6.615241 18.792932,-9.955728 30.0241,-10.834188 6.576033,-0.514353 14.56845,0.250977 20.43029,1.956345 10.02879,2.917645 17.65246,7.356354 25.32145,14.742844 3.36176,3.23792 7.58231,8.292627 7.58231,9.080894 0,0.131413 -1.56267,1.591713 -3.4726,3.245113 -1.90993,1.653399 -5.21101,4.628508 -7.33574,6.611358 -4.92927,4.6001 -7.31931,6.41217 -13.06005,9.9018 -5.28074,3.21001 -12.10117,5.56292 -18.54603,6.39801 -1.15001,0.14901 -2.14158,0.32158 -2.203491,0.38349 -0.707265,0.70727 1.034208,6.764 3.880391,13.49575 2.97713,7.04147 3.62283,11.32703 2.31993,15.39751 -1.61473,5.04469 -7.190718,8.35731 -12.51735,7.4364 z m -0.878109,-8.58981 0.561804,-0.59978 -0.09981,-6.41751 c -0.118501,-7.61917 -0.261745,-8.13952 -1.541374,-5.59925 -2.162302,4.29252 -3.452274,9.64587 -2.760685,11.45677 0.682509,1.78713 2.685727,2.39213 3.840068,1.15977 z m 10.020499,-34.53874 c 8.28171,-1.38803 14.11334,-4.04262 22.29934,-10.15077 3.70343,-2.763391 9.88826,-8.475724 10.83452,-10.006799 l 0.38187,-0.617884 -0.37126,-0.521391 c -0.56464,-0.79296 -4.8765,-4.916215 -6.9508,-6.646767 -4.39972,-3.670598 -12.38153,-8.152969 -14.5181,-8.152969 -0.44367,0 -0.45116,-0.0237 0.479,1.515966 2.18139,3.610786 3.31657,9.819537 2.54026,13.893698 -0.99732,5.234054 -4.48197,10.788586 -8.49074,13.534246 -4.47743,3.06665 -11.012639,4.69585 -16.425869,4.09491 C 83.438654,107.12439 76.31526,102.1586 73.345843,95.651343 70.323628,89.028382 70.55866,82.873509 74.092229,76.105386 c 0.391107,-0.749118 -0.06722,-0.79399 -1.59243,-0.155905 -6.132263,2.565487 -15.273591,9.283955 -18.506443,13.60141 -0.51049,0.681756 -0.513157,0.698782 -0.187943,1.199555 0.514789,0.792686 6.291509,6.475582 7.833243,7.706018 0.761255,0.607548 1.934051,1.571616 2.606211,2.142376 2.981088,2.53135 8.806959,5.94827 13.307959,7.80521 3.538349,1.45978 8.80869,2.6835 13.521056,3.13944 2.100469,0.20323 7.484212,-0.0729 10.157398,-0.52088 z m -3.329164,-9.33259 c 4.601474,-1.18526 8.605664,-4.463579 10.712624,-8.770669 1.41516,-2.892898 1.57172,-7.855453 0.32843,-10.410604 -0.90646,-1.862923 -3.07072,-3.651494 -2.75527,-2.276994 0.31349,1.365985 0.33829,4.962123 0.044,6.38075 -1.03968,5.011846 -4.35062,8.863075 -8.606604,10.011057 -1.499608,0.404495 -5.185423,0.464207 -6.643688,0.107631 -4.1558,-1.01618 -7.519114,-4.389583 -8.582487,-8.608232 -0.333907,-1.324683 -0.389014,-4.439482 -0.101249,-5.72278 0.328438,-1.464678 2.099849,-4.893878 3.323338,-6.433511 0.613701,-0.772278 1.11582,-1.446922 1.11582,-1.49921 0,-0.369932 -2.987984,0.750368 -4.436491,1.663397 -3.134041,1.975461 -5.33145,7.380959 -4.807265,11.825593 1.149855,9.749785 10.76245,16.218322 20.408842,13.733572 z M 93.941505,83.780635 c 2.848261,-1.453075 2.086137,-6.89956 -1.047719,-7.487475 -1.683289,-0.315787 -3.942193,2.073238 -3.942193,4.169277 0,2.68092 2.708556,4.482059 4.989912,3.318198 z M 42.26708,88.39099 c -0.0062,-0.106037 0.73811,-1.890346 2.037252,-4.88353 2.580458,-5.945293 7.657148,-12.427761 13.089745,-16.714404 7.361952,-5.809019 12.33067,-8.581752 19.456947,-10.857711 3.549609,-1.133659 3.609767,-1.136618 4.252506,-0.209146 0.767566,1.107598 3.391405,3.534096 4.40021,4.069266 0.475308,0.25215 0.864197,0.501066 0.864197,0.553145 0,0.05208 -1.183407,0.419305 -2.629793,0.816057 -11.924282,3.270897 -18.135381,6.207064 -26.620887,12.584466 -5.194462,3.903971 -11.174589,9.781728 -14.434946,14.187842 -0.225161,0.304288 -0.412015,0.508595 -0.415231,0.454015 z m 101.11817,-2.804768 c -1.06154,-1.233467 -2.43725,-2.832618 -3.05713,-3.553669 -1.20384,-1.400305 -3.81786,-3.861786 -5.81401,-5.474725 -0.67106,-0.542236 -1.79218,-1.450659 -2.49138,-2.018717 -5.52544,-4.489103 -12.9711,-8.637164 -19.9105,-11.092372 -2.58124,-0.913258 -8.23788,-2.588835 -9.55579,-2.83056 l -0.69753,-0.127938 1.15552,-0.670484 c 1.28102,-0.743311 3.35655,-2.745178 4.15257,-4.005196 0.59642,-0.944065 0.46337,-0.918222 2.31938,-0.450519 4.36382,1.099659 11.21817,4.36395 16.1566,7.694361 9.37061,6.319418 14.89605,12.888703 18.67606,22.204252 0.43245,1.065759 0.86958,2.043557 0.97139,2.172886 0.1018,0.129329 0.14906,0.271189 0.105,0.315246 -0.0441,0.04406 -0.94864,-0.929098 -2.01018,-2.162565 z M 91.535249,59.599267 c -5.84052,-1.251678 -10.503028,-6.60933 -10.516444,-12.084366 -0.0086,-3.513044 2.404091,-6.420826 5.962019,-7.185417 1.264291,-0.271693 0.312728,-0.564217 -2.565945,-0.788809 -4.918647,-0.383748 -9.905835,-1.859714 -11.670368,-3.453863 -1.887044,-1.704832 -1.441988,-4.581842 0.893356,-5.774988 1.561949,-0.798013 3.441773,-0.460341 10.954593,1.967765 5.243076,1.694537 6.520196,1.942598 9.895539,1.922059 3.070697,-0.01869 5.624851,-0.579263 11.576221,-2.540709 5.82248,-1.918964 7.09034,-2.076653 8.99251,-1.118432 1.36733,0.688793 1.79808,1.263972 1.90411,2.542521 0.16395,1.97704 -1.27935,3.655975 -3.92588,4.566838 -2.1446,0.738109 -7.28956,1.676493 -10.65635,1.943601 -0.78595,0.06235 -1.48172,0.198668 -1.54616,0.302921 -0.13788,0.223098 0.25735,0.510526 0.70754,0.514551 1.69779,0.01518 4.55175,2.34783 5.30953,4.339678 2.18917,5.754309 -2.83987,13.623919 -9.446605,14.782366 -2.630084,0.461167 -3.948356,0.47561 -5.867666,0.06428 z m 5.221879,-4.526165 c 3.895352,-1.009388 6.596432,-4.128775 6.585072,-7.604868 -0.009,-2.75405 -2.46859,-5.165628 -3.360613,-3.295028 -0.290111,0.608368 -0.328429,0.624466 -2.018059,0.847809 -2.098921,0.277446 -4.471399,0.31177 -7.559871,0.109375 L 88.072511,44.977624 87.77685,44.357616 C 87.428634,43.6274 87.192575,43.59379 86.349091,44.154329 c -2.333229,1.550553 -1.763167,6.082669 1.084969,8.625731 2.479113,2.213567 6.147687,3.115866 9.323068,2.293042 z M 91.627522,32.092275 c -0.507503,-0.08815 -1.337964,-0.265299 -1.845468,-0.393656 l -0.922735,-0.233377 v -3.414117 c 0,-4.023281 -0.05608,-4.204644 -2.015991,-6.520012 -3.189528,-3.767987 -4.027492,-8.994418 -1.997555,-12.4588704 2.426705,-4.1416075 7.645612,-6.300584 12.325519,-5.0988655 4.268328,1.0960321 7.815918,5.445947 7.831118,9.6021979 0.009,2.519146 -0.57217,4.134846 -2.70513,7.51785 -1.98912,3.154856 -1.98931,3.155513 -1.96575,6.899867 l 0.0199,3.171737 -1.686048,0.389954 c -3.076534,0.711549 -5.131524,0.868432 -7.03791,0.537292 z"
   id="path13"
   inkscape:label="traced logo" /><g
   inkscape:groupmode="layer"
   id="layer1"
   inkscape:label="template"
   style="display:none;opacity:0.5"
   sodipodi:insensitive="true"><image
     xlink:href="orig_logo.png"
     width="188.976"
     height="188.976"
     preserveAspectRatio="none"
     id="image1"
     inkscape:label="png logo from chatgpt"
     style="display:none" /></g></svg>
