<?xml version="1.0" encoding="UTF-8" standalone="no"?>
<svg
   xml:space="preserve"
   width="5cm"
   height="5cm"
   viewBox="0 0 188.976 188.976"
   version="1.1"
   id="svg1"
   sodipodi:docname="min-off.svg"
   inkscape:version="1.4.2 (ebf0e940, 2025-05-08)"
   xmlns:inkscape="http://www.inkscape.org/namespaces/inkscape"
   xmlns:sodipodi="http://sodipodi.sourceforge.net/DTD/sodipodi-0.dtd"
   xmlns="http://www.w3.org/2000/svg"
   xmlns:svg="http://www.w3.org/2000/svg"><defs
   id="defs1" /><sodipodi:namedview
   id="namedview1"
   pagecolor="#ffffff"
   bordercolor="#000000"
   borderopacity="0.25"
   inkscape:showpageshadow="2"
   inkscape:pageopacity="0.0"
   inkscape:pagecheckerboard="0"
   inkscape:deskcolor="#d1d1d1"
   inkscape:document-units="cm"
   showgrid="false"
   inkscape:zoom="3.8470417"
   inkscape:cx="94.358219"
   inkscape:cy="94.488189"
   inkscape:current-layer="svg1" />
  <path
   d="M72.32 178.157c-1.155-.773-2.1-1.463-2.1-1.532 0-.273 2.896-2.713 5.26-4.432 4.296-3.125 8.81-5.91 11.279-6.96 1.844-.784 1.977-.908 1.238-1.146-2.565-.825-3.208-.743-9.532 1.213-3.938 1.218-6.02 1.586-8.153 1.44-2.824-.192-6.98-1.26-9.105-2.342l-.71-.36.84-.532c2.752-1.746 6.04-3.08 8.606-3.493 1.713-.275 5.926-.229 7.659.084 2.806.507 2.874.191.178-.824a67 67 0 0 1-2.726-1.087c-.787-.35-3.293-1.235-8.248-2.912-1.946-.66-5.108-.732-7.29-.169-3.314.856-9.59.51-13.328-.735-4.051-1.35-9.818-4.682-12.689-7.332l-1.288-1.189.642-.115c4.784-.858 10.545-.887 13.677-.07 1.87.489 5.492 1.885 8.039 3.099 2.375 1.132 2.666.877.564-.494l-3.09-2.013a1176 1176 0 0 1-4.229-2.77c-3.904-2.57-5.151-3.042-10.733-4.062-7.785-1.424-12.235-4.696-18.172-13.36l-1.442-2.104 1.646.133c3.813.31 8.542 1.904 11.35 3.828 1.194.818 4.86 3.753 6.13 4.907 1.228 1.117 1.608 1.347 1.608.975 0-.098-.628-.908-1.396-1.8-.768-.891-2.405-3.032-3.638-4.758-3.28-4.59-4.868-6.074-8.674-8.11-5.98-3.197-10.133-8.414-12.716-15.973-.964-2.822-1.733-5.86-1.534-6.06s3.778 1.826 5.455 3.087c3.762 2.829 6.498 6.41 9.557 12.51.416.829.836 1.557.933 1.617.433.268.372-.367-.13-1.334-1.128-2.18-2.845-7.282-3.07-9.128-.165-1.34-.926-4.205-1.327-4.988-.393-.768-1.796-2.553-3.697-4.702-3.858-4.363-5.648-8.188-6.547-13.99-.417-2.692-.573-7.464-.288-8.81l.148-.7.914.765c1.493 1.25 4.131 4.45 5.269 6.391.584.997 1.213 2.02 1.397 2.273.298.409.637 1.223 1.563 3.757.144.391.464 1.927.713 3.414.556 3.32.606 3.533.827 3.533.108 0 .176-1.729.175-4.439-.002-2.441.093-5.327.21-6.413.35-3.242-.04-4.914-1.971-8.47C17.71 66.566 16.545 59.07 17.6 53.61c.928-4.807 1.664-7.168 2.055-6.602 1.635 2.36 3.763 6.824 4.313 9.048.777 3.136.854 3.917.83 8.393-.014 2.432.047 4.336.135 4.282s.322-.656.52-1.336c3.028-10.433 3.297-12.41 2.245-16.495q-2.358-9.155 1.598-17.037c.604-1.204 4.613-6.898 4.868-6.913.112-.007.316 1.478.74 5.39.506 4.694-.061 10.066-1.408 13.32-.369.891-.63 1.662-.579 1.712q.275.273.95-1.058c.252-.496.904-1.59 1.45-2.432 1.332-2.052 1.612-2.645 2.428-5.128 2.355-7.172 7.78-13.389 13.282-15.222.904-.301 4.151-1.018 4.61-1.018.168 0 .09.5-.28 1.8-1.82 6.393-4.72 9.99-12.536 15.546-3.978 2.828-5.248 4.259-8.207 9.242-1.408 2.372-1.355 2.866.127 1.186 4.04-4.58 7.196-6.287 13.66-7.389.982-.167 1.87-.275 1.976-.24.53.176-4.464 6.83-6.848 9.121-3.12 3-4.969 3.992-10.441 5.602-2.239.659-2.593 1.112-4.111 5.263-2.577 7.046-3.693 11.65-1.893 7.809 2.489-5.311 6.519-8.769 12.746-10.936 1.024-.357 1.944-.649 2.044-.649.21 0-1.032 2.872-2.514 5.814-2.894 5.744-5.77 8.742-11.331 11.81-2.955 1.63-3.384 2.407-3.671 6.656-.323 4.773-.443 10.6-.22 10.6.113 0 .251-.312.307-.692.32-2.173 1.25-5.682 1.828-6.896 1.253-2.63 4.741-6.613 7.407-8.456l1.384-.957-.002.704c-.005 2.234-.738 6.707-1.564 9.54-1.026 3.525-1.948 5.154-5.177 9.156-3.038 3.764-3.275 4.207-3.165 5.905.17 2.604 1.545 7.221 3.509 11.782 1.36 3.16 1.463 3.016.697-.97-.75-3.898-.158-8.282 1.65-12.214.686-1.491 3.098-5.422 3.33-5.424.177-.003.887 3.439 1.198 5.811.16 1.218.305 3.751.323 5.63.042 4.51-.132 5.322-2.386 11.164-.908 2.352-.764 3.457.875 6.712.747 1.483 1.694 3.201 2.104 3.82 1.44 2.166 5.28 6.539 5.742 6.539.395 0 .305-.182-.96-1.938-1.756-2.436-2.669-5.105-3.217-9.4-.247-1.94.35-6.345 1.221-9.012.468-1.434.469-1.435.798-1.015 1.137 1.448 4.542 8.112 5.448 10.661 1.022 2.88 1.23 4.23 1.369 8.858l.129 4.337.636 1.197c.776 1.457 3.006 3.762 5.066 5.233 2.958 2.113 3.549 2.49 5.906 3.774 1.464.797 2.466 1.24 2.571 1.137.095-.093.136-.2.092-.238s-.934-.71-1.978-1.495c-1.066-.8-2.3-1.924-2.814-2.564-2.426-3.016-5.342-11.06-5.345-14.738v-.867l1.337.92c1.695 1.164 6.464 5.39 7.763 6.878 2.415 2.766 3.725 4.985 5.465 9.252 1.413 3.468 2.143 4.925 2.76 5.514.829.79 5.098 2.762 9.618 4.44 2.386.887 5.168 1.967 6.183 2.402s3.645 1.387 5.845 2.115l3.999 1.324 2.367-.908c1.302-.499 3.323-1.22 4.49-1.6 5.014-1.64 14.848-5.44 16.523-6.386 2.135-1.204 2.423-1.631 4.231-6.255 1.999-5.112 2.65-6.392 4.51-8.87 2.071-2.757 5.768-6.155 9.2-8.456l1.154-.773v.938c0 .515-.287 2.215-.636 3.776-1.664 7.428-3.87 11.282-8.224 14.365-1.416 1.003-1.88 1.57-1.082 1.322 1.163-.363 7.694-4.484 9.942-6.273 3.166-2.52 3.942-4.29 4.249-9.685.421-7.413 1.279-10.148 5.304-16.912 1.778-2.988 2.073-3.365 2.073-2.652 0 .202.163.97.362 1.707.855 3.165 1.181 8.556.653 10.794-.418 1.776-2.083 5.709-3.074 7.266-.492.771-.894 1.546-.894 1.722 0 .655 5.091-5.156 6.983-7.972 2.738-4.073 2.99-5.97 1.352-10.193-2.47-6.369-2.657-10.67-.83-19.147.267-1.243.536-2.257.597-2.252.155.013 2.506 3.407 3.197 4.617 2.162 3.783 2.852 10.424 1.51 14.527-.307.936-.333 1.516-.07 1.516.106 0 .24-.145.3-.322.061-.178.427-1.03.815-1.892 3.146-7.002 4.063-12.525 2.445-14.723-.278-.378-1.222-1.517-2.097-2.532-3.193-3.702-4.535-6.243-5.712-10.815-1.168-4.538-1.816-9.065-1.249-8.725 2.933 1.76 4.554 3.179 6.365 5.572 2.478 3.277 3.776 6.408 4.395 10.6.056.38.194.692.307.692.522 0-.297-13.442-.895-14.703-.4-.843-1.619-1.912-3.121-2.738-3.742-2.057-6.812-4.724-8.76-7.61-1.115-1.653-4.978-9.137-4.978-9.645 0-.277 3.674 1.065 5.258 1.922 4.79 2.59 6.91 4.684 8.92 8.812 1.977 4.06 2.027 3.25.168-2.705-1.78-5.699-2.242-6.873-3.211-8.167-.583-.776-1.034-.998-4.281-2.103-4.745-1.614-6.993-3.111-10.414-6.933-2.104-2.352-5.411-7.125-5-7.218.657-.15 4.358.618 6.444 1.337 3.652 1.258 7.081 3.603 9.416 6.439.474.576.937 1 1.029.944s.135-.16.098-.23c-1.244-2.281-4.226-6.704-5.094-7.555-.86-.843-2.652-2.263-4.717-3.738-5.836-4.167-9.135-7.914-11.145-12.659-.624-1.474-1.581-4.477-1.465-4.594.228-.228 4.271.9 5.631 1.57 5.424 2.672 9.616 7.607 11.807 13.9.741 2.131 1.83 4.382 2.835 5.867.386.569.91 1.441 1.164 1.937.628 1.224.953 1.628 1.19 1.482.132-.082.017-.527-.345-1.324-1.395-3.077-1.677-4.568-1.689-8.944-.013-4.49.549-9.522 1.06-9.494.85.046 4.913 6.581 5.913 9.512 1.14 3.34 1.268 4.106 1.263 7.548-.005 3.135-.024 3.304-.684 5.752-1.174 4.36-.98 6.622 1.155 13.441.397 1.269.914 2.93 1.148 3.691l.426 1.384.119-4.89c.177-7.334.806-9.536 4.737-16.585l.552-.99.368.99c3.165 8.509 2.582 16.927-1.73 24.982-1.424 2.659-1.546 3.654-1.417 11.58.1 6.104.222 7.628.51 6.367.052-.229.349-1.703.66-3.276.31-1.573.764-3.571 1.008-4.44.95-3.378 4.413-8.45 7.564-11.076l1.292-1.077.124.776c.392 2.438.033 7.396-.784 10.834-1.37 5.764-3.032 9.047-6.54 12.919-3.036 3.348-3.6 4.421-4.782 9.09-.931 3.678-1.266 4.789-2.236 7.427-1.42 3.86-1.085 3.74 1.029-.37 3.408-6.625 5.774-9.137 11.72-12.444 1.107-.616 2.087-1.12 2.177-1.12.48 0-.733 4.75-2.027 7.936-1.687 4.155-2.95 6.087-6.007 9.187-2.121 2.151-3.186 2.976-5.777 4.476-4.845 2.805-5.172 3.095-8.247 7.322-1.123 1.545-2.859 3.787-3.857 4.983-2.178 2.612-2.432 3.384-.584 1.774 4.708-4.103 6.537-5.424 9.619-6.95 3.072-1.52 5.158-2.123 8.005-2.315.99-.066 1.8-.094 1.8-.061s-.797 1.268-1.771 2.746c-4.832 7.33-10.461 11.237-18.563 12.88-5.455 1.107-6.256 1.446-10.968 4.635a1089 1089 0 0 1-5.423 3.648 272 272 0 0 0-2.003 1.338c-.035.028-.008.142.062.254q.126.204 1.264-.43c1.406-.782 5.837-2.545 7.694-3.061 2.655-.738 8.274-1.012 11.899-.58.913.108 1.785.2 1.938.202 1.192.019.803.649-1.477 2.393-4.575 3.5-9.88 6.188-13.916 7.052-2.707.58-7.468.583-10.481.008-1.334-.254-2.852-.41-3.968-.409-2.041.004-3.608.473-10.297 3.08-1.827.71-3.897 1.493-4.6 1.737-1.373.477-1.965 1.068-.823.822 2.495-.537 6.366-.62 9.006-.191 2.39.387 4.021.97 7.18 2.566l2.701 1.366-1.45.66c-2.61 1.19-5.82 1.93-9.01 2.08-3.033.142-4.375-.082-8.54-1.424-5.046-1.625-5.384-1.706-6.545-1.567-2.07.248-2.254.392-1.16.906 4.834 2.275 17.275 11.036 16.971 11.95-.078.238-3.912 2.741-4.197 2.741-.16 0-.578-.298-.927-.662-.728-.757-4.721-4.065-6.911-5.723-2.632-1.993-4.811-3.362-7.957-4.995l-3.085-1.601-.957.2c-3.968.833-11.766 5.91-17.272 11.247-.975.945-1.816 1.719-1.867 1.719-.052 0-1.039-.633-2.194-1.407zm19.769-24.006c-2.104-.364-4.404-1.36-5.571-2.414-2.323-2.096-3.684-4.856-3.803-7.71-.163-3.91.77-7.313 4.346-15.86 1.622-3.877 2.435-6.647 2.583-8.804.115-1.675.15-1.645-2.261-1.992-10.207-1.468-21.398-6.924-28.789-14.034-2.813-2.707-9.678-8.868-11.35-10.186-2.369-1.868-2.368-1.913.038-5.03 3.002-3.887 8.387-9.013 12.384-11.785C69.2 69.72 78.459 66.38 89.69 65.502c6.576-.515 14.568.25 20.43 1.956 10.029 2.918 17.653 7.356 25.322 14.743 3.361 3.238 7.582 8.292 7.582 9.08 0 .132-1.563 1.592-3.473 3.246a322 322 0 0 0-7.336 6.611c-4.929 4.6-7.319 6.412-13.06 9.902-5.28 3.21-12.1 5.563-18.546 6.398-1.15.149-2.141.322-2.203.383-.707.708 1.034 6.764 3.88 13.496 2.977 7.042 3.623 11.327 2.32 15.398-1.614 5.044-7.19 8.357-12.517 7.436m-.878-8.59.562-.6-.1-6.417c-.119-7.62-.262-8.14-1.542-5.6-2.162 4.293-3.452 9.647-2.76 11.458.682 1.787 2.685 2.392 3.84 1.16m10.02-34.538c8.282-1.388 14.114-4.043 22.3-10.151 3.703-2.764 9.888-8.476 10.834-10.007l.382-.618-.371-.521c-.565-.793-4.877-4.916-6.951-6.647-4.4-3.67-12.382-8.153-14.518-8.153-.444 0-.451-.024.479 1.516 2.181 3.61 3.316 9.82 2.54 13.894-.997 5.234-4.482 10.788-8.49 13.534-4.478 3.067-11.013 4.696-16.426 4.095-7.571-.84-14.695-5.806-17.664-12.314-3.022-6.623-2.787-12.777.746-19.546.391-.749-.067-.794-1.592-.156-6.132 2.566-15.274 9.284-18.507 13.602-.51.682-.513.699-.188 1.2.515.792 6.292 6.475 7.834 7.705a135 135 0 0 1 2.606 2.143c2.981 2.531 8.807 5.948 13.308 7.805 3.538 1.46 8.809 2.684 13.52 3.14 2.101.203 7.485-.073 10.158-.521m-3.329-9.333c4.602-1.185 8.606-4.464 10.713-8.77 1.415-2.894 1.571-7.856.328-10.411-.906-1.863-3.07-3.652-2.755-2.277.313 1.366.338 4.962.044 6.38-1.04 5.012-4.35 8.864-8.607 10.012-1.5.404-5.185.464-6.643.107-4.156-1.016-7.52-4.39-8.583-8.608-.334-1.325-.389-4.44-.101-5.723.328-1.464 2.1-4.894 3.323-6.433.614-.773 1.116-1.447 1.116-1.5 0-.37-2.988.75-4.436 1.664-3.135 1.975-5.332 7.38-4.808 11.825 1.15 9.75 10.763 16.219 20.41 13.734m-3.96-17.91c2.848-1.452 2.086-6.899-1.048-7.487-1.684-.316-3.942 2.073-3.942 4.17 0 2.68 2.708 4.481 4.99 3.318m-51.675 4.611c-.006-.106.738-1.89 2.037-4.884 2.58-5.945 7.657-12.427 13.09-16.714 7.362-5.809 12.33-8.582 19.457-10.858 3.55-1.133 3.61-1.136 4.253-.209.767 1.108 3.39 3.534 4.4 4.07.475.252.864.5.864.553 0 .052-1.183.419-2.63.816-11.924 3.27-18.135 6.207-26.62 12.584-5.195 3.904-11.175 9.782-14.436 14.188-.225.304-.412.509-.415.454m101.118-2.805-3.057-3.553c-1.204-1.4-3.818-3.862-5.814-5.475-.67-.542-1.792-1.45-2.491-2.019-5.526-4.489-12.971-8.637-19.91-11.092-2.582-.914-8.239-2.59-9.557-2.83l-.697-.129 1.155-.67c1.281-.744 3.357-2.745 4.153-4.005.596-.945.463-.919 2.32-.451 4.363 1.1 11.218 4.364 16.156 7.694 9.37 6.32 14.896 12.89 18.676 22.205.432 1.065.87 2.043.971 2.173.102.129.15.27.105.315-.044.044-.948-.93-2.01-2.163M91.535 59.6c-5.84-1.251-10.503-6.61-10.516-12.084-.009-3.513 2.404-6.42 5.962-7.186 1.264-.271.313-.564-2.566-.788-4.919-.384-9.906-1.86-11.67-3.454-1.888-1.705-1.442-4.582.893-5.775 1.562-.798 3.442-.46 10.954 1.968 5.244 1.694 6.52 1.942 9.896 1.922 3.07-.019 5.625-.58 11.576-2.541 5.823-1.919 7.09-2.077 8.993-1.118 1.367.688 1.798 1.263 1.904 2.542.164 1.977-1.28 3.656-3.926 4.567-2.145.738-7.29 1.676-10.656 1.943-.786.063-1.482.2-1.547.303-.137.223.258.51.708.515 1.698.015 4.552 2.348 5.31 4.34 2.189 5.754-2.84 13.624-9.447 14.782-2.63.461-3.948.476-5.868.064m5.222-4.526c3.895-1.01 6.597-4.129 6.585-7.605-.009-2.754-2.468-5.165-3.36-3.295-.29.609-.329.625-2.018.848-2.1.277-4.472.312-7.56.11l-2.331-.153-.296-.62c-.348-.73-.584-.764-1.428-.204-2.333 1.55-1.763 6.083 1.085 8.626 2.48 2.214 6.148 3.116 9.323 2.293m-5.13-22.98a30 30 0 0 1-1.845-.394l-.923-.234v-3.414c0-4.023-.056-4.205-2.016-6.52-3.19-3.768-4.027-8.994-1.997-12.459 2.426-4.141 7.645-6.3 12.325-5.099 4.269 1.096 7.816 5.446 7.831 9.603.01 2.519-.572 4.134-2.705 7.517-1.989 3.155-1.989 3.156-1.965 6.9l.02 3.172-1.687.39c-3.076.712-5.131.868-7.038.537"
   style="display:inline;opacity:1;fill:#000;fill-opacity:1;stroke:none;stroke-width:.999998;stroke-dasharray:none;stroke-opacity:1"
   id="path1"><desc
     id="desc1">Traced logo based on chatgpt-generated design.</desc></path>
</svg>
