<?xml version="1.0" encoding="UTF-8" standalone="no"?>
<svg
   xml:space="preserve"
   width="8cm"
   height="8cm"
   viewBox="0 0 302.362 302.362"
   version="1.1"
   id="svg1"
   sodipodi:docname="ministry-of-offence-seal-baked.svg"
   inkscape:version="1.4.2 (ebf0e940, 2025-05-08)"
   xmlns:inkscape="http://www.inkscape.org/namespaces/inkscape"
   xmlns:sodipodi="http://sodipodi.sourceforge.net/DTD/sodipodi-0.dtd"
   xmlns="http://www.w3.org/2000/svg"
   xmlns:svg="http://www.w3.org/2000/svg"><sodipodi:namedview
   id="namedview1"
   pagecolor="#ffffff"
   bordercolor="#000000"
   borderopacity="0.25"
   inkscape:showpageshadow="2"
   inkscape:pageopacity="0.0"
   inkscape:pagecheckerboard="false"
   inkscape:deskcolor="#d1d1d1"
   inkscape:document-units="cm"
   showgrid="false"
   inkscape:zoom="2.404401"
   inkscape:cx="151.38906"
   inkscape:cy="151.1811"
   inkscape:current-layer="svg1"
   labelstyle="default"
   inkscape:antialias-rendering="true"
   inkscape:clip-to-page="false"
   showguides="true" /><defs
   id="defs1" />
  <path
   id="path1"
   style="display:inline;opacity:1;stroke-width:0.999998"
   inkscape:label="Ministry Logotype"
   d="m 152.87305,63.554687 c -0.57911,-0.04617 -1.15945,-0.0439 -1.73633,0.0039 -3.46079,0.286771 -6.76565,2.230398 -8.53125,5.24414 -1.94529,3.320411 -1.15156,8.429908 1.9668,12.113282 0.98159,1.159383 1.52185,1.82222 1.80078,2.724609 0.27892,0.902389 0.28711,1.975398 0.28711,3.988281 v 3.181641 l 0.69336,0.175781 c 0.60279,0.148824 1.20937,0.277921 1.82031,0.388672 a 0.30003001,0.30003001 0 0 1 0.004,0 c 1.85555,0.322069 3.86315,0.172394 6.91993,-0.535156 l 1.45312,-0.333985 -0.0195,-2.93164 c -0.024,-3.743992 0.0227,-3.90746 2.01172,-7.0625 2.12315,-3.367379 2.66802,-4.883191 2.6582,-7.355469 -0.0144,-3.987151 -3.48097,-8.256052 -7.60351,-9.314453 -0.56789,-0.145734 -1.14551,-0.240936 -1.72461,-0.28711 z M 112.9043,82.427734 c -0.13133,0.01689 -0.24007,0.02776 -0.49805,0.07617 -0.37834,0.071 -0.85322,0.16949 -1.3418,0.277344 -0.97716,0.215708 -2.02383,0.474243 -2.4414,0.613281 -5.36509,1.787388 -10.763364,7.940148 -13.0918,15.03125 -0.817978,2.489019 -1.127061,3.139369 -2.462891,5.197269 -0.540726,0.83386 -1.195468,1.93561 -1.433593,2.40429 -0.230115,0.45359 -0.425019,0.7775 -0.619141,0.99414 -0.0972,0.10848 -0.192496,0.19824 -0.337891,0.24805 -0.145394,0.0498 -0.359864,0.003 -0.470703,-0.10742 -0.09238,-0.0917 -0.08993,-0.16236 -0.09375,-0.20313 -0.0038,-0.0411 -8.16e-4,-0.0679 0.002,-0.0937 0.0055,-0.0517 0.01599,-0.0965 0.0293,-0.15039 0.02661,-0.10785 0.06713,-0.24263 0.121094,-0.40234 0.107928,-0.31942 0.266472,-0.73875 0.453125,-1.18945 1.313573,-3.17325 1.887183,-8.526322 1.386719,-13.171878 v -0.002 c -0.211734,-1.953447 -0.369203,-3.303514 -0.486328,-4.15625 -0.0426,-0.310175 -0.07328,-0.483857 -0.105469,-0.666016 -0.115369,0.141687 -0.234946,0.289716 -0.394531,0.5 -0.417461,0.550085 -0.958498,1.29803 -1.511719,2.083984 -1.106443,1.571909 -2.275222,3.331515 -2.542969,3.865235 -2.60576,5.191757 -3.132869,10.782258 -1.576172,16.826168 0.530452,2.05979 0.732705,3.63927 0.414063,5.98243 -0.318643,2.34315 -1.145403,5.45277 -2.660157,10.67187 a 0.30003001,0.30003001 0 0 1 -0.002,0 c -0.101208,0.34758 -0.210132,0.67436 -0.308593,0.92774 -0.04923,0.12668 -0.09441,0.23382 -0.138672,0.32226 -0.02213,0.0442 -0.04462,0.0842 -0.07031,0.12305 -0.02569,0.0388 -0.04114,0.0785 -0.132812,0.13476 -6.88e-4,4.2e-4 -0.07939,0.035 -0.08008,0.0352 -6.85e-4,1.8e-4 -0.102835,0.01 -0.103516,0.01 -6.81e-4,-5e-5 -0.09503,-0.0231 -0.0957,-0.0234 -6.77e-4,-2.9e-4 -0.0504,-0.0271 -0.06836,-0.041 -0.07183,-0.0557 -0.08478,-0.0968 -0.09766,-0.125 -0.02574,-0.0564 -0.02996,-0.0864 -0.03711,-0.12305 -0.01429,-0.0734 -0.02383,-0.15795 -0.0332,-0.26757 -0.01874,-0.21925 -0.03456,-0.53048 -0.04687,-0.91992 -0.02463,-0.7789 -0.03631,-1.86504 -0.0293,-3.08399 0.02398,-4.47237 -0.045,-5.19112 -0.820313,-8.32031 -0.517396,-2.09216 -2.56609,-6.40993 -4.15625,-8.76563 -0.105222,0.18177 -0.2471,0.51033 -0.40625,1.02149 -0.341927,1.0982 -0.757767,2.88521 -1.220703,5.2832 -1.037483,5.36934 0.123699,12.83728 2.744141,17.66602 1.941728,3.57575 2.359591,5.36601 2.005859,8.64257 -0.112805,1.04707 -0.210978,3.94987 -0.208984,6.38282 5.01e-4,1.35749 -0.01652,2.46999 -0.04687,3.24804 -0.01518,0.38903 -0.03388,0.69308 -0.05664,0.91016 -0.01138,0.10854 -0.02348,0.19371 -0.04102,0.26953 -0.0088,0.0379 -0.01697,0.0712 -0.04102,0.12109 -0.01202,0.025 -0.0255,0.056 -0.06445,0.0957 -0.03895,0.0397 -0.121151,0.0957 -0.22461,0.0957 -0.05174,0 -0.134079,-0.009 -0.214843,-0.0508 -0.08076,-0.0421 -0.14205,-0.11073 -0.183594,-0.17773 -0.08309,-0.134 -0.12412,-0.28031 -0.181641,-0.5254 -0.115041,-0.49017 -0.264894,-1.3708 -0.542968,-3.03125 -0.123823,-0.73945 -0.266412,-1.49138 -0.394532,-2.10546 -0.128119,-0.61408 -0.25182,-1.11036 -0.304687,-1.25391 -0.925026,-2.53134 -1.273437,-3.34242 -1.523438,-3.68555 -0.219226,-0.30143 -0.827873,-1.29613 -1.414062,-2.29687 -1.108204,-1.89018 -3.767781,-5.11201 -5.201172,-6.3125 h -0.002 l -0.53125,-0.44531 -0.04492,0.21289 c -0.125302,0.59177 -0.166776,2.13991 -0.111328,3.82812 0.05545,1.68822 0.19903,3.54792 0.404297,4.87305 0.892829,5.76217 2.643749,9.50558 6.474609,13.83789 1.907054,2.15584 3.301143,3.9056 3.740234,4.76367 0.233118,0.45519 0.5103,1.35518 0.773438,2.3457 0.263138,0.99053 0.495872,2.04247 0.582031,2.74219 0.210849,1.7299 1.941728,6.90466 3.039063,9.02539 0.261124,0.503 0.415819,0.9123 0.447265,1.24024 0.01572,0.16396 0.02817,0.35848 -0.166015,0.50976 -0.09709,0.0756 -0.231197,0.0941 -0.328125,0.0781 -0.09693,-0.016 -0.172699,-0.053 -0.248047,-0.0996 -0.08621,-0.0533 -0.09707,-0.0853 -0.126953,-0.12305 -0.02989,-0.0378 -0.06116,-0.0798 -0.09375,-0.12891 -0.06519,-0.0982 -0.140177,-0.22324 -0.226563,-0.37304 -0.172771,-0.2996 -0.383407,-0.69216 -0.59375,-1.11133 -3.047949,-6.07796 -5.750068,-9.60835 -9.470703,-12.40625 -0.818259,-0.61528 -2.128382,-1.43661 -3.248047,-2.07031 -0.559832,-0.31685 -1.074035,-0.58804 -1.451172,-0.76368 -0.120438,-0.0561 -0.195894,-0.0828 -0.283203,-0.11718 0.0079,0.0695 0.01023,0.11933 0.02539,0.21093 0.0567,0.3426 0.162115,0.82304 0.304687,1.38672 0.285144,1.12738 0.71608,2.58734 1.195313,3.99024 2.564834,7.50584 6.662941,12.64638 12.574219,15.80664 3.828839,2.04822 5.488492,3.59683 8.777343,8.19922 1.228256,1.71936 2.86876,3.86577 3.619141,4.73633 0.386923,0.44939 0.738508,0.87678 0.996094,1.20898 0.128793,0.1661 0.233746,0.30759 0.310547,0.41992 0.0384,0.0562 0.06962,0.10588 0.0957,0.15235 0.01304,0.0232 0.02527,0.0457 0.03711,0.0742 0.01184,0.0285 0.03125,0.0543 0.03125,0.14063 0,0.072 -0.0064,0.1482 -0.04883,0.23828 -0.04239,0.0901 -0.149262,0.18794 -0.259766,0.21484 -0.221007,0.0538 -0.342614,-0.0355 -0.490234,-0.125 -0.295241,-0.17894 -0.692739,-0.51811 -1.310547,-1.08007 -1.244736,-1.13105 -4.94549,-4.09214 -6.099609,-4.88282 -2.742193,-1.87891 -7.452952,-3.47245 -11.203125,-3.77734 l -1.019532,-0.082 1.087891,1.58398 c 5.917405,8.63541 10.253655,11.82333 17.978516,13.23633 5.590291,1.02151 6.927351,1.52859 10.841801,4.10547 1.40716,0.92662 2.81738,1.84897 4.22851,2.76953 l 3.08985,2.01172 c 0.53172,0.34681 0.91383,0.6244 1.16406,0.83984 0.12511,0.10773 0.21776,0.19599 0.28906,0.29688 0.0357,0.0504 0.0701,0.10242 0.0879,0.19336 0.0178,0.0909 -0.0181,0.25232 -0.11133,0.33398 -0.0933,0.0817 -0.1799,0.0897 -0.24609,0.0937 -0.0662,0.004 -0.12325,-0.003 -0.18555,-0.0137 -0.12459,-0.021 -0.26607,-0.061 -0.43945,-0.12109 -0.34677,-0.12019 -0.81616,-0.31956 -1.41602,-0.60547 -2.52783,-1.20487 -6.15966,-2.60046 -7.98632,-3.07813 -3.0435,-0.79391 -8.802972,-0.77854 -13.54688,0.0723 l -0.04883,0.008 0.845703,0.78125 c 2.816005,2.59924 8.588541,5.9374 12.580075,7.26758 3.65827,1.21844 9.95194,1.55669 13.15821,0.72851 2.25598,-0.58208 5.42766,-0.51186 7.46093,0.17774 4.95627,1.67743 7.44197,2.5521 8.27344,2.92187 0.89479,0.37947 1.79846,0.73813 2.70899,1.07813 0.67919,0.25571 1.18663,0.46735 1.5332,0.64062 0.17328,0.0866 0.30476,0.16258 0.41015,0.24219 0.0527,0.0398 0.0991,0.0796 0.14454,0.14063 0.0454,0.061 0.10375,0.16747 0.0742,0.30468 -0.0295,0.13722 -0.13654,0.21808 -0.20898,0.25196 -0.0724,0.0339 -0.13419,0.0447 -0.19922,0.0527 -0.13006,0.0161 -0.27906,0.0136 -0.46875,0 -0.37938,-0.0273 -0.91401,-0.10466 -1.62109,-0.23242 -1.65439,-0.2988 -5.92676,-0.344 -7.5586,-0.082 -2.50554,0.40327 -5.77302,1.72601 -8.49218,3.45117 l -0.39258,0.24805 0.23633,0.12109 a 0.30003001,0.30003001 0 0 1 0.002,0 c 2.05529,1.04651 6.21964,2.12427 8.98828,2.3125 2.08534,0.14274 4.11907,-0.21544 8.04492,-1.42969 3.16362,-0.9785 4.91021,-1.49268 6.22657,-1.66015 1.31635,-0.16747 2.1941,0.0336 3.48632,0.44922 0.19452,0.0626 0.33998,0.0965 0.48828,0.23242 0.0742,0.068 0.15462,0.2102 0.13672,0.35156 -0.0179,0.14136 -0.0946,0.22471 -0.16406,0.28906 -0.13888,0.1287 -0.31661,0.22155 -0.58594,0.35157 -0.26932,0.13001 -0.62545,0.28581 -1.08789,0.48242 -2.41444,1.0268 -6.93701,3.80973 -11.2207,6.92578 -1.17448,0.85403 -2.4846,1.89175 -3.49805,2.74609 -0.50672,0.42718 -0.93948,0.80886 -1.24023,1.09571 -0.13249,0.12635 -0.22725,0.22529 -0.30078,0.30664 0.0988,0.0788 0.22622,0.17854 0.39648,0.30273 0.37573,0.27406 0.89799,0.63688 1.47266,1.02148 a 0.30003001,0.30003001 0 0 1 0.002,0 c 0.57601,0.386 1.11045,0.73706 1.50586,0.99024 0.19771,0.12659 0.36056,0.22986 0.47461,0.29883 0.009,0.005 0.0114,0.007 0.0195,0.0117 0.004,-0.003 0.004,-0.005 0.008,-0.008 0.0968,-0.0834 0.23642,-0.20878 0.4043,-0.36328 0.33576,-0.309 0.78752,-0.73606 1.27344,-1.20703 2.76967,-2.68467 6.10775,-5.29814 9.25781,-7.34961 3.15006,-2.05147 6.09487,-3.543 8.16016,-3.97656 a 0.30003001,0.30003001 0 0 1 0.002,0 l 0.95703,-0.19922 a 0.30003001,0.30003001 0 0 1 0.19922,0.0273 l 3.08398,1.60157 c 3.15654,1.63847 5.35715,3.02026 8,5.02148 1.10157,0.83397 2.6478,2.07609 4.01368,3.20703 1.36587,1.13094 2.53091,2.12815 2.93359,2.54688 0.16153,0.16847 0.34271,0.32278 0.49219,0.42968 0.0747,0.0535 0.1407,0.0957 0.1875,0.11915 0.0245,0.0123 0.009,0.008 0.0156,0.01 0.0314,-0.0136 0.0774,-0.0346 0.13477,-0.0644 0.12347,-0.0643 0.29269,-0.15988 0.49023,-0.27735 0.39509,-0.23493 0.90115,-0.55303 1.40039,-0.8789 0.49925,-0.32588 0.99392,-0.65972 1.36328,-0.92383 0.18469,-0.13206 0.33869,-0.24745 0.44336,-0.33203 0.0207,-0.0167 0.0284,-0.025 0.0449,-0.0391 -0.003,-0.005 -4.2e-4,-0.004 -0.004,-0.01 -0.0576,-0.0876 -0.16936,-0.22076 -0.32227,-0.37891 -0.3058,-0.31628 -0.77837,-0.7378 -1.37304,-1.22656 -1.18935,-0.97751 -2.86325,-2.2279 -4.69727,-3.51953 -3.66803,-2.58326 -7.99474,-5.34245 -10.36719,-6.45898 -0.28125,-0.13215 -0.48529,-0.23383 -0.64062,-0.36719 -0.0777,-0.0667 -0.16193,-0.14787 -0.1875,-0.30274 -0.0256,-0.15486 0.0722,-0.31909 0.16406,-0.39062 0.18376,-0.14307 0.38013,-0.17735 0.68555,-0.23633 0.30542,-0.059 0.71012,-0.1154 1.23047,-0.17773 0.59069,-0.0707 1.03726,-0.0823 1.91992,0.1289 0.88266,0.21119 2.22847,0.63852 4.75195,1.45117 4.15634,1.33922 5.42139,1.55128 8.43555,1.41016 3.15318,-0.14827 6.33019,-0.88372 8.89844,-2.05469 l 0.88086,-0.40039 -2.14258,-1.08398 c -3.14818,-1.59053 -4.72946,-2.15427 -7.09375,-2.53711 -2.5881,-0.42057 -6.45568,-0.33742 -8.89453,0.1875 -0.30448,0.0656 -0.48111,0.10889 -0.70508,0.0332 -0.056,-0.0189 -0.12387,-0.0508 -0.18164,-0.12109 -0.0578,-0.0702 -0.0861,-0.17821 -0.0781,-0.25977 0.0159,-0.1631 0.0916,-0.23029 0.15821,-0.29687 0.26633,-0.26634 0.75856,-0.50718 1.46875,-0.75391 0.68735,-0.23858 2.76468,-1.02509 4.58984,-1.73437 3.34621,-1.30417 5.41312,-2.07442 6.91406,-2.52344 1.50095,-0.44902 2.44886,-0.57608 3.49219,-0.57813 1.14441,-0.001 2.67073,0.15846 4.02344,0.41602 2.95564,0.56405 7.72656,0.55908 10.36328,-0.006 3.96404,-0.84859 9.25187,-3.521 13.79687,-6.99805 1.1327,-0.86641 1.79425,-1.48213 1.9668,-1.76172 0.0181,-0.0293 0.0139,-0.0268 0.0215,-0.0449 -0.0229,-0.003 -0.1031,-0.0432 -0.33398,-0.0469 -0.12863,-0.002 -0.35793,-0.0258 -0.71094,-0.0625 -0.35301,-0.0367 -0.80003,-0.0865 -1.25781,-0.14063 -3.57412,-0.42594 -9.21708,-0.14548 -11.78516,0.56836 -1.80561,0.50172 -6.28737,2.2901 -7.62695,3.03516 -0.38738,0.21581 -0.69178,0.3644 -0.93555,0.44726 -0.12188,0.0414 -0.22629,0.0687 -0.34375,0.0703 -0.11697,0.002 -0.29223,-0.0435 -0.38476,-0.19141 -0.0499,-0.0798 -0.0859,-0.15803 -0.10742,-0.24609 -0.0108,-0.044 -0.0205,-0.0888 -0.0156,-0.15235 0.005,-0.0636 0.0258,-0.16709 0.12695,-0.24804 a 0.30003001,0.30003001 0 0 1 0.0195,-0.0137 c 29.51464,-19.89471 -29.40066,19.79439 0.125,-0.084 29.52565,-19.87837 -29.41166,19.77608 0.125,-0.0859 29.53665,-19.86201 -29.42265,19.76168 0.125,-0.084 29.54765,-19.84566 -29.43364,19.74531 0.125,-0.084 29.55863,-19.82929 -29.44461,19.72895 0.125,-0.084 29.5696,-19.81293 -29.45362,19.71257 0.12695,-0.084 29.58057,-19.79655 -29.46653,19.6962 0.125,-0.084 29.59153,-19.78017 -29.47748,19.68176 0.125,-0.082 29.60247,-19.76379 -29.48841,19.66341 0.125,-0.084 29.61341,-19.74739 -29.49934,19.64702 0.125,-0.084 29.62434,-19.731 -29.50831,19.63061 0.12695,-0.084 29.63526,-19.7146 -29.52117,19.61419 0.125,-0.084 29.64617,-19.69818 -29.53207,19.59974 0.125,-0.082 29.65707,-19.68177 -29.54101,19.58136 0.12695,-0.084 29.66797,-19.66535 -29.55384,19.56493 0.125,-0.084 29.67885,-19.64891 -29.56472,19.55045 0.125,-0.082 1.81044,-1.21039 3.61678,-2.42525 5.41993,-3.64648 4.71691,-3.19233 5.61509,-3.57341 11.07617,-4.68164 8.03771,-1.62997 13.573,-5.47043 18.37305,-12.75196 0.48657,-0.73835 0.92772,-1.4157 1.24804,-1.91211 0.10151,-0.1573 0.16588,-0.25815 0.24024,-0.375 -0.32077,0.0115 -0.76084,0.0359 -1.24805,0.0684 -2.81478,0.18983 -4.83874,0.77511 -7.89063,2.28516 -3.06263,1.51641 -4.85167,2.80759 -9.55468,6.90625 -0.46838,0.40806 -0.79803,0.66626 -1.04492,0.80469 -0.0617,0.0346 -0.11837,0.0614 -0.1836,0.082 -0.0652,0.0206 -0.14434,0.0468 -0.26562,0.006 -0.12129,-0.0409 -0.223,-0.19463 -0.23438,-0.29297 -0.0114,-0.0983 0.009,-0.16071 0.0293,-0.22266 0.0816,-0.24781 0.26682,-0.52428 0.57422,-0.94726 0.30739,-0.42299 0.73393,-0.96472 1.28125,-1.6211 0.98942,-1.18571 2.72599,-3.42901 3.84375,-4.96679 3.07712,-4.22993 3.49216,-4.5997 8.33984,-7.40625 2.58055,-1.49396 3.60216,-2.28517 5.71484,-4.42774 3.04222,-3.085 4.26183,-4.95311 5.94141,-9.08984 0.63975,-1.57514 1.26445,-3.55118 1.66602,-5.12305 0.20078,-0.78593 0.34458,-1.47346 0.4082,-1.94727 0.0206,-0.1532 0.02,-0.23578 0.0234,-0.33593 -0.10503,0.0508 -0.21395,0.1028 -0.36328,0.17968 -0.3907,0.20116 -0.90989,0.48048 -1.46094,0.78711 -5.91915,3.29207 -8.20137,5.71614 -11.59766,12.31836 -0.5297,1.02985 -0.94846,1.81059 -1.25976,2.34766 -0.15566,0.26854 -0.28393,0.47654 -0.39063,0.62891 -0.0533,0.0762 -0.10156,0.13752 -0.15039,0.1914 -0.0488,0.0539 -0.0812,0.10607 -0.20508,0.15039 -0.0619,0.0222 -0.17594,0.0341 -0.27343,-0.0195 -0.0975,-0.0537 -0.13852,-0.13989 -0.15625,-0.19531 -0.0355,-0.11083 -0.024,-0.16923 -0.0156,-0.24219 0.0167,-0.14591 0.0612,-0.32352 0.13086,-0.56445 0.1394,-0.48187 0.38604,-1.19985 0.74219,-2.16797 0.96832,-2.63344 1.29624,-3.72118 2.22656,-7.39648 1.18488,-4.68039 1.80459,-5.85885 4.84961,-9.2168 3.48301,-3.84442 5.10936,-7.05326 6.47266,-12.78906 0.80656,-3.39407 1.15467,-8.37002 0.77734,-10.7168 l -0.041,-0.25391 -0.88672,0.73828 c -3.0881,2.57359 -6.54705,7.65733 -7.46679,10.92774 -0.23783,0.84702 -0.69338,2.85024 -1.00196,4.41601 -0.31112,1.57366 -0.60314,3.0255 -0.6621,3.28516 -0.038,0.16626 -0.0699,0.28798 -0.1211,0.39844 -0.0256,0.0552 -0.0412,0.11685 -0.15039,0.18945 -0.0546,0.0363 -0.15394,0.0668 -0.24609,0.0488 -0.0922,-0.018 -0.15246,-0.0694 -0.1875,-0.10938 -0.0701,-0.0799 -0.0834,-0.1354 -0.10157,-0.19531 -0.0181,-0.0599 -0.0302,-0.12394 -0.043,-0.19922 -0.0256,-0.15055 -0.0482,-0.34617 -0.0684,-0.59765 -0.0805,-1.00594 -0.13552,-2.90931 -0.18555,-5.96289 -0.0645,-3.96476 -0.0679,-6.20056 0.12891,-7.80664 0.19672,-1.6054 0.60909,-2.58076 1.32617,-3.91993 v -0.002 c 4.27548,-7.98773 4.849,-16.29778 1.71094,-24.73437 a 0.30003001,0.30003001 0 0 1 0,-0.002 l -0.14063,-0.38086 -0.23633,0.42383 c -3.92467,7.03766 -4.52064,9.12894 -4.69726,16.44727 l -0.11914,4.88867 a 0.30003001,0.30003001 0 0 1 -0.58789,0.0801 l -0.42579,-1.38282 c -0.23353,-0.75949 -0.75153,-2.42077 -1.14843,-3.68945 -2.13911,-6.83213 -2.33918,-9.21623 -1.15625,-13.60937 0.65946,-2.44602 0.66687,-2.54 0.67187,-5.67383 0.005,-3.43446 -0.1084,-4.11793 -1.24609,-7.451174 -0.48192,-1.412495 -1.7454,-3.784086 -2.98438,-5.777344 -0.61949,-0.996628 -1.23457,-1.903083 -1.74023,-2.554687 -0.25283,-0.325802 -0.4789,-0.58749 -0.65625,-0.759766 -0.11923,-0.115815 -0.13979,-0.120732 -0.17774,-0.146484 -0.0481,0.114166 -0.10575,0.293376 -0.16211,0.537109 -0.11966,0.517538 -0.23527,1.276794 -0.33593,2.177735 -0.20134,1.801881 -0.3385,4.176056 -0.33203,6.408203 0.012,4.363278 0.27588,5.764618 1.66211,8.822268 0.18415,0.40559 0.3092,0.7248 0.375,0.97656 0.0329,0.1261 0.0524,0.23481 0.0488,0.34961 -0.004,0.1148 -0.0408,0.27825 -0.19336,0.37305 a 0.30003001,0.30003001 0 0 1 0,0.002 c -0.13783,0.0849 -0.34765,0.0849 -0.48828,0.0156 -0.14062,-0.0693 -0.24424,-0.17498 -0.35351,-0.31054 -0.21855,-0.27113 -0.45786,-0.68579 -0.77539,-1.30469 -0.24275,-0.47403 -0.7677,-1.35076 -1.14453,-1.90625 -1.02729,-1.51793 -2.11977,-3.780915 -2.86915,-5.935547 V 97.75 c -2.16811,-6.225962 -6.30915,-11.094399 -11.65625,-13.728516 -0.63417,-0.312423 -1.98904,-0.767235 -3.1875,-1.101562 -0.59922,-0.167164 -1.16467,-0.307022 -1.58398,-0.388672 -0.16276,-0.03169 -0.27797,-0.04585 -0.38672,-0.05859 0.0144,0.06416 0.0215,0.110391 0.043,0.19336 0.0808,0.312 0.20718,0.741366 0.35742,1.21289 0.30048,0.943049 0.69507,2.060948 1,2.78125 1.98614,4.688677 5.23267,8.382597 11.04297,12.53125 2.07233,1.480224 3.86544,2.896674 4.75391,3.767574 0.49689,0.48716 1.43014,1.7863 2.44336,3.28907 1.01321,1.50277 2.0719,3.17853 2.70312,4.33593 a 0.30003001,0.30003001 0 0 1 0.002,0.004 c 0.0696,0.13162 0.0538,0.2719 0.01,0.37695 -0.044,0.10506 -0.11762,0.18964 -0.2168,0.25 -0.13129,0.0799 -0.23868,0.0479 -0.30078,0.0273 -0.0621,-0.0205 -0.10579,-0.0455 -0.15039,-0.0742 -0.0892,-0.0573 -0.17848,-0.13203 -0.2793,-0.22461 -0.20162,-0.18516 -0.44304,-0.44123 -0.6875,-0.73828 -2.29494,-2.78735 -5.68304,-5.10624 -9.28125,-6.3457 -1.02248,-0.35243 -2.46332,-0.72323 -3.7207,-0.98438 -0.62869,-0.13057 -1.21301,-0.23416 -1.67383,-0.29492 -0.29703,-0.0392 -0.40901,-0.0293 -0.57031,-0.0312 0.0528,0.11136 0.0971,0.21249 0.19141,0.37695 0.27737,0.48387 0.71433,1.15917 1.23047,1.9043 1.03227,1.49026 2.38309,3.26869 3.41992,4.42773 3.40338,3.80232 5.56825,5.24255 10.28711,6.84766 1.6253,0.55311 2.55427,0.88398 3.17578,1.18945 0.62151,0.30548 0.94444,0.61087 1.25,1.01758 0.4969,0.66356 0.87449,1.3182 1.33984,2.50195 0.46536,1.18376 1.02752,2.90491 1.91797,5.75586 0.46544,1.49096 0.81123,2.66211 1.03906,3.51953 0.11392,0.42872 0.19881,0.77774 0.25391,1.05469 0.0551,0.27695 0.0849,0.4697 0.0742,0.64258 -0.005,0.0864 0.004,0.19287 -0.13672,0.31445 -0.0705,0.0608 -0.18748,0.0915 -0.26953,0.0801 -0.0821,-0.0114 -0.13335,-0.0424 -0.17383,-0.0703 -0.16192,-0.11177 -0.24109,-0.24678 -0.375,-0.45899 -0.26783,-0.4244 -0.64053,-1.13727 -1.13672,-2.15625 -1.99114,-4.08926 -4.02992,-6.10426 -8.79297,-8.67968 -0.76426,-0.4135 -2.07744,-0.96299 -3.18359,-1.36719 -0.55308,-0.2021 -1.05775,-0.37058 -1.41211,-0.4668 -0.0414,-0.0112 -0.0546,-0.0103 -0.0918,-0.0195 0.007,0.0176 0.01,0.0263 0.0176,0.0449 0.10465,0.24906 0.25869,0.58541 0.44727,0.98242 0.37716,0.79404 0.89208,1.82813 1.44336,2.89649 1.10254,2.13671 2.35875,4.43509 2.88867,5.2207 1.91417,2.83589 4.94946,5.47603 8.65625,7.51367 1.53773,0.84565 2.78896,1.90553 3.24804,2.87305 0.11327,0.23885 0.17581,0.57724 0.25586,1.07422 0.0801,0.49698 0.15955,1.12945 0.23633,1.85156 0.15357,1.44422 0.29676,3.247 0.4043,5.00977 0.10753,1.76276 0.18041,3.48493 0.19336,4.77343 0.006,0.64426 -0.002,1.17871 -0.0293,1.56446 -0.0137,0.19287 -0.0314,0.34693 -0.0605,0.47461 -0.0146,0.0638 -0.0298,0.11962 -0.0664,0.1875 -0.0183,0.0339 -0.0422,0.0723 -0.0898,0.11328 -0.0476,0.041 -0.13011,0.084 -0.21875,0.084 -0.16603,0 -0.25792,-0.0913 -0.3164,-0.16015 -0.0585,-0.0688 -0.0971,-0.14082 -0.13281,-0.22071 -0.0714,-0.15977 -0.12473,-0.35448 -0.15625,-0.56836 -0.61331,-4.15341 -1.88495,-7.21707 -4.33789,-10.46093 h 0.002 c -1.73393,-2.29117 -3.28876,-3.66001 -6.02149,-5.32813 -0.005,0.0612 -0.0136,0.0735 -0.0137,0.15625 -6e-4,0.41822 0.0621,1.08759 0.17969,1.9082 0.2352,1.64124 0.68819,3.90149 1.26953,6.16016 1.16998,4.54471 2.47069,7.01131 5.64649,10.69336 0.87782,1.01828 1.81369,2.14343 2.11328,2.55078 0.89616,1.2174 1.04376,3.21884 0.61718,5.78711 -0.42657,2.56828 -1.45063,5.71838 -3.03125,9.23633 -0.19327,0.42939 -0.38065,0.85598 -0.52734,1.19726 -0.14669,0.34129 -0.25879,0.61578 -0.27734,0.66993 -0.044,0.12915 -0.1099,0.24098 -0.19727,0.33398 -0.0877,0.0934 -0.19852,0.18945 -0.38672,0.18945 -0.17594,0 -0.35722,-0.14614 -0.41797,-0.28711 -0.0608,-0.14096 -0.0677,-0.27757 -0.0605,-0.43359 0.0144,-0.31203 0.10524,-0.70644 0.26367,-1.18945 1.30282,-3.98322 0.61621,-10.60962 -1.48438,-14.28516 -0.33273,-0.58265 -1.09635,-1.73702 -1.78711,-2.73437 -0.34537,-0.49868 -0.67439,-0.96079 -0.92382,-1.29493 -0.0474,-0.0635 -0.0741,-0.0948 -0.11524,-0.14843 -0.0152,0.0548 -0.0243,0.0833 -0.041,0.14648 -0.10612,0.40138 -0.24036,0.96233 -0.37305,1.58008 -1.82172,8.45248 -1.64091,12.64532 0.81445,18.97656 0.82635,2.13045 1.19221,3.7186 0.98242,5.30078 -0.20978,1.58218 -0.98657,3.11906 -2.36523,5.16993 -0.9622,1.4321 -2.70733,3.58676 -4.22266,5.3164 -0.75766,0.86482 -1.45559,1.62034 -1.97265,2.12695 -0.25853,0.25331 -0.46743,0.4426 -0.63867,0.56446 -0.0856,0.0609 -0.14562,0.11259 -0.28125,0.13867 -0.0678,0.013 -0.19065,0.0155 -0.29297,-0.0703 -0.10232,-0.0859 -0.12305,-0.2044 -0.12305,-0.27344 0,-0.15836 0.0431,-0.22783 0.0937,-0.34961 0.0506,-0.12178 0.1194,-0.26477 0.20312,-0.42578 0.16711,-0.32136 0.39463,-0.71371 0.64454,-1.10547 l 0.002,-0.002 c 0.94999,-1.49346 2.63341,-5.47517 3.0332,-7.17383 a 0.30003001,0.30003001 0 0 1 0.002,0 c 0.24846,-1.05313 0.3053,-2.95633 0.18359,-4.96289 -0.12171,-2.00656 -0.41711,-4.13318 -0.83594,-5.6836 -0.10098,-0.374 -0.19293,-0.75443 -0.25976,-1.07031 -0.0376,-0.17783 -0.0446,-0.27569 -0.0645,-0.40234 -0.28317,0.38548 -0.73714,1.10709 -1.5625,2.49414 -4.01641,6.74957 -4.84374,9.38127 -5.26367,16.77539 -0.15421,2.70998 -0.42354,4.53666 -1.07617,6.02344 -0.65263,1.48678 -1.68476,2.6031 -3.28516,3.87695 -1.14692,0.91274 -3.33987,2.38861 -5.40429,3.69141 -1.03221,0.65139 -2.03133,1.25806 -2.84766,1.72656 -0.81633,0.4685 -1.41846,0.79314 -1.78711,0.9082 -0.11129,0.0346 -0.20744,0.0568 -0.30078,0.0664 -0.0933,0.01 -0.19664,0.0265 -0.33203,-0.0723 -0.0677,-0.0494 -0.1261,-0.14208 -0.14063,-0.22461 -0.0145,-0.0825 3.8e-4,-0.14643 0.0176,-0.19726 0.0344,-0.10167 0.0843,-0.16854 0.14453,-0.24219 0.24105,-0.2946 0.71253,-0.67561 1.42969,-1.18359 4.29678,-3.04248 6.449,-6.79311 8.10547,-14.1875 0.17325,-0.7749 0.33127,-1.58539 0.44531,-2.26368 0.11405,-0.67828 0.18164,-1.24329 0.18164,-1.44531 v -0.37304 l -0.68359,0.45898 c -3.40136,2.28046 -7.08984,5.67027 -9.12891,8.38477 -1.85041,2.46522 -2.47356,3.69158 -4.4707,8.79882 -0.90482,2.3141 -1.42834,3.58839 -2.02344,4.46875 -0.59509,0.88037 -1.26412,1.33282 -2.33984,1.93946 -0.90753,0.51227 -3.75144,1.67671 -7.04883,2.95117 -3.29841,1.27485 -7.01034,2.63571 -9.52734,3.45898 -1.1578,0.37701 -3.18133,1.09734 -4.47657,1.59375 l -2.36718,0.90821 a 0.30003001,0.30003001 0 0 1 -0.20118,0.006 l -3.99804,-1.32422 c -2.20636,-0.73011 -4.82929,-1.67851 -5.8711,-2.125 -0.99756,-0.42753 -3.78557,-1.5108 -6.16797,-2.39649 h -0.002 c -2.26641,-0.84143 -4.46889,-1.75729 -6.21289,-2.5625 -0.87223,-0.40271 -1.63009,-0.77637 -2.22656,-1.10351 -0.59648,-0.32715 -1.02409,-0.59469 -1.2793,-0.83789 -0.71023,-0.67801 -1.41453,-2.14295 -2.83008,-5.61719 -1.73385,-4.25193 -3.01599,-6.42136 -5.41406,-9.16797 -1.24484,-1.42596 -6.07492,-5.70731 -7.70703,-6.82813 l -0.86523,-0.5957 v 0.29492 c 0.001,1.75993 0.71886,4.68723 1.74414,7.51563 1.02527,2.82839 2.36507,5.58294 3.5332,7.03515 0.47458,0.59093 1.71277,1.72599 2.75976,2.51172 0.52208,0.39256 1.00634,0.75648 1.36524,1.02735 0.17945,0.13543 0.32712,0.24722 0.43359,0.32812 0.0532,0.0404 0.0975,0.0735 0.12891,0.0977 0.0314,0.0241 0.0368,0.0291 0.0664,0.0547 0.0812,0.0701 0.11714,0.17625 0.12109,0.25195 0.004,0.0757 -0.0104,0.13032 -0.0293,0.17969 -0.0379,0.0987 -0.0966,0.17622 -0.16992,0.24804 -0.13564,0.13157 -0.24463,0.10461 -0.31836,0.0977 -0.0742,-0.007 -0.14004,-0.0239 -0.2168,-0.0469 -0.1535,-0.046 -0.34238,-0.1211 -0.57226,-0.22265 -0.45977,-0.2031 -1.07962,-0.51491 -1.81641,-0.91602 -2.36012,-1.2857 -2.97783,-1.67877 -5.9375,-3.79297 -2.09742,-1.49772 -4.32998,-3.7865 -5.15625,-5.33789 l -0.63672,-1.19726 a 0.30003001,0.30003001 0 0 1 -0.0351,-0.13086 l -0.12891,-4.33594 c -0.13878,-4.62077 -0.33515,-5.90331 -1.35156,-8.76758 -0.44093,-1.24052 -1.51796,-3.54759 -2.6211,-5.70703 -1.09109,-2.13586 -2.225704,-4.14307 -2.753902,-4.82812 -0.01423,0.0344 -0.01367,0.0255 -0.0293,0.0684 -0.06799,0.18664 -0.15645,0.45599 -0.273437,0.81445 -0.853291,2.61277 -1.441154,7.05735 -1.208985,8.88086 0.544682,4.26899 1.440018,6.87005 3.164063,9.26172 0.63342,0.87927 0.969346,1.35124 1.126958,1.66992 0.0394,0.0797 0.0693,0.15179 0.0859,0.23633 0.0166,0.0845 0.0175,0.20112 -0.0488,0.30859 -0.0663,0.10747 -0.173789,0.1583 -0.249996,0.17774 -0.07621,0.0194 -0.138356,0.0215 -0.199218,0.0215 -0.147194,0 -0.206013,-0.0494 -0.279297,-0.0937 -0.07328,-0.0443 -0.147828,-0.0987 -0.230469,-0.16602 -0.165281,-0.13464 -0.364094,-0.31899 -0.591797,-0.54492 -0.455405,-0.45185 -1.025146,-1.07026 -1.626953,-1.75586 -1.203614,-1.37119 -2.525217,-3.00546 -3.261719,-4.11328 -0.433522,-0.65451 -1.372033,-2.36059 -2.123047,-3.85156 -0.824039,-1.63652 -1.286595,-2.75354 -1.421875,-3.79102 -0.135279,-1.03747 0.07356,-1.96642 0.535157,-3.16211 2.252513,-5.83814 2.407159,-6.55277 2.365234,-11.05468 -0.01788,-1.86623 -0.162324,-4.40594 -0.318359,-5.59375 -0.1541,-1.17532 -0.409174,-2.62417 -0.646485,-3.77344 -0.118655,-0.57464 -0.234398,-1.07656 -0.328125,-1.42578 -0.01023,-0.0381 -0.01565,-0.0515 -0.02539,-0.0859 -0.05864,0.0799 -0.105578,0.13915 -0.177735,0.24414 -0.264541,0.38491 -0.605874,0.92033 -0.96289,1.50195 -0.714033,1.16325 -1.489323,2.52313 -1.81836,3.23829 -1.783024,3.87768 -2.365481,8.20497 -1.628906,12.0332 0.191794,0.99803 0.329806,1.75676 0.408203,2.29101 0.0392,0.26713 0.06381,0.47767 0.07227,0.64258 0.0042,0.0825 0.0045,0.15194 -0.002,0.22071 -0.0064,0.0688 -0.0049,0.13728 -0.08008,0.24218 -0.03759,0.0524 -0.113392,0.11383 -0.205078,0.13282 -0.09168,0.019 -0.172044,-0.004 -0.222656,-0.0293 -0.101223,-0.0506 -0.135619,-0.10394 -0.177734,-0.1582 -0.08423,-0.10854 -0.161708,-0.24598 -0.259766,-0.4375 -0.196116,-0.38304 -0.457969,-0.96777 -0.798828,-1.75977 -1.972954,-4.58179 -3.35785,-9.19487 -3.533203,-11.88086 -0.056,-0.8645 -0.01306,-1.50197 0.435547,-2.33984 0.448606,-0.83788 1.272731,-1.88991 2.792968,-3.77344 3.221584,-3.99281 4.105565,-5.54834 5.125,-9.05078 0.815601,-2.79733 1.545927,-7.2878 1.550782,-9.45703 v -0.13086 l -0.91211,0.63086 c -2.600389,1.79764 -6.094074,5.79686 -7.304687,8.33789 -0.535233,1.12417 -1.488159,4.67438 -1.802735,6.81054 -0.03144,0.21338 -0.08354,0.40671 -0.154296,0.56641 -0.03538,0.0799 -0.07451,0.15167 -0.132813,0.2207 -0.0583,0.069 -0.150369,0.16211 -0.316406,0.16211 -0.08513,0 -0.162626,-0.0401 -0.205078,-0.0762 -0.04245,-0.0361 -0.0616,-0.0679 -0.07617,-0.0937 -0.02915,-0.0516 -0.03763,-0.0872 -0.04687,-0.12305 -0.01849,-0.0717 -0.02954,-0.14435 -0.03906,-0.23632 -0.01905,-0.18395 -0.02942,-0.43549 -0.03711,-0.75 -0.01538,-0.62903 -0.01138,-1.50775 0.0098,-2.53711 0.0423,-2.05873 0.152565,-4.71129 0.314453,-7.10352 0.144096,-2.13332 0.317389,-3.43208 0.871093,-4.43555 0.553705,-1.00346 1.465307,-1.64112 2.955079,-2.46289 5.526902,-3.04918 8.330078,-5.97343 11.207031,-11.68359 0.738532,-1.4661 1.418083,-2.91621 1.884765,-3.99414 0.229506,-0.53011 0.405388,-0.96581 0.511719,-1.26758 -0.06871,0.021 -0.117854,0.0348 -0.199219,0.0605 -0.36698,0.11629 -0.849811,0.27743 -1.359375,0.45508 a 0.30003001,0.30003001 0 0 1 -0.002,0 c -6.171395,2.14765 -10.114839,5.53566 -12.572265,10.77929 -0.227359,0.48516 -0.408203,0.83977 -0.554688,1.08399 -0.07324,0.12211 -0.13657,0.21521 -0.203125,0.29297 -0.03328,0.0389 -0.06765,0.0746 -0.115234,0.10937 -0.04758,0.0347 -0.114279,0.0797 -0.228516,0.0781 -0.114237,-0.002 -0.237322,-0.0877 -0.283203,-0.16016 -0.04588,-0.0725 -0.0534,-0.12895 -0.06055,-0.17969 -0.01429,-0.10148 -0.0089,-0.19302 0.0039,-0.30859 0.02555,-0.23115 0.08803,-0.54124 0.183594,-0.93555 0.382252,-1.57723 1.306714,-4.48985 2.597656,-8.01953 0.760376,-2.07926 1.225752,-3.24972 1.830079,-4.02344 0.604327,-0.77371 1.345239,-1.09027 2.478515,-1.42382 5.457562,-1.60576 7.217238,-2.54942 10.318364,-5.53125 1.16282,-1.11747 3.01067,-3.35312 4.48437,-5.31641 0.73685,-0.98165 1.38161,-1.89832 1.80469,-2.57031 0.18751,-0.29784 0.31126,-0.52436 0.39648,-0.70118 -0.0816,0.008 -0.14955,0.0127 -0.2539,0.0254 -0.35163,0.0428 -0.81592,0.11057 -1.30274,0.19335 -6.429368,1.0961 -9.473144,2.74338 -13.486326,7.29297 -0.375907,0.42613 -0.659857,0.71598 -0.88086,0.89258 -0.110501,0.0883 -0.189663,0.15564 -0.339843,0.18945 -0.07509,0.0169 -0.198451,0.0179 -0.302735,-0.0586 -0.104284,-0.0765 -0.13846,-0.18878 -0.146484,-0.26367 -0.01605,-0.14978 0.01882,-0.24809 0.06445,-0.38086 0.04563,-0.13277 0.113029,-0.28725 0.201172,-0.4707 0.176285,-0.36692 0.44017,-0.84768 0.794922,-1.44532 2.965365,-4.99372 4.298629,-6.49576 8.291011,-9.333981 7.79473,-5.540876 10.61675,-9.044003 12.42188,-15.384765 0.18374,-0.645574 0.29379,-1.092597 0.33398,-1.351563 0.003,-0.01717 2e-5,-0.01372 0.002,-0.0293 z m 19.57422,7.390625 c -0.47668,0.03956 -0.84186,0.155275 -1.20313,0.339844 -1.08736,0.555557 -1.71867,1.488988 -1.87109,2.474609 -0.15243,0.985622 0.16998,2.022177 1.04297,2.810547 0.81181,0.733579 2.47574,1.505918 4.53515,2.115235 2.05942,0.609317 4.51941,1.071426 6.95703,1.261718 1.44708,0.11259 2.39539,0.23301 2.90039,0.388672 0.12626,0.03892 0.22657,0.07388 0.32813,0.152344 0.0508,0.03924 0.10955,0.09579 0.14258,0.195313 0.033,0.09953 0.009,0.230927 -0.0391,0.30664 -0.0958,0.151429 -0.19896,0.178949 -0.3125,0.222659 -0.11353,0.0437 -0.24881,0.0794 -0.41601,0.11523 -3.43263,0.73901 -5.7313,3.51732 -5.72266,6.89258 0.0126,5.30411 4.57695,10.56992 10.27735,11.79102 1.89097,0.40577 3.13761,0.39185 5.75195,-0.0664 3.20243,-0.56129 6.05231,-2.76387 7.82226,-5.5332 1.76996,-2.76934 2.44768,-6.08255 1.39649,-8.84571 -0.34836,-0.91547 -1.22201,-1.97855 -2.21094,-2.78711 -0.98893,-0.80856 -2.10525,-1.35308 -2.81836,-1.35937 a 0.30003001,0.30003001 0 0 1 -0.002,0 c -0.28793,-0.003 -0.54817,-0.0891 -0.74805,-0.23438 -0.0999,-0.07264 -0.18923,-0.162174 -0.24414,-0.291012 -0.0549,-0.128838 -0.0518,-0.312086 0.0312,-0.447266 a 0.30003001,0.30003001 0 0 1 0.002,-0.0039 c 0.0646,-0.102363 0.12108,-0.121463 0.16993,-0.146484 0.0488,-0.02502 0.0975,-0.04327 0.15039,-0.06055 0.10586,-0.03455 0.23109,-0.06479 0.3789,-0.09375 0.29563,-0.05793 0.67493,-0.108307 1.07813,-0.140625 3.33479,-0.264524 8.50261,-1.212299 10.58203,-1.927734 1.28526,-0.442507 2.26026,-1.06635 2.88672,-1.794922 0.62646,-0.728572 0.91332,-1.553642 0.83789,-2.462891 -0.0505,-0.609816 -0.16993,-1.004047 -0.41992,-1.337891 -0.25,-0.333843 -0.65553,-0.628308 -1.32032,-0.96289 -0.92166,-0.464465 -1.61674,-0.644347 -2.85351,-0.490235 -1.23678,0.154113 -3.00245,0.668705 -5.91016,1.626954 -5.95909,1.963666 -8.56245,2.53742 -11.66797,2.55664 -3.39113,0.02009 -4.74082,-0.241754 -9.99023,-1.9375 -5.62941,-1.819517 -8.09105,-2.444873 -9.52148,-2.326172 z m 25.91015,12.970701 c 0.70722,0.0121 1.36096,0.56878 1.87305,1.34571 0.51209,0.77692 0.87727,1.81265 0.88086,2.91211 0.0115,3.63122 -2.80166,6.85745 -6.8086,7.89648 -3.28088,0.85044 -7.04014,-0.0744 -9.59961,-2.35938 -1.48266,-1.32389 -2.36793,-3.15287 -2.58398,-4.87304 -0.21605,-1.72017 0.24504,-3.37269 1.5332,-4.22852 0.435,-0.28862 0.74075,-0.48176 1.10743,-0.42969 0.18333,0.026 0.34538,0.13449 0.46093,0.26758 0.11555,0.1331 0.2046,0.29275 0.29688,0.48633 l 0.21875,0.46289 2.15625,0.14063 c 3.0758,0.2012 5.4278,0.16616 7.50195,-0.10743 0.84389,-0.11142 1.27423,-0.18301 1.45703,-0.25976 0.0914,-0.0384 0.1213,-0.0625 0.16406,-0.11719 0.0428,-0.0547 0.0925,-0.15236 0.16407,-0.30273 0.25684,-0.53845 0.70587,-0.84206 1.17773,-0.83399 z m 7.02344,12.14258 c -0.0648,0.0126 -0.0822,0.0219 -0.1582,0.11524 -0.076,0.0933 -0.18069,0.26588 -0.33204,0.50585 -0.84519,1.33788 -2.89463,3.31293 -4.25585,4.10352 l -0.46485,0.26953 c 0.73202,0.13985 2.37841,0.59386 4.24414,1.14649 1.90513,0.56429 3.96599,1.21112 5.26758,1.67187 6.97556,2.46793 14.44184,6.62745 20,11.14258 0.69797,0.56816 1.82191,1.47534 2.49219,2.01758 2.01254,1.62636 4.62101,4.0828 5.85156,5.51367 l 3.05664,3.55273 c 0.32057,0.37219 0.56426,0.63635 0.83594,0.93946 -0.13266,-0.30793 -0.26256,-0.60281 -0.40625,-0.95704 -3.76018,-9.26615 -9.23099,-15.77363 -18.56641,-22.07031 -4.90661,-3.30883 -11.76365,-6.56656 -16.0625,-7.65039 -0.93149,-0.23475 -1.37223,-0.32599 -1.50195,-0.30078 z m -27.82813,0.004 c -0.45057,0.0221 -1.36602,0.29691 -3.14062,0.86328 -7.09819,2.2668 -12.01634,5.01343 -19.36328,10.81055 -5.38892,4.25221 -10.44552,10.7095 -13,16.5957 -0.58909,1.35776 -1.0253,2.3805 -1.36719,3.19531 3.39054,-4.31432 8.84888,-9.64696 13.72656,-13.3125 8.50584,-6.39266 14.77619,-9.35772 26.71875,-12.63281 0.72086,-0.19778 1.37752,-0.38866 1.84961,-0.53516 0.0935,-0.029 0.14069,-0.047 0.21875,-0.0723 -0.11645,-0.0685 -0.21919,-0.13163 -0.36133,-0.20703 -0.57556,-0.30545 -1.46656,-1.04486 -2.35351,-1.86524 -0.88647,-0.81994 -1.73583,-1.69751 -2.15235,-2.29883 v -0.002 c -0.15874,-0.22878 -0.27337,-0.37633 -0.36914,-0.44727 -0.096,-0.0711 -0.18098,-0.10287 -0.40625,-0.0918 z m 14.74414,10.29297 c -1.75741,-0.0261 -3.4817,0.0225 -5.11523,0.15039 -11.18483,0.87439 -20.37688,4.19015 -29.875,10.78125 -3.95838,2.74521 -9.34447,7.87205 -12.31836,11.72265 -0.60129,0.77898 -1.05082,1.36402 -1.33984,1.81641 -0.28902,0.45239 -0.40657,0.7612 -0.40821,0.98437 -0.002,0.22318 0.0901,0.41752 0.35938,0.70508 0.26933,0.28756 0.70703,0.63688 1.29883,1.10352 1.71526,1.3521 8.54579,7.48632 11.37109,10.20508 7.33724,7.05827 18.49111,12.49759 28.625,13.95507 1.2045,0.17336 1.82116,0.20627 2.23438,0.57032 0.2066,0.18202 0.29702,0.4487 0.31836,0.72656 0.0213,0.27785 -0.006,0.596 -0.0352,1.01367 -0.15194,2.21445 -0.97763,5.00554 -2.60547,8.89648 -3.57223,8.53799 -4.48493,11.87725 -4.32422,15.73243 0.11537,2.76693 1.4361,5.45274 3.70508,7.5 1.09118,0.98552 3.37225,1.9872 5.42187,2.34179 5.17339,0.89444 10.61518,-2.34308 12.17969,-7.23242 1.27562,-3.98544 0.65746,-8.17336 -2.30859,-15.18945 -1.42702,-3.3755 -2.57756,-6.58046 -3.28516,-9.04102 -0.35379,-1.23027 -0.59727,-2.27381 -0.70898,-3.07031 -0.0559,-0.39825 -0.0808,-0.73292 -0.0645,-1.01172 0.0164,-0.27879 0.0545,-0.51717 0.24024,-0.70312 a 0.30003001,0.30003001 0 0 1 0.002,0 c 0.0625,-0.0615 0.0892,-0.0651 0.11524,-0.0762 0.026,-0.0111 0.0484,-0.018 0.0723,-0.0254 0.0478,-0.0147 0.1019,-0.0284 0.16602,-0.043 0.12823,-0.0291 0.29733,-0.0605 0.5,-0.0957 0.40534,-0.0705 0.94271,-0.15157 1.52148,-0.22656 6.40151,-0.82923 13.19009,-3.17317 18.42774,-6.35742 5.73319,-3.48526 8.08935,-5.27143 13.01172,-9.86524 a 0.30003001,0.30003001 0 0 1 0,-0.002 c 15.37605,-14.29059 -15.16318,14.06686 0.22656,-0.20898 15.38974,-14.27585 -15.17685,14.05014 0.22656,-0.21094 15.40342,-14.26109 -15.19051,14.03733 0.22656,-0.20899 15.41708,-14.24631 -15.2022,14.02255 0.22852,-0.20898 15.43072,-14.23153 -15.2178,14.00775 0.22656,-0.20898 15.44436,-14.21674 -15.23141,13.99098 0.22656,-0.21094 15.45798,-14.20193 -15.24306,13.98007 0.22852,-0.20703 15.47158,-14.18711 -15.25666,13.96328 0.22851,-0.20899 15.48518,-14.17227 -15.27218,13.94844 0.22657,-0.20898 15.49875,-14.15742 -15.2838,13.93357 0.22851,-0.20899 15.51231,-14.14256 -15.29734,13.92066 0.22852,-0.20703 15.52586,-14.12768 -15.31088,13.90382 0.22851,-0.20898 15.5394,-14.1128 -15.32439,13.89086 0.22852,-0.20703 15.55291,-14.0979 -15.3379,13.87595 0.22852,-0.20703 15.56641,-14.08299 -15.34944,13.86102 0.23046,-0.20704 15.57991,-14.06805 -15.36486,13.84609 0.22852,-0.20703 15.59338,-14.05312 -15.37638,13.83114 0.23047,-0.20703 15.60684,-14.03817 -15.39178,13.81617 0.22851,-0.20703 15.6203,-14.0232 -15.40325,13.80315 0.23047,-0.20508 15.63373,-14.00822 -15.41667,13.78621 0.23047,-0.20703 15.64715,-13.99323 -15.43008,13.77315 0.23047,-0.20508 15.66055,-13.97823 -15.44347,13.75814 0.23047,-0.20508 15.67394,-13.96321 -15.45685,13.74311 0.23047,-0.20507 15.68731,-13.94819 -15.47021,13.72806 0.23047,-0.20508 15.70067,-13.93314 -15.48161,13.71301 0.23242,-0.20508 15.71402,-13.91809 -15.49689,13.69794 0.23047,-0.20508 15.72735,-13.90302 -15.50826,13.68287 0.23242,-0.20508 15.74067,-13.88794 -15.52351,13.66973 0.23047,-0.20312 15.75398,-13.87285 -15.53485,13.65266 0.23242,-0.20508 15.76727,-13.85774 -15.54812,13.6395 0.23242,-0.20312 15.78054,-13.84263 -15.56138,13.62241 0.23242,-0.20508 15.79381,-13.82749 -15.57462,13.60922 0.23243,-0.20313 0.95262,-0.82494 1.81995,-1.60155 2.44531,-2.18554 0.31268,-0.292 0.56598,-0.536 0.73633,-0.71094 0.0737,-0.0757 0.12337,-0.13097 0.16211,-0.17578 -0.011,-0.0224 -0.0301,-0.11218 -0.125,-0.28321 -0.11334,-0.20433 -0.28558,-0.47298 -0.50586,-0.78515 -0.44057,-0.62435 -1.07051,-1.42747 -1.80469,-2.30664 -1.46836,-1.75836 -3.35977,-3.82517 -5.0293,-5.4336 -7.64072,-7.35975 -15.20553,-11.76723 -25.19531,-14.67382 -4.36111,-1.26921 -9.93674,-2.01558 -15.20899,-2.09375 z m -8.21289,8.44531 c 0.0674,0.002 0.1381,0.006 0.22852,0.0547 0.0904,0.0484 0.19336,0.19235 0.19336,0.3164 0,8.3e-4 -0.004,0.0506 -0.008,0.0664 -0.003,0.0158 -0.006,0.0274 -0.01,0.0371 -0.007,0.0194 -0.0123,0.0319 -0.0176,0.043 -0.0105,0.0222 -0.0209,0.0374 -0.0312,0.0547 -0.0206,0.0346 -0.0439,0.0729 -0.0742,0.11719 -0.0606,0.0885 -0.14367,0.2021 -0.24609,0.33984 -0.20484,0.27549 -0.48624,0.64068 -0.79492,1.0293 -1.17568,1.47945 -2.96419,4.97577 -3.26367,6.3125 -0.26353,1.174 -0.21097,4.3577 0.0976,5.58203 1.0356,4.10928 4.3198,7.40213 8.36328,8.39063 a 0.30003001,0.30003001 0 0 1 0.002,0 c 1.33724,0.32743 5.10429,0.27029 6.49218,-0.10352 4.13188,-1.11426 7.3721,-4.86527 8.39258,-9.7832 0.27282,-1.31582 0.24328,-4.99615 -0.0449,-6.25391 -0.0461,-0.20142 -0.0655,-0.3708 0.004,-0.54883 0.0694,-0.17802 0.29312,-0.30816 0.46484,-0.30468 0.34344,0.007 0.60726,0.20915 0.93555,0.48047 0.65658,0.54262 1.43648,1.47108 1.91406,2.45312 0.65708,1.35063 0.9249,3.26294 0.86328,5.21875 -0.0616,1.95581 -0.4561,3.94927 -1.1914,5.45313 a 0.30003001,0.30003001 0 0 1 0,0.002 c -2.14653,4.38677 -6.2175,7.71989 -10.90821,8.92773 -9.81537,2.52838 -19.61028,-4.0605 -20.78125,-13.98828 -0.26936,-2.28493 0.15997,-4.7912 1.05274,-6.98828 0.89277,-2.19707 2.24735,-4.09049 3.89257,-5.12695 0.75598,-0.47719 1.87214,-0.98568 2.81641,-1.33985 0.47214,-0.17708 0.89679,-0.31583 1.22461,-0.38867 0.16391,-0.0364 0.29874,-0.0575 0.43359,-0.0527 z m 26.29102,0.52929 c 0.63897,0 1.53784,0.29926 2.66992,0.78321 1.13209,0.48394 2.47517,1.16315 3.88867,1.95703 2.82702,1.58776 5.92996,3.6307 8.15235,5.48437 1.04842,0.87504 2.64534,2.3401 4.05664,3.68946 0.70565,0.67468 1.36538,1.31929 1.88476,1.84765 0.51939,0.52836 0.88789,0.92094 1.0625,1.16602 l 0.3711,0.52148 a 0.30003001,0.30003001 0 0 1 0.0117,0.33203 l -0.38282,0.61719 c -0.26948,0.43614 -0.83506,1.07134 -1.61132,1.8711 -0.77627,0.79976 -1.75748,1.74705 -2.82422,2.73242 -2.13349,1.97073 -4.60788,4.09295 -6.47461,5.48633 -8.20736,6.12393 -14.1108,8.81056 -22.43164,10.20507 -2.71793,0.45553 -8.06054,0.73562 -10.23633,0.52539 -4.74091,-0.45889 -10.02504,-1.68459 -13.60547,-3.1621 -4.53658,-1.87168 -10.35833,-5.28395 -13.38477,-7.85352 -0.85825,-0.72341 -1.72549,-1.43499 -2.60156,-2.13672 -0.80431,-0.64157 -2.6198,-2.36059 -4.32422,-4.03711 -0.85221,-0.83826 -1.67342,-1.66366 -2.31445,-2.33008 -0.64103,-0.66641 -1.08067,-1.13277 -1.25977,-1.4082 -0.0819,-0.12621 -0.14916,-0.22833 -0.20117,-0.34375 -0.052,-0.11542 -0.0847,-0.26049 -0.0625,-0.40039 0.0445,-0.27979 0.20933,-0.45909 0.46485,-0.80078 3.30613,-4.41568 12.4248,-11.10223 18.63086,-13.69922 0.77469,-0.3241 1.25048,-0.50297 1.6582,-0.46289 0.10193,0.01 0.21255,0.0393 0.30859,0.11719 0.096,0.0779 0.15493,0.20406 0.16797,0.31445 0.0261,0.22079 -0.0527,0.39388 -0.16211,0.60352 -3.50102,6.70773 -3.72871,12.72743 -0.73828,19.28125 2.91771,6.39556 9.96114,11.31264 17.42383,12.14062 5.32763,0.59152 11.81609,-1.02489 16.22265,-4.04297 3.91927,-2.6852 7.38499,-8.19766 8.36524,-13.34375 0.75546,-3.96617 -0.37395,-10.16454 -2.5,-13.68359 -0.46477,-0.76963 -0.69314,-1.10952 -0.78516,-1.39844 -0.023,-0.0722 -0.0459,-0.15086 -0.0215,-0.26172 0.0245,-0.11086 0.1313,-0.22522 0.2168,-0.26367 0.17098,-0.0769 0.25698,-0.0469 0.36523,-0.0469 z m -20.71289,1.3711 c 0.25252,-0.0425 0.50572,-0.045 0.75586,0.002 1.72772,0.32416 2.77047,1.96511 3.00976,3.67383 0.2393,1.70872 -0.30998,3.57707 -1.8789,4.37695 -2.47922,1.26351 -5.42774,-0.70383 -5.42774,-3.58593 0,-1.15615 0.60317,-2.32905 1.42188,-3.19532 0.61403,-0.6497 1.36157,-1.14404 2.11914,-1.27148 z m -1.08203,55.27734 c 0.19201,0.0125 0.33049,0.15602 0.40234,0.28711 0.1437,0.2622 0.19929,0.61229 0.25586,1.16211 0.11314,1.09964 0.16043,2.95755 0.20508,5.81641 l 0.0996,6.41797 a 0.30003001,0.30003001 0 0 1 -0.082,0.20898 l -0.5625,0.59961 c -0.65344,0.697 -1.57707,0.88411 -2.40235,0.63477 -0.82528,-0.24935 -1.56564,-0.91822 -1.9375,-1.89258 h 0.002 c -0.40336,-1.05562 -0.21526,-2.84869 0.29687,-4.97461 0.51214,-2.12593 1.38186,-4.55478 2.47461,-6.72461 0.32283,-0.64062 0.55036,-1.08396 0.82227,-1.34766 0.10198,-0.0989 0.23377,-0.19994 0.42578,-0.1875 z"><desc
     id="desc1">
      Traced logo based on chatgpt-generated design.
    </desc></path>
<path
   d="m 129.82019,237.73444 c -1.155,-0.773 -2.1,-1.463 -2.1,-1.532 0,-0.273 2.896,-2.713 5.26,-4.432 4.296,-3.125 8.81,-5.91 11.279,-6.96 1.844,-0.784 1.977,-0.908 1.238,-1.146 -2.565,-0.825 -3.208,-0.743 -9.532,1.213 -3.938,1.218 -6.02,1.586 -8.153,1.44 -2.824,-0.192 -6.98,-1.26 -9.105,-2.342 l -0.71,-0.36 0.84,-0.532 c 2.752,-1.746 6.04,-3.08 8.606,-3.493 1.713,-0.275 5.926,-0.229 7.659,0.084 2.806,0.507 2.874,0.191 0.178,-0.824 a 67,67 0 0 1 -2.726,-1.087 c -0.787,-0.35 -3.293,-1.235 -8.248,-2.912 -1.946,-0.66 -5.108,-0.732 -7.29,-0.169 -3.314,0.856 -9.59,0.51 -13.328,-0.735 -4.051007,-1.35 -9.818007,-4.682 -12.689007,-7.332 l -1.288,-1.189 0.642,-0.115 c 4.784,-0.858 10.545007,-0.887 13.677007,-0.07 1.87,0.489 5.492,1.885 8.039,3.099 2.375,1.132 2.666,0.877 0.564,-0.494 l -3.09,-2.013 a 1176,1176 0 0 1 -4.229,-2.77 c -3.904,-2.57 -5.151,-3.042 -10.733007,-4.062 -7.785,-1.424 -12.235,-4.696 -18.172,-13.36 l -1.442,-2.104 1.646,0.133 c 3.813,0.31 8.542,1.904 11.35,3.828 1.194,0.818 4.86,3.753 6.13,4.907 1.228,1.117 1.608,1.347 1.608,0.975 0,-0.098 -0.628,-0.908 -1.396,-1.8 -0.768,-0.891 -2.405,-3.032 -3.638,-4.758 -3.28,-4.59 -4.868,-6.074 -8.674,-8.11 -5.98,-3.197 -10.133,-8.414 -12.716,-15.973 -0.964,-2.822 -1.733,-5.86 -1.534,-6.06 0.199,-0.2 3.778,1.826 5.455,3.087 3.762,2.829 6.498,6.41 9.557,12.51 0.416,0.829 0.836,1.557 0.933,1.617 0.433,0.268 0.372,-0.367 -0.13,-1.334 -1.128,-2.18 -2.845,-7.282 -3.07,-9.128 -0.165,-1.34 -0.926,-4.205 -1.327,-4.988 -0.393,-0.768 -1.796,-2.553 -3.697,-4.702 -3.858,-4.363 -5.648,-8.188 -6.547,-13.99 -0.417,-2.692 -0.573,-7.464 -0.288,-8.81 l 0.148,-0.7 0.914,0.765 c 1.493,1.25 4.131,4.45 5.269,6.391 0.584,0.997 1.213,2.02 1.397,2.273 0.298,0.409 0.637,1.223 1.563,3.757 0.144,0.391 0.464,1.927 0.713,3.414 0.556,3.32 0.606,3.533 0.827,3.533 0.108,0 0.176,-1.729 0.175,-4.439 -0.002,-2.441 0.093,-5.327 0.21,-6.413 0.35,-3.242 -0.04,-4.914 -1.971,-8.47 -2.664,-4.909 -3.829,-12.405 -2.774,-17.865 0.928,-4.807 1.664,-7.168 2.055,-6.602 1.635,2.36 3.763,6.824 4.313,9.048 0.777,3.136 0.854,3.917 0.83,8.393 -0.014,2.432 0.047,4.336 0.135,4.282 0.088,-0.054 0.322,-0.656 0.52,-1.336 3.028,-10.433 3.297,-12.41 2.245,-16.495 q -2.358,-9.155 1.598,-17.036995 c 0.604,-1.204 4.613,-6.898 4.868,-6.913 0.112,-0.007 0.316,1.478 0.74,5.39 0.506,4.694 -0.061,10.065995 -1.408,13.319995 -0.369,0.891 -0.63,1.662 -0.579,1.712 q 0.275,0.273 0.95,-1.058 c 0.252,-0.496 0.904,-1.59 1.45,-2.432 1.332,-2.052 1.612,-2.645 2.428,-5.127995 2.355,-7.172 7.780007,-13.389 13.282007,-15.222 0.904,-0.301 4.151,-1.018 4.61,-1.018 0.168,0 0.09,0.5 -0.28,1.8 -1.82,6.393 -4.72,9.99 -12.536,15.546 -3.978007,2.827995 -5.248007,4.258995 -8.207007,9.241995 -1.408,2.372 -1.355,2.866 0.127,1.186 4.04,-4.58 7.196,-6.287 13.660007,-7.389 0.982,-0.167 1.87,-0.275 1.976,-0.24 0.53,0.176 -4.464,6.83 -6.848,9.121 -3.120007,3 -4.969007,3.992 -10.441007,5.602 -2.239,0.659 -2.593,1.112 -4.111,5.263 -2.577,7.046 -3.693,11.65 -1.893,7.809 2.489,-5.311 6.519,-8.769 12.746,-10.936 1.024,-0.357 1.944,-0.649 2.044,-0.649 0.21,0 -1.032,2.872 -2.514,5.814 -2.894,5.744 -5.77,8.742 -11.331,11.81 -2.955,1.63 -3.384,2.407 -3.671,6.656 -0.323,4.773 -0.443,10.6 -0.22,10.6 0.113,0 0.251,-0.312 0.307,-0.692 0.32,-2.173 1.25,-5.682 1.828,-6.896 1.253,-2.63 4.741,-6.613 7.407,-8.456 l 1.384,-0.957 -0.002,0.704 c -0.005,2.234 -0.738,6.707 -1.564,9.54 -1.026,3.525 -1.948,5.154 -5.177,9.156 -3.038,3.764 -3.275,4.207 -3.165,5.905 0.17,2.604 1.545,7.221 3.509,11.782 1.36,3.16 1.463,3.016 0.697,-0.97 -0.75,-3.898 -0.158,-8.282 1.65,-12.214 0.686,-1.491 3.098,-5.422 3.33,-5.424 0.177,-0.003 0.887,3.439 1.198,5.811 0.16,1.218 0.305,3.751 0.323,5.63 0.042,4.51 -0.132,5.322 -2.386,11.164 -0.908,2.352 -0.764,3.457 0.875,6.712 0.747,1.483 1.694,3.201 2.104,3.82 1.44,2.166 5.28,6.539 5.742,6.539 0.395007,0 0.305007,-0.182 -0.96,-1.938 -1.756,-2.436 -2.669,-5.105 -3.217,-9.4 -0.247,-1.94 0.35,-6.345 1.221,-9.012 0.468,-1.434 0.469,-1.435 0.798,-1.015 1.137,1.448 4.542007,8.112 5.448007,10.661 1.022,2.88 1.23,4.23 1.369,8.858 l 0.129,4.337 0.636,1.197 c 0.776,1.457 3.006,3.762 5.066,5.233 2.958,2.113 3.549,2.49 5.906,3.774 1.464,0.797 2.466,1.24 2.571,1.137 0.095,-0.093 0.136,-0.2 0.092,-0.238 -0.044,-0.038 -0.934,-0.71 -1.978,-1.495 -1.066,-0.8 -2.3,-1.924 -2.814,-2.564 -2.426,-3.016 -5.342,-11.06 -5.345,-14.738 v -0.867 l 1.337,0.92 c 1.695,1.164 6.464,5.39 7.763,6.878 2.415,2.766 3.725,4.985 5.465,9.252 1.413,3.468 2.143,4.925 2.76,5.514 0.829,0.79 5.098,2.762 9.618,4.44 2.386,0.887 5.168,1.967 6.183,2.402 1.015,0.435 3.645,1.387 5.845,2.115 l 3.999,1.324 2.367,-0.908 c 1.302,-0.499 3.323,-1.22 4.49,-1.6 5.014,-1.64 14.848,-5.44 16.523,-6.386 2.135,-1.204 2.423,-1.631 4.231,-6.255 1.999,-5.112 2.65,-6.392 4.51,-8.87 2.071,-2.757 5.768,-6.155 9.2,-8.456 l 1.154,-0.773 v 0.938 c 0,0.515 -0.287,2.215 -0.636,3.776 -1.664,7.428 -3.87,11.282 -8.224,14.365 -1.416,1.003 -1.88,1.57 -1.082,1.322 1.163,-0.363 7.694,-4.484 9.942,-6.273 3.166,-2.52 3.942,-4.29 4.249,-9.685 0.421,-7.413 1.279,-10.148 5.304,-16.912 1.778,-2.988 2.073,-3.365 2.073,-2.652 0,0.202 0.163,0.97 0.362,1.707 0.855,3.165 1.181,8.556 0.653,10.794 -0.418,1.776 -2.083,5.709 -3.074,7.266 -0.492,0.771 -0.894,1.546 -0.894,1.722 0,0.655 5.091,-5.156 6.983,-7.972 2.738,-4.073 2.99,-5.97 1.352,-10.193 -2.47,-6.369 -2.657,-10.67 -0.83,-19.147 0.267,-1.243 0.536,-2.257 0.597,-2.252 0.155,0.013 2.506,3.407 3.197,4.617 2.162,3.783 2.852,10.424 1.51,14.527 -0.307,0.936 -0.333,1.516 -0.07,1.516 0.106,0 0.24,-0.145 0.3,-0.322 0.061,-0.178 0.427,-1.03 0.815,-1.892 3.146,-7.002 4.063,-12.525 2.445,-14.723 -0.278,-0.378 -1.222,-1.517 -2.097,-2.532 -3.193,-3.702 -4.535,-6.243 -5.712,-10.815 -1.168,-4.538 -1.816,-9.065 -1.249,-8.725 2.933,1.76 4.554,3.179 6.365,5.572 2.478,3.277 3.776,6.408 4.395,10.6 0.056,0.38 0.194,0.692 0.307,0.692 0.522,0 -0.297,-13.442 -0.895,-14.703 -0.4,-0.843 -1.619,-1.912 -3.121,-2.738 -3.742,-2.057 -6.812,-4.724 -8.76,-7.61 -1.115,-1.653 -4.978,-9.137 -4.978,-9.645 0,-0.277 3.674,1.065 5.258,1.922 4.79,2.59 6.91,4.684 8.92,8.812 1.977,4.06 2.027,3.25 0.168,-2.705 -1.78,-5.699 -2.242,-6.873 -3.211,-8.167 -0.583,-0.776 -1.034,-0.998 -4.281,-2.103 -4.745,-1.614 -6.993,-3.111 -10.414,-6.933 -2.104,-2.352 -5.411,-7.125 -5,-7.218 0.657,-0.15 4.358,0.618 6.444,1.337 3.652,1.258 7.081,3.603 9.416,6.439 0.474,0.576 0.937,1 1.029,0.944 0.092,-0.056 0.135,-0.16 0.098,-0.23 -1.244,-2.281 -4.226,-6.704 -5.094,-7.555 -0.86,-0.843 -2.652,-2.263 -4.717,-3.737995 -5.836,-4.167 -9.135,-7.914 -11.145,-12.659 -0.624,-1.474 -1.581,-4.477 -1.465,-4.594 0.228,-0.228 4.271,0.9 5.631,1.57 5.424,2.672 9.616,7.607 11.807,13.9 0.741,2.131 1.83,4.381995 2.835,5.866995 0.386,0.569 0.91,1.441 1.164,1.937 0.628,1.224 0.953,1.628 1.19,1.482 0.132,-0.082 0.017,-0.527 -0.345,-1.324 -1.395,-3.077 -1.677,-4.568 -1.689,-8.943995 -0.013,-4.49 0.549,-9.522 1.06,-9.494 0.85,0.046 4.913,6.581 5.913,9.512 1.14,3.339995 1.268,4.105995 1.263,7.547995 -0.005,3.135 -0.024,3.304 -0.684,5.752 -1.174,4.36 -0.98,6.622 1.155,13.441 0.397,1.269 0.914,2.93 1.148,3.691 l 0.426,1.384 0.119,-4.89 c 0.177,-7.334 0.806,-9.536 4.737,-16.585 l 0.552,-0.99 0.368,0.99 c 3.165,8.509 2.582,16.927 -1.73,24.982 -1.424,2.659 -1.546,3.654 -1.417,11.58 0.1,6.104 0.222,7.628 0.51,6.367 0.052,-0.229 0.349,-1.703 0.66,-3.276 0.31,-1.573 0.764,-3.571 1.008,-4.44 0.95,-3.378 4.413,-8.45 7.564,-11.076 l 1.292,-1.077 0.124,0.776 c 0.392,2.438 0.033,7.396 -0.784,10.834 -1.37,5.764 -3.032,9.047 -6.54,12.919 -3.036,3.348 -3.6,4.421 -4.782,9.09 -0.931,3.678 -1.266,4.789 -2.236,7.427 -1.42,3.86 -1.085,3.74 1.029,-0.37 3.408,-6.625 5.774,-9.137 11.72,-12.444 1.107,-0.616 2.087,-1.12 2.177,-1.12 0.48,0 -0.733,4.75 -2.027,7.936 -1.687,4.155 -2.95,6.087 -6.007,9.187 -2.121,2.151 -3.186,2.976 -5.777,4.476 -4.845,2.805 -5.172,3.095 -8.247,7.322 -1.123,1.545 -2.859,3.787 -3.857,4.983 -2.178,2.612 -2.432,3.384 -0.584,1.774 4.708,-4.103 6.537,-5.424 9.619,-6.95 3.072,-1.52 5.158,-2.123 8.005,-2.315 0.99,-0.066 1.8,-0.094 1.8,-0.061 0,0.033 -0.797,1.268 -1.771,2.746 -4.832,7.33 -10.461,11.237 -18.563,12.88 -5.455,1.107 -6.256,1.446 -10.968,4.635 a 1089,1089 0 0 1 -5.423,3.648 272,272 0 0 0 -2.003,1.338 c -0.035,0.028 -0.008,0.142 0.062,0.254 q 0.126,0.204 1.264,-0.43 c 1.406,-0.782 5.837,-2.545 7.694,-3.061 2.655,-0.738 8.274,-1.012 11.899,-0.58 0.913,0.108 1.785,0.2 1.938,0.202 1.192,0.019 0.803,0.649 -1.477,2.393 -4.575,3.5 -9.88,6.188 -13.916,7.052 -2.707,0.58 -7.468,0.583 -10.481,0.008 -1.334,-0.254 -2.852,-0.41 -3.968,-0.409 -2.041,0.004 -3.608,0.473 -10.297,3.08 -1.827,0.71 -3.897,1.493 -4.6,1.737 -1.373,0.477 -1.965,1.068 -0.823,0.822 2.495,-0.537 6.366,-0.62 9.006,-0.191 2.39,0.387 4.021,0.97 7.18,2.566 l 2.701,1.366 -1.45,0.66 c -2.61,1.19 -5.82,1.93 -9.01,2.08 -3.033,0.142 -4.375,-0.082 -8.54,-1.424 -5.046,-1.625 -5.384,-1.706 -6.545,-1.567 -2.07,0.248 -2.254,0.392 -1.16,0.906 4.834,2.275 17.275,11.036 16.971,11.95 -0.078,0.238 -3.912,2.741 -4.197,2.741 -0.16,0 -0.578,-0.298 -0.927,-0.662 -0.728,-0.757 -4.721,-4.065 -6.911,-5.723 -2.632,-1.993 -4.811,-3.362 -7.957,-4.995 l -3.085,-1.601 -0.957,0.2 c -3.968,0.833 -11.766,5.91 -17.272,11.247 -0.975,0.945 -1.816,1.719 -1.867,1.719 -0.052,0 -1.039,-0.633 -2.194,-1.407 z m 19.769,-24.006 c -2.104,-0.364 -4.404,-1.36 -5.571,-2.414 -2.323,-2.096 -3.684,-4.856 -3.803,-7.71 -0.163,-3.91 0.77,-7.313 4.346,-15.86 1.622,-3.877 2.435,-6.647 2.583,-8.804 0.115,-1.675 0.15,-1.645 -2.261,-1.992 -10.207,-1.468 -21.398,-6.924 -28.789,-14.034 -2.813,-2.707 -9.678,-8.868 -11.35,-10.186 -2.369,-1.868 -2.368,-1.913 0.038,-5.03 3.002,-3.887 8.387,-9.013 12.384,-11.785 9.534,-6.616 18.793,-9.956 30.024,-10.834 6.576,-0.515 14.568,0.25 20.43,1.956 10.029,2.918 17.653,7.356 25.322,14.743 3.361,3.238 7.582,8.292 7.582,9.08 0,0.132 -1.563,1.592 -3.473,3.246 a 322,322 0 0 0 -7.336,6.611 c -4.929,4.6 -7.319,6.412 -13.06,9.902 -5.28,3.21 -12.1,5.563 -18.546,6.398 -1.15,0.149 -2.141,0.322 -2.203,0.383 -0.707,0.708 1.034,6.764 3.88,13.496 2.977,7.042 3.623,11.327 2.32,15.398 -1.614,5.044 -7.19,8.357 -12.517,7.436 m -0.878,-8.59 0.562,-0.6 -0.1,-6.417 c -0.119,-7.62 -0.262,-8.14 -1.542,-5.6 -2.162,4.293 -3.452,9.647 -2.76,11.458 0.682,1.787 2.685,2.392 3.84,1.16 m 10.02,-34.538 c 8.282,-1.388 14.114,-4.043 22.3,-10.151 3.703,-2.764 9.888,-8.476 10.834,-10.007 l 0.382,-0.618 -0.371,-0.521 c -0.565,-0.793 -4.877,-4.916 -6.951,-6.647 -4.4,-3.67 -12.382,-8.153 -14.518,-8.153 -0.444,0 -0.451,-0.024 0.479,1.516 2.181,3.61 3.316,9.82 2.54,13.894 -0.997,5.234 -4.482,10.788 -8.49,13.534 -4.478,3.067 -11.013,4.696 -16.426,4.095 -7.571,-0.84 -14.695,-5.806 -17.664,-12.314 -3.022,-6.623 -2.787,-12.777 0.746,-19.546 0.391,-0.749 -0.067,-0.794 -1.592,-0.156 -6.132,2.566 -15.274,9.284 -18.507,13.602 -0.51,0.682 -0.513,0.699 -0.188,1.2 0.515,0.792 6.292,6.475 7.834,7.705 a 135,135 0 0 1 2.606,2.143 c 2.981,2.531 8.807,5.948 13.308,7.805 3.538,1.46 8.809,2.684 13.52,3.14 2.101,0.203 7.485,-0.073 10.158,-0.521 m -3.329,-9.333 c 4.602,-1.185 8.606,-4.464 10.713,-8.77 1.415,-2.894 1.571,-7.856 0.328,-10.411 -0.906,-1.863 -3.07,-3.652 -2.755,-2.277 0.313,1.366 0.338,4.962 0.044,6.38 -1.04,5.012 -4.35,8.864 -8.607,10.012 -1.5,0.404 -5.185,0.464 -6.643,0.107 -4.156,-1.016 -7.52,-4.39 -8.583,-8.608 -0.334,-1.325 -0.389,-4.44 -0.101,-5.723 0.328,-1.464 2.1,-4.894 3.323,-6.433 0.614,-0.773 1.116,-1.447 1.116,-1.5 0,-0.37 -2.988,0.75 -4.436,1.664 -3.135,1.975 -5.332,7.38 -4.808,11.825 1.15,9.75 10.763,16.219 20.41,13.734 m -3.96,-17.91 c 2.848,-1.452 2.086,-6.899 -1.048,-7.487 -1.684,-0.316 -3.942,2.073 -3.942,4.17 0,2.68 2.708,4.481 4.99,3.318 m -51.675007,4.611 c -0.006,-0.106 0.738007,-1.89 2.037007,-4.884 2.58,-5.945 7.657,-12.427 13.09,-16.714 7.362,-5.809 12.33,-8.582 19.457,-10.858 3.55,-1.133 3.61,-1.136 4.253,-0.209 0.767,1.108 3.39,3.534 4.4,4.07 0.475,0.252 0.864,0.5 0.864,0.553 0,0.052 -1.183,0.419 -2.63,0.816 -11.924,3.27 -18.135,6.207 -26.62,12.584 -5.195,3.904 -11.175,9.782 -14.436,14.188 -0.225007,0.304 -0.412007,0.509 -0.415007,0.454 m 101.118007,-2.805 -3.057,-3.553 c -1.204,-1.4 -3.818,-3.862 -5.814,-5.475 -0.67,-0.542 -1.792,-1.45 -2.491,-2.019 -5.526,-4.489 -12.971,-8.637 -19.91,-11.092 -2.582,-0.914 -8.239,-2.59 -9.557,-2.83 l -0.697,-0.129 1.155,-0.67 c 1.281,-0.744 3.357,-2.745 4.153,-4.005 0.596,-0.945 0.463,-0.919 2.32,-0.451 4.363,1.1 11.218,4.364 16.156,7.694 9.37,6.32 14.896,12.89 18.676,22.205 0.432,1.065 0.87,2.043 0.971,2.173 0.102,0.129 0.15,0.27 0.105,0.315 -0.044,0.044 -0.948,-0.93 -2.01,-2.163 m -51.851,-25.988 c -5.84,-1.251 -10.503,-6.61 -10.516,-12.084 -0.009,-3.513 2.404,-6.42 5.962,-7.185995 1.264,-0.271 0.313,-0.564 -2.566,-0.788 -4.919,-0.384 -9.906,-1.86 -11.67,-3.454 -1.888,-1.705 -1.442,-4.582 0.893,-5.775 1.562,-0.798 3.442,-0.46 10.954,1.968 5.244,1.694 6.52,1.942 9.896,1.922 3.07,-0.019 5.625,-0.58 11.576,-2.541 5.823,-1.919 7.09,-2.077 8.993,-1.118 1.367,0.688 1.798,1.263 1.904,2.542 0.164,1.977 -1.28,3.656 -3.926,4.567 -2.145,0.738 -7.29,1.676 -10.656,1.943 -0.786,0.063 -1.482,0.2 -1.547,0.303 -0.137,0.223 0.258,0.51 0.708,0.515 1.698,0.01499 4.552,2.347995 5.31,4.339995 2.189,5.754 -2.84,13.624 -9.447,14.782 -2.63,0.461 -3.948,0.476 -5.868,0.064 m 5.222,-4.526 c 3.895,-1.01 6.597,-4.129 6.585,-7.605 -0.009,-2.754 -2.468,-5.165 -3.36,-3.295 -0.29,0.609 -0.329,0.625 -2.018,0.848 -2.1,0.277 -4.472,0.312 -7.56,0.11 l -2.331,-0.153 -0.296,-0.62 c -0.348,-0.73 -0.584,-0.764 -1.428,-0.204 -2.333,1.55 -1.763,6.083 1.085,8.626 2.48,2.214 6.148,3.116 9.323,2.293 m -5.13,-22.979995 a 30,30 0 0 1 -1.845,-0.394 l -0.923,-0.234 v -3.414 c 0,-4.023 -0.056,-4.205 -2.016,-6.52 -3.19,-3.768 -4.027,-8.994 -1.997,-12.459 2.426,-4.141 7.645,-6.3 12.325,-5.099 4.269,1.096 7.816,5.446 7.831,9.603 0.01,2.519 -0.572,4.134 -2.705,7.517 -1.989,3.155 -1.989,3.156 -1.965,6.9 l 0.02,3.172 -1.687,0.39 c -3.076,0.712 -5.131,0.868 -7.038,0.537"
   style="display:none;opacity:1;fill:#000000;fill-opacity:1;stroke:none;stroke-width:0.999998;stroke-dasharray:none;stroke-opacity:1"
   id="path4"
   inkscape:label="Ministry Logotype (Original)"
   sodipodi:insensitive="true">
    <desc
   id="desc4">
      Traced logo based on chatgpt-generated design.
    </desc>
  </path><path
   style="baseline-shift:baseline;display:inline;overflow:visible;vector-effect:none;paint-order:stroke fill markers;enable-background:accumulate;stop-color:#000000;stop-opacity:1;opacity:1"
   d="m 151.18164,24.5625 c -69.921727,2e-6 -126.619138,56.697413 -126.61914,126.61914 0,69.92173 56.697411,126.61719 126.61914,126.61719 69.92173,0 126.61719,-56.69546 126.61719,-126.61719 0,-69.921729 -56.69546,-126.61914 -126.61719,-126.61914 z m 0,1.322266 c 69.20673,0 125.29492,56.090148 125.29492,125.296874 0,69.20673 -56.08819,125.29492 -125.29492,125.29492 -69.206726,0 -125.296874,-56.08819 -125.296874,-125.29492 2e-6,-69.206725 56.090149,-125.296872 125.296874,-125.296874 z"
   id="path2" /><path
   style="baseline-shift:baseline;display:inline;overflow:visible;vector-effect:none;paint-order:stroke fill markers;enable-background:accumulate;stop-color:#000000;stop-opacity:1;opacity:1"
   d="m 151.18164,18.638672 c -73.178627,2e-6 -132.542966,59.364341 -132.542968,132.542968 0,73.17863 59.364339,132.54297 132.542968,132.54297 73.17863,0 132.54297,-59.36434 132.54297,-132.54297 0,-73.178629 -59.36434,-132.542968 -132.54297,-132.542968 z m 0,3.880859 c 71.0804,0 128.66015,57.581712 128.66016,128.662109 0,71.0804 -57.57976,128.66016 -128.66016,128.66016 C 80.101243,279.84179 22.519531,222.26204 22.519531,151.18164 22.519533,80.101245 80.101245,22.519533 151.18164,22.519531 Z"
   id="circle2" /><path
   id="circle3"
   style="display:none;fill:none;stroke:#ffd541;stroke-width:1.06306;paint-order:stroke fill markers"
   inkscape:label="Top Text Circle"
   d="M 65.83729,107.93468 A 95.675452,95.675452 0 0 1 194.42732,65.837289 95.675452,95.675452 0 0 1 236.5247,194.42732 95.675452,95.675452 0 0 1 107.93467,236.5247 95.675452,95.675452 0 0 1 65.83729,107.93468 Z" /><path
   id="circle3-8"
   style="display:none;fill:none;stroke:#fa6a0a;stroke-width:1.31704;paint-order:stroke fill markers"
   inkscape:label="Bottom Text Circle"
   d="M 64.032697,231.52546 A 118.53294,118.53294 0 0 0 231.52546,238.32929 118.53294,118.53294 0 0 0 238.3293,70.836534 118.53294,118.53294 0 0 0 70.836527,64.0327 118.53294,118.53294 0 0 0 64.032697,231.52546 Z" /><path
   d="m 69.559514,92.632667 -8.784496,-14.808101 3.475205,-4.858342 0.824183,0.589543 q -0.645426,0.948143 -0.689269,1.605298 -0.06553,0.641642 0.519916,1.289922 0.585449,0.648281 1.90848,1.594654 l 8.502098,6.081608 q 1.431475,1.023944 2.234124,1.368578 0.796475,0.307432 1.370194,-0.03627 0.589234,-0.365393 1.361784,-1.353749 l 0.824183,0.589544 -5.026635,7.027244 -0.824183,-0.589544 q 0.685794,-1.050412 0.825733,-1.704403 0.155453,-0.67568 -0.371103,-1.314621 -0.526556,-0.638942 -1.871276,-1.600828 l -10.063708,-7.198638 -0.155143,0.21689 9.697824,16.51058 -0.341315,0.477159 -18.680607,-3.952634 -0.06206,0.08676 9.911885,7.090037 q 1.431476,1.023943 2.234125,1.368583 0.796474,0.30743 1.370193,-0.0363 0.589234,-0.36539 1.361784,-1.353746 l 0.824183,0.589546 -4.328491,6.05124 -0.824183,-0.58955 q 0.685794,-1.05041 0.825733,-1.7044 0.155453,-0.67568 -0.371103,-1.31462 -0.526556,-0.63894 -1.871276,-1.60083 l -8.805745,-6.298809 q -1.236274,-0.884315 -1.995545,-1.197921 -0.759271,-0.313606 -1.360854,-0.02262 -0.607758,0.253783 -1.318251,1.155383 l -0.824183,-0.589544 3.707919,-5.183677 16.727819,3.70332 z m 14.647337,-9.913581 -0.67512,-0.75568 q 0.899125,-0.874789 1.178848,-1.482277 0.299609,-0.625254 -0.07429,-1.363975 -0.373899,-0.73872 -1.475409,-1.971673 l -7.213118,-8.07385 q -1.012679,-1.13352 -1.684872,-1.605746 -0.672193,-0.472226 -1.322888,-0.320003 -0.648575,0.11457 -1.53922,0.838748 l -0.675119,-0.755681 6.045444,-5.400955 0.675119,0.755681 q -0.837345,0.783837 -1.023997,1.415452 -0.204417,0.611728 0.2249,1.372455 0.429318,0.760726 1.513062,1.973792 l 6.964389,7.795442 q 1.172576,1.312498 1.880302,1.824496 0.709846,0.474346 1.344894,0.264584 0.654935,-0.227528 1.625125,-1.022771 l 0.67512,0.755681 z m 23.936559,-16.934772 -19.40474,-7.909838 -0.09178,0.05435 5.801795,9.797689 q 0.896764,1.514397 1.492177,2.153539 0.581825,0.616196 1.199552,0.560316 0.640672,-0.06947 1.631554,-0.594245 l 0.516319,0.871925 -6.172314,3.654995 -0.516319,-0.871926 q 1.051259,-0.684495 1.44313,-1.226458 0.414817,-0.555551 0.19076,-1.352611 -0.224057,-0.797061 -1.066472,-2.219677 l -5.516461,-9.315835 q -0.774478,-1.307888 -1.342716,-1.901139 -0.568238,-0.593251 -1.236085,-0.569674 -0.658489,-0.01296 -1.672316,0.525409 l -0.516319,-0.871926 4.54319,-2.690293 17.948567,7.439504 0.0918,-0.05435 -5.35341,-9.04049 q -0.896769,-1.514397 -1.478595,-2.130594 -0.595413,-0.639141 -1.213139,-0.583261 -0.631315,0.03294 -1.631555,0.594245 l -0.516319,-0.871926 6.172318,-3.654994 0.51632,0.871925 q -1.06485,0.661551 -1.46608,1.240046 -0.39187,0.541963 -0.16781,1.339024 0.22405,0.797061 1.06647,2.219676 l 8.12523,13.721354 z m 7.03545,-3.352499 -0.33804,-0.955283 q 1.16374,-0.468385 1.65298,-0.924381 0.51438,-0.464891 0.44861,-1.290229 -0.0658,-0.825338 -0.61731,-2.383958 L 112.71337,46.67152 q -0.50706,-1.432924 -0.94991,-2.124824 -0.44285,-0.691899 -1.10266,-0.797858 -0.64357,-0.139994 -1.74234,0.192252 l -0.33804,-0.955283 7.64226,-2.704352 0.33804,0.955283 q -1.07208,0.407663 -1.48435,0.921284 -0.42117,0.488482 -0.31247,1.355202 0.10869,0.86672 0.65134,2.4002 l 3.48719,9.854498 q 0.58713,1.659176 1.04777,2.401354 0.47689,0.708142 1.14404,0.754927 0.6923,0.03789 1.89162,-0.32994 l 0.33805,0.955283 z m 12.14405,-4.437906 -1.47681,-5.801686 0.97029,-0.178962 q 0.80729,2.318694 2.65849,3.387311 1.87258,1.037556 4.23277,0.602242 1.94059,-0.357924 2.89895,-1.483757 0.95352,-1.152057 0.66815,-2.699289 -0.16446,-0.891626 -0.7098,-1.496068 -0.52396,-0.635503 -1.6414,-1.107311 -1.11745,-0.471808 -3.04096,-0.903409 -2.35558,-0.568843 -3.77396,-1.202077 -1.39216,-0.638071 -2.10044,-1.537857 -0.6869,-0.930847 -0.93358,-2.268285 -0.29988,-1.625906 0.20223,-3.020102 0.52834,-1.399033 1.70896,-2.348929 1.20684,-0.954733 2.93765,-1.273963 2.20284,-0.406292 4.45503,0.778179 l 0.46417,-1.305849 0.60316,-0.111247 1.251,5.165426 -0.9703,0.178963 q -1.026,-2.034308 -2.42579,-2.860785 -1.37357,-0.831315 -3.05192,-0.521759 -1.59968,0.295046 -2.39382,1.282124 -0.79897,0.960853 -0.55713,2.272067 0.22733,1.232541 1.28341,1.959715 1.05124,0.70095 3.4641,1.286343 2.80903,0.675024 4.43033,1.379297 1.64752,0.699437 2.41309,1.615774 0.76557,0.916337 1.02192,2.306223 0.32406,1.757027 -0.34711,3.263754 -0.64495,1.50189 -2.10436,2.557439 -1.45941,1.05555 -3.58358,1.447332 -1.49478,0.275698 -2.77849,0.0786 -1.26232,-0.228156 -2.67382,-0.971124 l -0.49728,1.420421 z m 37.25746,-22.677749 0.11678,5.098959 -1.09285,-0.03215 q -0.0611,-1.54913 -0.5425,-2.41699 -0.4547,-0.867077 -1.40409,-1.241821 -0.94939,-0.374744 -2.49538,-0.420222 -1.3061,-0.03842 -1.97483,0.02194 -0.64207,0.06115 -0.8608,0.241459 -0.19129,0.154442 -0.2007,0.474303 l -0.4195,14.260462 q -0.0337,1.146168 0.15835,1.872127 0.21951,0.700089 0.95566,1.06856 0.73693,0.341816 2.22804,0.439037 l -0.0298,1.012892 -10.07562,-0.296395 0.0298,-1.012892 q 1.5209,-0.0086 2.25,-0.307306 0.75654,-0.32456 1.01682,-1.010535 0.26107,-0.71263 0.29478,-1.858798 l 0.4195,-14.260462 q 0.009,-0.319861 -0.17247,-0.48528 -0.18109,-0.192074 -0.7385,-0.288506 -0.53075,-0.09565 -1.67692,-0.129364 -1.03954,-0.03058 -1.9223,0.05016 -0.88197,0.05409 -1.55932,0.407658 -0.67736,0.353568 -1.1007,1.141458 -0.3967,0.788674 -0.49157,2.199825 l -0.98623,-0.02901 0.14976,-5.091118 z m 22.11524,10.366743 q -0.53594,2.037346 -2.14017,3.104323 -1.59744,1.041187 -4.42742,0.793055 l 3.89482,8.359227 q 0.47243,1.034216 1.22171,1.644931 0.75607,0.584927 1.8433,1.063954 l -0.2578,0.97999 -4.97731,-1.309345 -4.18813,-9.759928 q -0.28238,-0.708483 -0.59459,-1.093926 -0.31221,-0.385444 -0.80764,-0.598495 -0.46964,-0.206267 -1.26911,-0.416576 l -1.41111,5.364152 q -0.33242,1.263671 -0.27671,1.995248 0.0815,0.73836 0.76834,1.167204 0.71262,0.435628 2.25997,0.842678 l -0.2578,0.979989 -9.10359,-2.394811 0.2578,-0.97999 q 1.22566,0.267278 1.87309,0.217 0.67999,-0.06928 1.04913,-0.63395 0.36913,-0.564667 0.68799,-1.776759 l 3.16142,-12.017765 q 0.31886,-1.212092 0.29437,-1.852733 -0.0177,-0.66643 -0.52401,-1.047784 -0.48052,-0.374571 -1.57588,-0.717868 l 0.25779,-0.97999 8.09781,2.130229 q 3.53312,0.929432 5.14711,2.760277 1.61398,1.830846 0.99662,4.177663 z m -9.38894,-6.026906 -1.97419,7.504656 1.83103,0.481676 q 2.55313,0.671633 4.06782,0.04986 1.51468,-0.621776 2.07777,-2.762279 0.54273,-2.063136 -0.2256,-3.23034 -0.73576,-1.18621 -2.85047,-1.742511 l -2.37261,-0.624144 q -0.43842,-0.115331 -0.55375,0.323085 z m 19.45307,8.045223 q -0.0529,-1.07366 -0.23982,-1.706895 -0.17481,-0.657012 -0.54204,-1.052852 -0.34347,-0.383766 -1.00921,-0.721834 l 0.4588,-0.903513 7.48965,3.80326 -0.4588,0.903514 q -1.16506,-0.591619 -1.76096,-0.654956 -0.58383,-0.08711 -0.81323,0.364643 -0.25355,0.49931 -0.17757,1.704298 l 0.48582,8.172262 0.0951,0.0483 4.9808,-3.153222 q 1.40076,-0.8738 2.08415,-1.453917 0.71923,-0.59182 0.94864,-1.043576 0.2294,-0.451757 -0.0427,-0.799301 -0.23628,-0.359247 -1.09224,-0.793906 l 0.4588,-0.903513 5.44486,2.76491 -0.45881,0.903513 q -0.66574,-0.338067 -1.33372,-0.318372 -0.64419,0.03177 -1.69705,0.57381 -1.04077,0.518263 -2.84871,1.663825 l -6.80081,4.322562 -1.43678,2.829423 q -0.7848,1.545484 -1.0168,2.41463 -0.19615,0.857444 0.2179,1.396686 0.42612,0.515465 1.5674,1.09501 l -0.4588,0.903513 -7.70364,-3.911925 0.4588,-0.903513 q 1.14128,0.579544 1.80888,0.619476 0.70346,0.02823 1.24418,-0.624331 0.5645,-0.640486 1.30101,-2.090863 l 1.47301,-2.900753 z m 37.97967,22.33459 q 1.63736,1.681037 2.44065,3.690534 0.84099,2.009994 0.8323,4.103092 0.029,2.093594 -0.77008,4.06314 -0.79909,1.969547 -2.42282,3.551084 -1.54732,1.507111 -3.49901,2.216873 -1.9517,0.709762 -4.0247,0.607043 -2.073,-0.102719 -4.06016,-0.996334 -1.96855,-0.874512 -3.5873,-2.536446 -1.61875,-1.661934 -2.45975,-3.671928 -0.82239,-1.990891 -0.87051,-4.065879 -0.0481,-2.074987 0.71277,-4.007321 0.76089,-1.932335 2.30821,-3.439446 1.62373,-1.581536 3.61362,-2.328511 1.9899,-0.746974 4.0634,-0.681965 2.11121,0.06551 4.07976,0.940019 2.00627,0.875009 3.64362,2.556045 z m -14.04048,13.675639 q 1.63736,1.681036 3.59227,2.159356 1.97402,0.459713 4.03884,-0.24856 2.08392,-0.726879 4.01329,-2.606116 2.04399,-1.990875 2.88278,-4.110762 0.85789,-2.138492 0.4694,-4.142529 -0.36939,-2.022644 -2.00675,-3.703681 -1.63735,-1.681036 -3.64957,-2.103537 -1.99312,-0.441107 -4.15345,0.360197 -2.14123,0.782699 -4.18522,2.773574 -1.92937,1.879237 -2.71085,3.943305 -0.76238,2.045461 -0.35479,4.030891 0.4267,1.966825 2.06405,3.647862 z m 15.26557,14.565358 q -1.16797,0.696725 -1.64046,1.258031 -0.43592,0.570542 -0.2322,1.380542 0.22663,0.79633 1.0005,2.19774 l -0.87025,0.51913 -4.83609,-8.107116 0.87025,-0.519128 q 0.68789,1.049046 1.18531,1.466489 0.53398,0.426684 1.19291,0.282025 0.65892,-0.144658 1.73529,-0.786738 l 10.67208,-6.366153 q 1.07637,-0.64208 1.50748,-1.116599 0.454,-0.488181 0.35957,-1.114965 -0.0808,-0.603882 -0.62241,-1.615968 l 0.87026,-0.519128 7.89621,13.237047 -4.2239,2.861224 -0.47815,-0.80156 q 1.1961,-0.9619 1.61916,-1.86633 0.42305,-0.904431 0.1241,-2.030227 -0.2853,-1.102896 -1.26891,-2.751801 l -1.73498,-2.908487 q -0.23224,-0.389324 -0.62157,-0.157083 l -6.91624,4.125704 q 0.88798,1.488596 1.66345,2.268042 0.77547,0.779446 1.66703,0.86862 0.91447,0.07551 2.11419,-0.515944 l 0.47814,0.801552 -6.71013,4.002754 -0.47814,-0.80155 q 1.07234,-0.85704 1.43112,-1.66102 0.39534,-0.794742 0.11446,-1.838173 -0.26721,-1.02053 -1.19618,-2.57783 z"
   id="Top Text"
   style="font-size:26.6666px;font-family:'Libre Baskerville';-inkscape-font-specification:'Libre Baskerville';letter-spacing:1.05px"
   transform="translate(-0.13206174)"
   aria-label="MINISTRY OF" /><path
   style="font-size:26.6666px;font-family:'Libre Baskerville';-inkscape-font-specification:'Libre Baskerville';letter-spacing:7.59999px"
   d="m 86.790794,224.70425 q 1.762615,1.5492 2.719104,3.49046 0.994123,1.93883 1.147539,4.02632 0.191051,2.08506 -0.453126,4.11057 -0.644177,2.02551 -2.140559,3.72804 -1.425964,1.6224 -3.316834,2.48117 -1.89087,0.85877 -3.965602,0.91688 -2.074731,0.0581 -4.125124,-0.67893 -2.030363,-0.71944 -3.772948,-2.25103 -1.742585,-1.53159 -2.736708,-3.47043 -0.974094,-1.92123 -1.182749,-3.98626 -0.208655,-2.06503 0.400313,-4.05048 0.608968,-1.98545 2.034932,-3.60786 1.496382,-1.70253 3.422461,-2.60135 1.926079,-0.89883 3.998385,-0.99458 2.109941,-0.0982 4.140304,0.62127 2.067997,0.71702 3.830612,2.26621 z m -12.939303,14.72184 q 1.762615,1.5492 3.748696,1.8747 2.003686,0.30547 4.007458,-0.56058 2.021377,-0.88607 3.799431,-2.90907 1.883681,-2.14318 2.555791,-4.32165 0.689715,-2.19851 0.147203,-4.16644 -0.524909,-1.98797 -2.287523,-3.53716 -1.762615,-1.5492 -3.801509,-1.81461 -2.021291,-0.28544 -4.113086,0.68075 -2.07419,0.94616 -3.957871,3.08934 -1.778054,2.023 -2.397351,4.14139 -0.601693,2.09835 -0.04157,4.04626 0.577721,1.92788 2.340336,3.47707 z m 23.118623,12.39317 q -0.623921,1.20844 -0.728745,1.9346 -0.0689,0.71471 0.531844,1.29498 0.612974,0.55657 2.010194,1.33798 l -0.464882,0.9004 -8.387956,-4.33074 0.464882,-0.9004 q 1.138123,0.52759 1.780973,0.61941 0.678779,0.0804 1.161947,-0.39045 0.483168,-0.4708 1.058154,-1.58446 l 5.700925,-11.04177 q 0.57498,-1.11366 0.6905,-1.74427 0.12774,-0.65431 -0.28344,-1.13671 -0.38749,-0.47016 -1.381895,-1.0436 l 0.464883,-0.9004 13.695592,7.0711 -2.07601,4.66028 -0.82931,-0.42819 q 0.50776,-1.44847 0.38942,-2.43992 -0.11835,-0.99144 -0.96672,-1.7896 -0.82469,-0.78592 -2.53071,-1.66675 l -3.00924,-1.55368 q -0.40281,-0.20798 -0.61078,0.19484 l -3.694593,7.15582 q 1.540163,0.7952 2.610293,1.0476 1.07013,0.2524 1.87433,-0.14269 0.81644,-0.41878 1.52291,-1.55458 l 0.82932,0.42818 -3.58449,6.94257 -0.82932,-0.42818 q 0.45806,-1.29407 0.33817,-2.16627 -0.084,-0.88366 -0.87349,-1.62142 -0.76583,-0.72552 -2.377073,-1.55742 z m 22.703046,9.24411 q -0.35193,1.31367 -0.29953,2.04549 0.0851,0.71296 0.79572,1.15181 0.71754,0.41308 2.24924,0.87863 l -0.26223,0.97882 -9.11843,-2.44282 0.26222,-0.97881 q 1.22444,0.27281 1.87209,0.22546 0.6803,-0.0662 1.05198,-0.62921 0.37168,-0.56299 0.69601,-1.77363 l 3.21568,-12.00336 q 0.32433,-1.21064 0.30274,-1.85138 -0.0147,-0.66651 -0.51927,-1.05014 -0.47882,-0.37674 -1.57263,-0.72498 l 0.26223,-0.97882 14.88829,3.98855 -1.03468,4.99574 -0.90154,-0.24152 q 0.18727,-1.52343 -0.13974,-2.46685 -0.327,-0.94342 -1.32604,-1.54234 -0.97328,-0.59203 -2.82788,-1.08887 l -3.2713,-0.87638 q -0.43789,-0.11731 -0.5552,0.32058 l -2.08399,7.77901 q 1.67429,0.44853 2.77363,0.46698 1.09934,0.0184 1.80082,-0.53902 0.70838,-0.58322 1.15645,-1.84354 l 0.90154,0.24153 -2.02188,7.54717 -0.90154,-0.24152 q 0.17162,-1.36198 -0.13147,-2.18856 -0.27043,-0.84544 -1.1991,-1.39791 -0.90291,-0.54556 -2.65447,-1.0148 z m 24.72097,-10.47626 -0.31063,7.64701 q 1.91841,0.0779 3.02383,-0.19744 1.13206,-0.27428 1.61208,-0.92199 0.4811,-0.67436 0.52439,-1.74015 l 0.93256,0.0379 -0.29547,7.27399 -0.93256,-0.0379 q 0.0433,-1.06579 -0.35488,-1.77587 -0.39818,-0.71007 -1.47654,-1.10083 -1.07836,-0.39076 -3.0767,-0.47193 l -0.24461,6.02169 q -0.0465,1.14571 0.32607,1.82807 0.39926,0.68343 1.34656,1.01548 0.94838,0.30541 2.62699,0.3736 1.89177,0.0768 3.026,-0.25072 1.16087,-0.32649 1.83606,-1.17979 0.67627,-0.87994 1.08651,-2.4379 l 1.01249,0.0411 -0.61288,5.23275 -16.54632,-0.67212 0.0411,-1.01249 q 1.25446,-0.002 1.87595,-0.19069 0.64921,-0.21382 0.88834,-0.84463 0.23914,-0.63082 0.29,-1.88311 l 0.50437,-12.4164 q 0.0509,-1.2523 -0.11075,-1.8727 -0.16054,-0.64705 -0.73698,-0.91066 -0.5498,-0.26253 -1.69335,-0.36236 l 0.0411,-1.0125 15.40059,0.62559 0.0493,4.69919 -0.93256,-0.0379 q -0.15579,-1.42082 -0.71059,-2.21733 -0.52815,-0.79542 -1.63532,-1.13397 -1.10716,-0.33855 -2.919,-0.41215 l -3.38387,-0.13745 q -0.45296,-0.0184 -0.47135,0.43456 z m 37.50635,15.54495 -15.80379,-13.76045 -0.10442,0.0217 2.32132,11.14751 q 0.3588,1.72303 0.71551,2.52039 0.35127,0.77125 0.95388,0.91815 0.6287,0.14147 1.73605,-0.0346 l 0.20659,0.99205 -7.02267,1.46238 -0.20659,-0.99205 q 1.21614,-0.30772 1.76223,-0.69382 0.57219,-0.39154 0.61795,-1.21823 0.0458,-0.82669 -0.29129,-2.44529 l -2.20716,-10.59928 q -0.30987,-1.48807 -0.65571,-2.23321 -0.34584,-0.74515 -0.98542,-0.93883 -0.61891,-0.22522 -1.75236,-0.0437 l -0.20659,-0.99205 5.16911,-1.0764 14.57797,12.84445 0.10443,-0.0217 -2.14193,-10.28599 q -0.3588,-1.72303 -0.71007,-2.49428 -0.35671,-0.79736 -0.95931,-0.94426 -0.60804,-0.17301 -1.73606,0.0346 l -0.20658,-0.99205 7.02267,-1.46238 0.20658,0.99205 q -1.22157,0.28161 -1.78833,0.69926 -0.54609,0.3861 -0.59185,1.21279 -0.0458,0.82669 0.29129,2.44529 l 3.25094,15.61174 z m 19.95164,-28.84069 -0.30347,-1.69464 0.66913,-0.33132 2.9366,5.38995 -0.88421,0.43781 q -1.55519,-1.81877 -3.65237,-2.26819 -2.10902,-0.47331 -4.2359,0.5798 -1.93571,0.95845 -2.82479,2.64844 -0.86519,1.67817 -0.67123,3.93289 0.18212,2.23083 1.47189,4.83566 1.89323,3.82362 4.52381,5.10991 2.65448,1.27447 5.66558,-0.21645 4.61223,-2.28371 3.5009,-7.83352 l 0.9798,-0.48514 2.94634,5.9505 -0.83641,0.41415 -1.48443,-1.61576 q -1.45614,3.36932 -5.01688,5.13239 -2.70043,1.3371 -5.26396,1.20786 -2.53964,-0.14107 -4.64471,-1.62806 -2.1169,-1.51089 -3.50132,-4.30691 -1.43176,-2.89161 -1.37329,-5.65816 0.0824,-2.77838 1.5341,-5.01477 1.46379,-2.27212 4.16422,-3.60921 1.43385,-0.70996 2.90158,-0.93084 1.49163,-0.2327 3.39902,-0.0464 z m 11.06063,-7.90023 4.90552,5.87445 q 1.47373,-1.23065 2.10782,-2.17706 0.65457,-0.9635 0.57523,-1.76579 -0.0964,-0.82275 -0.78014,-1.64149 l 0.7164,-0.59823 4.66622,5.58789 -0.7164,0.59823 q -0.68369,-0.81873 -1.45559,-1.07744 -0.7719,-0.2587 -1.8333,0.176 -1.06141,0.4347 -2.59655,1.71663 l 3.86288,4.62587 q 0.73497,0.88014 1.46931,1.13547 0.75481,0.23823 1.67969,-0.15194 0.90779,-0.41064 2.1973,-1.48746 1.45326,-1.21356 2.07364,-2.218 0.64085,-1.02153 0.56805,-2.10721 -0.0899,-1.10614 -0.83226,-2.53598 l 0.7778,-0.64951 3.06017,4.28867 -12.71091,10.61437 -0.64951,-0.7778 q 0.92783,-0.84428 1.26187,-1.40115 0.33741,-0.59444 0.0909,-1.22242 -0.24647,-0.62798 -1.04981,-1.59 l -7.96506,-9.5383 q -0.80334,-0.96202 -1.33974,-1.31315 -0.5535,-0.37159 -1.15764,-0.17978 -0.58367,0.17473 -1.49799,0.86876 l -0.64951,-0.7778 11.83076,-9.8794 3.19248,3.44862 -0.71639,0.59823 q -1.06965,-0.94809 -2.01563,-1.16564 -0.92552,-0.23464 -1.97321,0.25808 -1.04769,0.49273 -2.43955,1.65501 l -2.59949,2.17074 q -0.34797,0.29057 -0.0574,0.63853 z"
   id="Top Text-8"
   inkscape:label="Bottom Text"
   transform="translate(1.3844599)"
   aria-label="OFFENCE" /><path
   id="path3"
   style="stroke-width:1.07759;paint-order:stroke fill markers"
   d="m 51.231568,151.181 a 4.2344518,4.2344518 0 0 1 -4.234452,4.23445 4.2344518,4.2344518 0 0 1 -4.234452,-4.23445 4.2344518,4.2344518 0 0 1 4.234452,-4.23445 4.2344518,4.2344518 0 0 1 4.234452,4.23445 z" /><path
   id="circle4"
   style="stroke-width:1.07759;paint-order:stroke fill markers"
   d="m 259.59932,151.181 a 4.2344518,4.2344518 0 0 1 -4.23445,4.23445 4.2344518,4.2344518 0 0 1 -4.23445,-4.23445 4.2344518,4.2344518 0 0 1 4.23445,-4.23445 4.2344518,4.2344518 0 0 1 4.23445,4.23445 z" /></svg>
