<?xml version="1.0" encoding="UTF-8" standalone="no"?>
<svg
   xml:space="preserve"
   width="8cm"
   height="8cm"
   viewBox="0 0 302.362 302.362"
   version="1.1"
   id="svg1"
   sodipodi:docname="ministry-of-offence-seal.svg"
   inkscape:version="1.4.2 (ebf0e940, 2025-05-08)"
   xmlns:inkscape="http://www.inkscape.org/namespaces/inkscape"
   xmlns:sodipodi="http://sodipodi.sourceforge.net/DTD/sodipodi-0.dtd"
   xmlns:xlink="http://www.w3.org/1999/xlink"
   xmlns="http://www.w3.org/2000/svg"
   xmlns:svg="http://www.w3.org/2000/svg"><sodipodi:namedview
   id="namedview1"
   pagecolor="#ffffff"
   bordercolor="#000000"
   borderopacity="0.25"
   inkscape:showpageshadow="2"
   inkscape:pageopacity="0.0"
   inkscape:pagecheckerboard="false"
   inkscape:deskcolor="#d1d1d1"
   inkscape:document-units="cm"
   showgrid="false"
   inkscape:zoom="2.404401"
   inkscape:cx="151.1811"
   inkscape:cy="151.1811"
   inkscape:current-layer="svg1"
   labelstyle="default"
   inkscape:antialias-rendering="true"
   inkscape:clip-to-page="false"
   showguides="true"><sodipodi:guide
     position="61.137845,198.80197"
     orientation="0,-1"
     id="guide4"
     inkscape:locked="false" /><sodipodi:guide
     position="59.058327,80.685314"
     orientation="0,-1"
     id="guide5"
     inkscape:locked="false" /></sodipodi:namedview><defs
   id="defs1"><inkscape:path-effect
     effect="offset"
     id="path-effect5"
     is_visible="false"
     lpeversion="1.3"
     linejoin_type="miter"
     unit="mm"
     offset="-0.2"
     miter_limit="4"
     attempt_force_join="false"
     update_on_knot_move="false" /></defs>
  <path
   id="path1"
   style="display:inline;opacity:1;fill:#000000;fill-opacity:1;stroke:none;stroke-width:0.999998;stroke-dasharray:none;stroke-opacity:1"
   inkscape:label="Ministry Logotype"
   sodipodi:type="inkscape:offset"
   inkscape:radius="-0.3"
   inkscape:original="M 151.11133 63.259766 C 147.55539 63.554422 144.1652 65.544641 142.3457 68.650391 C 140.3157 72.115391 141.15375 77.341375 144.34375 81.109375 C 146.30375 83.424375 146.35938 83.605906 146.35938 87.628906 L 146.35938 91.042969 L 147.28125 91.277344 A 30 30 0 0 0 149.12695 91.671875 L 149.12695 91.669922 C 151.03395 92.000922 153.09002 91.844813 156.16602 91.132812 L 157.85156 90.744141 L 157.83203 87.572266 C 157.80803 83.828266 157.80787 83.826875 159.79688 80.671875 C 161.92988 77.288875 162.51195 75.673297 162.50195 73.154297 C 162.48695 68.997297 158.94088 64.646781 154.67188 63.550781 C 153.50188 63.250531 152.29664 63.161547 151.11133 63.259766 z M 113.13672 82.091797 C 112.67772 82.091797 109.43134 82.808375 108.52734 83.109375 C 103.02534 84.942375 97.601094 91.160031 95.246094 98.332031 C 94.430094 100.81503 94.148406 101.40698 92.816406 103.45898 C 92.270406 104.30098 91.619187 105.39463 91.367188 105.89062 C 90.917187 106.77796 90.601302 107.13122 90.417969 106.94922 C 90.366969 106.89922 90.627094 106.12928 90.996094 105.23828 C 92.343094 101.98428 92.910297 96.611969 92.404297 91.917969 C 91.980297 88.005969 91.776062 86.520344 91.664062 86.527344 C 91.409063 86.542344 87.400875 92.237406 86.796875 93.441406 C 84.159542 98.69607 83.625266 104.37323 85.197266 110.47656 C 86.249266 114.56156 85.981125 116.53966 82.953125 126.97266 C 82.755125 127.65266 82.521594 128.25459 82.433594 128.30859 C 82.345594 128.36259 82.284828 126.45934 82.298828 124.02734 C 82.322828 119.55134 82.24575 118.76881 81.46875 115.63281 C 80.91875 113.40881 78.789297 108.94594 77.154297 106.58594 C 76.763297 106.01994 76.027609 108.3805 75.099609 113.1875 C 74.044609 118.6475 75.211 126.14373 77.875 131.05273 C 79.806 134.60873 80.195703 136.27948 79.845703 139.52148 C 79.728703 140.60748 79.632766 143.49455 79.634766 145.93555 C 79.635766 148.64555 79.568938 150.375 79.460938 150.375 C 79.239937 150.375 79.188812 150.1618 78.632812 146.8418 C 78.383812 145.3548 78.063922 143.81873 77.919922 143.42773 C 76.993922 140.89373 76.655422 140.07892 76.357422 139.66992 C 76.173422 139.41692 75.544938 138.39348 74.960938 137.39648 C 73.822937 135.45548 71.184406 132.25586 69.691406 131.00586 L 68.777344 130.24219 L 68.628906 130.94141 C 68.343906 132.28741 68.500969 137.05995 68.917969 139.75195 C 69.816969 145.55395 71.606844 149.37919 75.464844 153.74219 C 77.365844 155.89119 78.769109 157.67536 79.162109 158.44336 C 79.563109 159.22636 80.323281 162.09164 80.488281 163.43164 C 80.713281 165.27764 82.430594 170.37859 83.558594 172.55859 C 84.060594 173.52559 84.1205 174.16058 83.6875 173.89258 C 83.5905 173.83258 83.171859 173.10634 82.755859 172.27734 C 79.696859 166.17734 76.959266 162.59463 73.197266 159.76562 C 71.520266 158.50463 67.943141 156.47969 67.744141 156.67969 C 67.545141 156.87969 68.313344 159.91823 69.277344 162.74023 C 71.860344 170.29923 76.014141 175.51589 81.994141 178.71289 C 85.800141 180.74889 87.387969 182.23227 90.667969 186.82227 C 91.900969 188.54827 93.536687 190.68908 94.304688 191.58008 C 95.072687 192.47208 95.701172 193.28286 95.701172 193.38086 C 95.701172 193.75286 95.32175 193.52325 94.09375 192.40625 C 92.82375 191.25225 89.156891 188.31605 87.962891 187.49805 C 85.154891 185.57405 80.426281 183.97992 76.613281 183.66992 L 74.966797 183.53711 L 76.410156 185.64062 C 82.347156 194.30462 86.797031 197.57795 94.582031 199.00195 C 100.16404 200.02195 101.41045 200.4925 105.31445 203.0625 A 1176 1176 0 0 0 109.54297 205.83398 L 112.63281 207.8457 C 114.73481 209.2167 114.44336 209.47184 112.06836 208.33984 C 109.52136 207.12584 105.8993 205.73119 104.0293 205.24219 C 100.8973 204.42519 95.137516 204.45255 90.353516 205.31055 L 89.710938 205.42578 L 91 206.61523 C 93.871 209.26523 99.636493 212.59727 103.6875 213.94727 C 107.4255 215.19227 113.70163 215.53764 117.01562 214.68164 C 119.19762 214.11864 122.36064 214.19156 124.30664 214.85156 C 129.26164 216.52856 131.76769 217.41367 132.55469 217.76367 A 67 67 0 0 0 135.2793 218.84961 C 137.9753 219.86461 137.90756 220.18083 135.10156 219.67383 C 133.36856 219.36083 129.15636 219.31484 127.44336 219.58984 C 124.87736 220.00284 121.58989 221.33798 118.83789 223.08398 L 117.99805 223.61523 L 118.70703 223.97461 C 120.83203 225.05661 124.9885 226.12636 127.8125 226.31836 C 129.9455 226.46436 132.02684 226.09495 135.96484 224.87695 C 142.28884 222.92095 142.93305 222.83906 145.49805 223.66406 C 146.23705 223.90206 146.10377 224.02655 144.25977 224.81055 C 141.79077 225.86055 137.27647 228.64453 132.98047 231.76953 C 130.61647 233.48853 127.7207 235.93013 127.7207 236.20312 C 127.7207 236.27213 128.66531 236.96138 129.82031 237.73438 C 130.97531 238.50837 131.96363 239.14062 132.01562 239.14062 C 132.06663 239.14063 132.90781 238.36687 133.88281 237.42188 C 139.38881 232.08487 147.1863 227.00683 151.1543 226.17383 L 152.11133 225.97461 L 155.19531 227.57617 C 158.34131 229.20917 160.52034 230.57731 163.15234 232.57031 C 165.34234 234.22831 169.33645 237.53597 170.06445 238.29297 C 170.41345 238.65697 170.83023 238.95508 170.99023 238.95508 C 171.27523 238.95508 175.1095 236.45284 175.1875 236.21484 C 175.4915 235.30084 163.0508 226.53867 158.2168 224.26367 C 157.1228 223.74967 157.30695 223.60737 159.37695 223.35938 C 160.53795 223.22038 160.87588 223.30078 165.92188 224.92578 C 170.08687 226.26778 171.42989 226.49161 174.46289 226.34961 C 177.65289 226.19961 180.86266 225.45953 183.47266 224.26953 L 184.92188 223.60938 L 182.2207 222.24414 C 179.0617 220.64814 177.43102 220.06473 175.04102 219.67773 C 172.40102 219.24873 168.53016 219.33214 166.03516 219.86914 C 164.89316 220.11514 165.48442 219.52388 166.85742 219.04688 C 167.56042 218.80287 169.63198 218.01859 171.45898 217.30859 C 178.14798 214.70159 179.71486 214.23252 181.75586 214.22852 C 182.87186 214.22752 184.38866 214.38467 185.72266 214.63867 C 188.73566 215.21367 193.49808 215.21086 196.20508 214.63086 C 200.24108 213.76686 205.54609 211.07812 210.12109 207.57812 C 212.40109 205.83412 212.78966 205.20455 211.59766 205.18555 C 211.44466 205.18355 210.57316 205.09238 209.66016 204.98438 C 206.03516 204.55237 200.41477 204.8245 197.75977 205.5625 C 195.90277 206.0785 191.47241 207.843 190.06641 208.625 C 189.30774 209.04767 188.88673 209.19069 188.80273 209.05469 C 188.73273 208.94269 188.70523 208.82878 188.74023 208.80078 A 272 272 0 0 1 190.74414 207.46289 A 1089 1089 0 0 0 196.16602 203.81445 C 200.87802 200.62545 201.67977 200.28669 207.13477 199.17969 C 215.23677 197.53669 220.86527 193.62883 225.69727 186.29883 C 226.67127 184.82083 227.46875 183.58573 227.46875 183.55273 C 227.46875 183.51973 226.65797 183.54923 225.66797 183.61523 C 222.82097 183.80723 220.73606 184.40969 217.66406 185.92969 C 214.58206 187.45569 212.75292 188.77591 208.04492 192.87891 C 206.19692 194.48891 206.45091 193.71747 208.62891 191.10547 C 209.62691 189.90947 211.36138 187.66805 212.48438 186.12305 C 215.55937 181.89605 215.88742 181.60578 220.73242 178.80078 C 223.32342 177.30078 224.38877 176.47522 226.50977 174.32422 C 229.56677 171.22422 230.82862 169.29172 232.51562 165.13672 C 233.80962 161.95072 235.02297 157.20117 234.54297 157.20117 C 234.45297 157.20117 233.47223 157.70627 232.36523 158.32227 C 226.41923 161.62927 224.05448 164.14062 220.64648 170.76562 C 218.53248 174.87563 218.19719 174.99477 219.61719 171.13477 C 220.58719 168.49677 220.92252 167.38698 221.85352 163.70898 C 223.03552 159.03998 223.59877 157.96714 226.63477 154.61914 C 230.14277 150.74714 231.80578 147.46322 233.17578 141.69922 C 233.99278 138.26122 234.35098 133.30323 233.95898 130.86523 L 233.83594 130.08984 L 232.54297 131.16602 C 229.39197 133.79202 225.92852 138.86419 224.97852 142.24219 C 224.73452 143.11119 224.2807 145.10864 223.9707 146.68164 C 223.6597 148.25464 223.36255 149.72998 223.31055 149.95898 C 223.02255 151.21998 222.90078 149.6958 222.80078 143.5918 C 222.67178 135.6658 222.79475 134.67072 224.21875 132.01172 C 228.53075 123.95672 229.11227 115.5383 225.94727 107.0293 L 225.58008 106.03906 L 225.02734 107.0293 C 221.09634 114.0783 220.46802 116.28123 220.29102 123.61523 L 220.17188 128.50391 L 219.74609 127.12109 C 219.51209 126.36009 218.99466 124.69869 218.59766 123.42969 C 216.46266 116.61069 216.26936 114.34828 217.44336 109.98828 C 218.10336 107.54028 218.12195 107.37133 218.12695 104.23633 C 218.13195 100.79433 218.00328 100.0275 216.86328 96.6875 C 215.86328 93.7565 211.80117 87.221781 210.95117 87.175781 C 210.44017 87.147781 209.87762 92.179922 209.89062 96.669922 C 209.90263 101.04592 210.18508 102.53823 211.58008 105.61523 C 211.94208 106.41223 212.05778 106.8555 211.92578 106.9375 C 211.68878 107.0835 211.36237 106.68103 210.73438 105.45703 C 210.48038 104.96103 209.95631 104.08853 209.57031 103.51953 C 208.56531 102.03453 207.47733 99.783344 206.73633 97.652344 C 204.54533 91.359344 200.35369 86.423953 194.92969 83.751953 C 193.56969 83.081953 189.52683 81.953641 189.29883 82.181641 C 189.18283 82.298641 190.13967 85.303344 190.76367 86.777344 C 192.77367 91.522344 196.0722 95.268547 201.9082 99.435547 C 203.9732 100.91054 205.765 102.33083 206.625 103.17383 C 207.493 104.02483 210.47475 108.44752 211.71875 110.72852 C 211.75575 110.79852 211.71309 110.90298 211.62109 110.95898 C 211.52909 111.01498 211.0658 110.58967 210.5918 110.01367 C 208.2568 107.17767 204.82778 104.83417 201.17578 103.57617 C 199.08978 102.85717 195.38942 102.08828 194.73242 102.23828 C 194.32142 102.33128 197.62842 107.10503 199.73242 109.45703 C 203.15342 113.27903 205.40148 114.77467 210.14648 116.38867 C 213.39348 117.49367 213.84473 117.71619 214.42773 118.49219 C 215.39673 119.78619 215.85867 120.96116 217.63867 126.66016 C 219.49767 132.61516 219.4477 133.42523 217.4707 129.36523 C 215.4607 125.23723 213.34078 123.14273 208.55078 120.55273 C 206.96678 119.69573 203.29297 118.35386 203.29297 118.63086 C 203.29297 119.13886 207.15453 126.62239 208.26953 128.27539 C 210.21753 131.16139 213.2873 133.82777 217.0293 135.88477 C 218.5313 136.71077 219.75039 137.78005 220.15039 138.62305 C 220.74839 139.88405 221.56887 153.32617 221.04688 153.32617 C 220.93388 153.32617 220.79428 153.01477 220.73828 152.63477 C 220.11928 148.44277 218.82175 145.31216 216.34375 142.03516 C 214.53275 139.64216 212.91152 138.22289 209.97852 136.46289 C 209.41152 136.12289 210.06052 140.6495 211.22852 145.1875 C 212.40552 149.7595 213.74645 152.29995 216.93945 156.00195 C 217.81445 157.01695 218.75911 158.15716 219.03711 158.53516 C 220.65511 160.73316 219.7378 166.25581 216.5918 173.25781 C 216.2038 174.11981 215.83834 174.97239 215.77734 175.15039 C 215.71734 175.32739 215.58256 175.4707 215.47656 175.4707 C 215.21356 175.4707 215.23988 174.89108 215.54688 173.95508 C 216.88888 169.85208 216.19911 163.21073 214.03711 159.42773 C 213.34611 158.21773 210.99484 154.82355 210.83984 154.81055 C 210.77884 154.80555 210.51114 155.8195 210.24414 157.0625 C 208.41714 165.5395 208.60227 169.84194 211.07227 176.21094 C 212.71027 180.43394 212.4587 182.3313 209.7207 186.4043 C 207.8287 189.2203 202.73828 195.03 202.73828 194.375 C 202.73828 194.199 203.14081 193.4253 203.63281 192.6543 C 204.62381 191.0973 206.28903 187.16272 206.70703 185.38672 C 207.23503 183.14872 206.90773 177.75875 206.05273 174.59375 C 205.85373 173.85675 205.69141 173.08872 205.69141 172.88672 C 205.69141 172.17372 205.39714 172.55106 203.61914 175.53906 C 199.59414 182.30306 198.73545 185.03817 198.31445 192.45117 C 198.00745 197.84617 197.23045 199.61477 194.06445 202.13477 C 191.81645 203.92377 185.28605 208.0452 184.12305 208.4082 C 183.32505 208.6562 183.78908 208.08894 185.20508 207.08594 C 189.55908 204.00294 191.76569 200.1487 193.42969 192.7207 C 193.77869 191.1597 194.06445 189.46031 194.06445 188.94531 L 194.06445 188.00781 L 192.91211 188.78125 C 189.48011 191.08225 185.78194 194.47933 183.71094 197.23633 C 181.85094 199.71433 181.20017 200.99347 179.20117 206.10547 C 177.39317 210.72947 177.1057 211.15733 174.9707 212.36133 C 173.2957 213.30733 163.46127 217.10805 158.44727 218.74805 C 157.28027 219.12805 155.25903 219.84866 153.95703 220.34766 L 151.58984 221.25586 L 147.5918 219.93164 C 145.3918 219.20364 142.76109 218.25141 141.74609 217.81641 C 140.73109 217.38141 137.9485 216.30106 135.5625 215.41406 C 131.0425 213.73606 126.77431 211.76461 125.94531 210.97461 C 125.32831 210.38561 124.59855 208.92894 123.18555 205.46094 C 121.44555 201.19394 120.1357 198.97498 117.7207 196.20898 C 116.4217 194.72098 111.65203 190.49408 109.95703 189.33008 L 108.62109 188.41016 L 108.62109 189.27734 C 108.62409 192.95534 111.53884 200.99963 113.96484 204.01562 C 114.47884 204.65563 115.7133 205.78008 116.7793 206.58008 C 117.8233 207.36508 118.71381 208.03622 118.75781 208.07422 C 118.80181 208.11222 118.76102 208.2195 118.66602 208.3125 C 118.56102 208.4155 117.55775 207.97278 116.09375 207.17578 C 113.73675 205.89178 113.1455 205.51534 110.1875 203.40234 C 108.1275 201.93134 105.89905 199.62497 105.12305 198.16797 L 104.48633 196.9707 L 104.35742 192.63477 C 104.21842 188.00677 104.01028 186.65734 102.98828 183.77734 C 102.08228 181.22834 98.678016 174.56323 97.541016 173.11523 C 97.212016 172.69523 97.210188 172.69686 96.742188 174.13086 C 95.871188 176.79786 95.274484 181.20258 95.521484 183.14258 C 96.069484 187.43758 96.982281 190.10697 98.738281 192.54297 C 100.00329 194.29897 100.09227 194.48047 99.697266 194.48047 C 99.235266 194.48047 95.397031 190.10741 93.957031 187.94141 C 93.547031 187.32241 92.598562 185.60409 91.851562 184.12109 C 90.212563 180.86609 90.068562 179.76216 90.976562 177.41016 C 93.230562 171.56816 93.405281 170.75609 93.363281 166.24609 C 93.345281 164.36709 93.201016 161.83323 93.041016 160.61523 C 92.730016 158.24323 92.018797 154.80169 91.841797 154.80469 C 91.609797 154.80669 89.197719 158.73752 88.511719 160.22852 C 86.703719 164.16052 86.111328 168.54536 86.861328 172.44336 C 87.627328 176.42936 87.526016 176.57211 86.166016 173.41211 C 84.202016 168.85111 82.82625 164.23486 82.65625 161.63086 C 82.54625 159.93286 82.782313 159.48861 85.820312 155.72461 C 89.049313 151.72261 89.972047 150.09531 90.998047 146.57031 C 91.824047 143.73731 92.5575 139.2633 92.5625 137.0293 L 92.564453 136.32617 L 91.179688 137.2832 C 88.513687 139.1262 85.026438 143.10828 83.773438 145.73828 C 83.195437 146.95228 82.265312 150.46177 81.945312 152.63477 C 81.889313 153.01477 81.751672 153.32617 81.638672 153.32617 C 81.415672 153.32617 81.534422 147.49956 81.857422 142.72656 C 82.144422 138.47756 82.574297 137.70031 85.529297 136.07031 C 91.090297 133.00231 93.965375 130.00377 96.859375 124.25977 C 98.341375 121.31777 99.585 118.44727 99.375 118.44727 C 99.275 118.44727 98.354078 118.7387 97.330078 119.0957 C 91.103078 121.2627 87.072984 124.72025 84.583984 130.03125 C 82.783984 133.87225 83.899563 129.26866 86.476562 122.22266 C 87.994562 118.07166 88.348891 117.61798 90.587891 116.95898 C 96.059891 115.34898 97.90929 114.35742 101.0293 111.35742 C 103.4133 109.06642 108.40695 102.41233 107.87695 102.23633 C 107.77095 102.20133 106.88239 102.30956 105.90039 102.47656 C 99.436384 103.57856 96.280234 105.28523 92.240234 109.86523 C 90.758234 111.54523 90.705281 111.05169 92.113281 108.67969 C 95.072281 103.69669 96.342305 102.2655 100.32031 99.4375 C 108.13631 93.8815 111.03742 90.283625 112.85742 83.890625 C 113.22742 82.590625 113.30472 82.091797 113.13672 82.091797 z M 132.45312 89.519531 C 131.93984 89.562125 131.52917 89.691125 131.13867 89.890625 C 128.80367 91.083625 128.35809 93.961016 130.24609 95.666016 C 132.01009 97.260016 136.99702 98.735141 141.91602 99.119141 C 144.79502 99.343141 145.74447 99.637203 144.48047 99.908203 C 140.92247 100.6742 138.51053 103.58075 138.51953 107.09375 C 138.53253 112.56775 143.19516 117.92673 149.03516 119.17773 C 150.95516 119.58973 152.27234 119.57428 154.90234 119.11328 C 161.50934 117.95528 166.53861 110.08603 164.34961 104.33203 C 163.59161 102.34003 160.73902 100.00718 159.04102 99.992188 C 158.59102 99.987187 158.19503 99.699562 158.33203 99.476562 C 158.39703 99.373562 159.09291 99.236828 159.87891 99.173828 C 163.24491 98.906828 168.39016 97.968469 170.53516 97.230469 C 173.18116 96.319469 174.62494 94.641063 174.46094 92.664062 C 174.35494 91.385063 173.92364 90.809094 172.55664 90.121094 C 170.65364 89.162094 169.38745 89.321234 163.56445 91.240234 C 157.61345 93.201234 155.05828 93.76225 151.98828 93.78125 C 148.61228 93.80125 147.3358 93.553375 142.0918 91.859375 C 136.4578 90.038375 133.99297 89.39175 132.45312 89.519531 z M 158.38281 103.08984 C 159.45114 103.10812 160.83505 104.98137 160.8418 107.04688 C 160.8538 110.52288 158.15281 113.64234 154.25781 114.65234 C 151.08281 115.47534 147.41359 114.57337 144.93359 112.35938 C 142.08559 109.81637 141.51661 105.28242 143.84961 103.73242 C 144.69361 103.17242 144.92934 103.20555 145.27734 103.93555 L 145.57227 104.55664 L 147.9043 104.70898 C 150.9923 104.91098 153.36484 104.87661 155.46484 104.59961 C 157.15384 104.37661 157.19242 104.36095 157.48242 103.75195 C 157.70542 103.28445 158.0267 103.08375 158.38281 103.08984 z M 137.56836 114.63672 C 137.02923 114.66322 136.12656 114.94717 134.35156 115.51367 C 127.22456 117.78967 122.25653 120.56405 114.89453 126.37305 C 109.46153 130.66005 104.38469 137.14094 101.80469 143.08594 C 100.50569 146.07994 99.761578 147.8647 99.767578 147.9707 C 99.770578 148.0257 99.958587 147.81963 100.18359 147.51562 C 103.44459 143.10963 109.42414 137.23212 114.61914 133.32812 C 123.10414 126.95112 129.31428 124.01414 141.23828 120.74414 C 142.68528 120.34714 143.86914 119.97973 143.86914 119.92773 C 143.86914 119.87473 143.48086 119.627 143.00586 119.375 C 141.99586 118.839 139.37247 116.41269 138.60547 115.30469 C 138.28397 114.84119 138.10748 114.61022 137.56836 114.63672 z M 165.35547 114.63672 C 165.08209 114.68984 164.96597 114.92008 164.66797 115.39258 C 163.87197 116.65258 161.79663 118.65248 160.51562 119.39648 L 159.35938 120.06836 L 160.05664 120.19727 C 161.37464 120.43727 167.03128 122.11334 169.61328 123.02734 C 176.55228 125.48234 183.99744 129.63014 189.52344 134.11914 C 190.22244 134.68814 191.34563 135.59472 192.01562 136.13672 C 194.01162 137.74972 196.62608 140.21328 197.83008 141.61328 L 200.88672 145.16602 C 201.94872 146.39902 202.85248 147.37213 202.89648 147.32812 C 202.94148 147.28313 202.89302 147.14267 202.79102 147.01367 C 202.69002 146.88367 202.25231 145.90484 201.82031 144.83984 C 198.04031 135.52484 192.51453 128.95477 183.14453 122.63477 C 178.20653 119.30477 171.35128 116.04141 166.98828 114.94141 C 166.05978 114.70741 165.62884 114.58359 165.35547 114.63672 z M 147.18945 125.08008 C 135.95845 125.95808 126.70002 129.29806 117.16602 135.91406 C 113.16902 138.68606 107.78325 143.81222 104.78125 147.69922 C 102.37525 150.81622 102.37514 150.86052 104.74414 152.72852 C 106.41614 154.04652 113.28075 160.20706 116.09375 162.91406 C 123.48475 170.02406 134.67581 175.48122 144.88281 176.94922 C 147.29381 177.29622 147.25953 177.26641 147.14453 178.94141 C 146.99653 181.09841 146.18255 183.86714 144.56055 187.74414 C 140.98455 196.29114 140.05184 199.69352 140.21484 203.60352 C 140.33384 206.45752 141.69458 209.21845 144.01758 211.31445 C 145.18458 212.36845 147.48584 213.36452 149.58984 213.72852 C 154.91684 214.64952 160.49147 211.33697 162.10547 206.29297 C 163.40847 202.22197 162.76411 197.93653 159.78711 190.89453 C 156.94111 184.16253 155.19925 178.10644 155.90625 177.39844 C 155.96825 177.33744 156.95937 177.16463 158.10938 177.01562 C 164.55538 176.18063 171.3743 173.82719 176.6543 170.61719 C 182.3953 167.12719 184.78584 165.31484 189.71484 160.71484 A 322 322 0 0 1 197.05078 154.10352 C 198.96078 152.44952 200.52344 150.99138 200.52344 150.85938 C 200.52344 150.07137 196.30241 145.0173 192.94141 141.7793 C 185.27241 134.3923 177.65009 129.95316 167.62109 127.03516 C 161.75909 125.32916 153.76545 124.56508 147.18945 125.08008 z M 144.23633 134.04492 C 144.23633 134.09792 143.73509 134.77192 143.12109 135.54492 C 141.89809 137.08392 140.12683 140.51452 139.79883 141.97852 C 139.51083 143.26152 139.56444 146.37617 139.89844 147.70117 C 140.96144 151.91917 144.32642 155.29259 148.48242 156.30859 C 149.94042 156.66559 153.625 156.60712 155.125 156.20312 C 159.382 155.05512 162.69242 151.20341 163.73242 146.19141 C 164.02642 144.77341 164.0005 141.17655 163.6875 139.81055 C 163.3725 138.43555 165.53736 140.22489 166.44336 142.08789 C 167.68636 144.64289 167.53023 149.60405 166.11523 152.49805 C 164.00823 156.80405 160.00434 160.08258 155.40234 161.26758 C 145.75534 163.75258 136.14414 157.28516 134.99414 147.53516 C 134.47014 143.09016 136.66578 137.68398 139.80078 135.70898 C 141.24878 134.79498 144.23633 133.67492 144.23633 134.04492 z M 170.40625 134.50391 C 172.54225 134.50391 180.52578 138.9882 184.92578 142.6582 C 186.99978 144.3892 191.31195 148.51169 191.87695 149.30469 L 192.24805 149.82617 L 191.86523 150.44336 C 190.91923 151.97436 184.73425 157.68717 181.03125 160.45117 C 172.84525 166.55917 167.01247 169.21356 158.73047 170.60156 C 156.05747 171.04956 150.67327 171.32605 148.57227 171.12305 C 143.86127 170.66705 138.59073 169.44242 135.05273 167.98242 C 130.55173 166.12542 124.72709 162.70873 121.74609 160.17773 A 135 135 0 0 0 119.13867 158.03516 C 117.59667 156.80516 111.81969 151.12208 111.30469 150.33008 C 110.97969 149.82908 110.98414 149.81091 111.49414 149.12891 C 114.72714 144.81091 123.868 138.09334 130 135.52734 C 131.525 134.88934 131.9828 134.93459 131.5918 135.68359 C 128.0588 142.45259 127.8237 148.60552 130.8457 155.22852 C 133.8147 161.73652 140.93877 166.70297 148.50977 167.54297 C 153.92277 168.14397 160.45755 166.51622 164.93555 163.44922 C 168.94355 160.70322 172.42878 155.14806 173.42578 149.91406 C 174.20178 145.84006 173.06772 139.62953 170.88672 136.01953 C 169.95672 134.47953 169.96225 134.50391 170.40625 134.50391 z M 150.39453 135.87109 C 153.52853 136.45909 154.29136 141.90738 151.44336 143.35938 C 149.16136 144.52238 146.45312 142.72102 146.45312 140.04102 C 146.45312 137.94402 148.71053 135.55509 150.39453 135.87109 z M 148.39453 191.25391 C 148.98033 190.68578 149.08458 192.40609 149.17383 198.12109 L 149.27344 204.53906 L 148.71094 205.13867 C 147.55594 206.37067 145.55309 205.76552 144.87109 203.97852 C 144.17909 202.16752 145.46886 196.81448 147.63086 192.52148 C 147.95086 191.88648 148.19927 191.44328 148.39453 191.25391 z "
   d="m 151.16602,63.912109 c -3.34822,0.277444 -6.55403,2.163457 -8.25586,5.06836 -1.84509,3.149369 -1.10001,8.121814 1.93359,11.705078 0.98348,1.161611 1.56654,1.870617 1.86914,2.849609 0.3026,0.978993 0.30078,2.079232 0.30078,4.09375 v 2.904297 l 0.42969,0.109375 c 0.593,0.146274 1.192,0.273827 1.79297,0.382813 6.2e-4,1.13e-4 0.001,-1.14e-4 0.002,0 1.79467,0.311503 3.74527,0.171035 6.7793,-0.53125 a 0.65494977,0.65494977 0 0 1 0.002,0 l 1.17383,-0.269532 -0.0156,-2.648437 c -0.024,-3.743983 0.0754,-4.09882 2.06446,-7.253906 2.1115,-3.348899 2.61506,-4.749009 2.60547,-7.166016 -0.0137,-3.786229 -3.38859,-7.95678 -7.33789,-8.970703 -1.0953,-0.281078 -2.2273,-0.365951 -3.34375,-0.273438 z m -38.72657,18.945313 c -0.36857,0.06959 -0.82445,0.164814 -1.29882,0.269531 -0.97148,0.214453 -2.0294,0.478037 -2.40625,0.603516 -5.20314,1.733431 -10.568227,7.811237 -12.865239,14.80664 -0.820318,2.496141 -1.163548,3.214421 -2.503907,5.279301 -0.534314,0.82409 -1.192483,1.93497 -1.414062,2.37109 -0.237103,0.46753 -0.432633,0.8055 -0.669922,1.07031 -0.118645,0.13241 -0.244741,0.26422 -0.488281,0.34766 -0.243,0.0833 -0.645706,-0.006 -0.833985,-0.19141 h -0.002 c -0.199384,-0.19719 -0.189856,-0.3428 -0.197265,-0.42187 -0.0075,-0.0795 -0.0023,-0.12392 0.002,-0.16406 0.0086,-0.0803 0.02165,-0.13659 0.03711,-0.19922 0.03091,-0.12528 0.07503,-0.26447 0.130859,-0.42969 0.11165,-0.33044 0.271738,-0.75409 0.460938,-1.21094 1.274421,-3.07867 1.857985,-8.410787 1.363281,-12.999999 C 91.550248,90.109242 91.401832,88.850267 91.287109,88 c -0.398929,0.530432 -0.881587,1.192834 -1.390625,1.916016 -1.102919,1.566902 -2.286445,3.36541 -2.513672,3.818359 -2.56841,5.117341 -3.089375,10.604495 -1.550781,16.578125 0.535718,2.08024 0.745968,3.73591 0.421875,6.11914 -0.324092,2.38323 -1.156229,5.50049 -2.671875,10.72266 a 0.65494977,0.65494977 0 0 1 0,0.002 c -0.10382,0.35655 -0.216731,0.69049 -0.320312,0.95703 -0.05179,0.13327 -0.09991,0.24681 -0.152344,0.35156 -0.02622,0.0524 -0.05173,0.10259 -0.08984,0.16016 -0.03811,0.0576 -0.05703,0.12737 -0.24414,0.24219 -6.88e-4,4.2e-4 -0.173144,0.074 -0.173829,0.0742 -6.84e-4,1.8e-4 -0.221975,0.0215 -0.222656,0.0215 -6.81e-4,-5e-5 -0.208307,-0.0505 -0.208984,-0.0508 -6.77e-4,-2.9e-4 -0.108082,-0.0561 -0.146485,-0.0859 -0.153611,-0.1192 -0.176195,-0.20305 -0.201171,-0.25781 -0.04995,-0.10953 -0.05285,-0.15359 -0.0625,-0.20313 -0.0193,-0.0991 -0.02917,-0.1889 -0.03906,-0.30468 -0.0198,-0.23157 -0.03445,-0.54656 -0.04687,-0.93946 -0.02484,-0.78579 -0.03633,-1.87522 -0.0293,-3.09765 0.02396,-4.46808 -0.03723,-5.1113 -0.810547,-8.23242 a 0.65494977,0.65494977 0 0 1 0,-0.002 c -0.458797,-1.85521 -2.262021,-5.62106 -3.765625,-8.01562 -0.04546,0.12501 -0.06691,0.13777 -0.115234,0.29297 -0.333801,1.0721 -0.749261,2.85463 -1.210938,5.24609 -1.01676,5.2621 0.14007,12.69395 2.708985,17.42773 1.954418,3.59913 2.403067,5.53412 2.044922,8.85157 -0.107844,1.00101 -0.209017,3.92033 -0.207032,6.34375 5.03e-4,1.36043 -0.0162,2.47544 -0.04687,3.26172 -0.01534,0.39313 -0.03232,0.70161 -0.05664,0.93359 -0.01216,0.11599 -0.02493,0.20918 -0.04883,0.3125 -0.01195,0.0517 -0.02151,0.10213 -0.06641,0.19531 -0.02245,0.0466 -0.05168,0.10682 -0.132812,0.18945 -0.08113,0.0826 -0.25471,0.20118 -0.476563,0.20118 -0.08027,0 -0.230559,-0.0126 -0.378906,-0.0899 -0.148346,-0.0773 -0.257933,-0.20093 -0.322265,-0.30468 -0.128666,-0.20751 -0.164052,-0.37283 -0.22461,-0.63086 -0.121116,-0.51607 -0.270665,-1.39372 -0.548828,-3.05469 -0.123022,-0.73467 -0.263662,-1.48326 -0.390625,-2.0918 -0.126963,-0.60853 -0.260781,-1.12103 -0.291016,-1.20312 a 0.65494977,0.65494977 0 0 1 0,-0.002 c -0.923874,-2.52818 -1.283341,-3.33246 -1.476562,-3.59765 -0.260739,-0.35852 -0.843229,-1.32168 -1.431641,-2.32617 v -0.002 c -1.073845,-1.83107 -3.762826,-5.07828 -5.125,-6.21875 l -0.01367,-0.0117 c -0.08256,0.64341 -0.142645,1.8355 -0.09375,3.32422 0.05507,1.67678 0.198949,3.5316 0.400391,4.83203 0.88553,5.71507 2.59187,9.36025 6.390625,13.65625 1.914216,2.16394 3.295447,3.87132 3.789063,4.83594 0.271702,0.53053 0.536822,1.41505 0.802734,2.41602 0.265912,1.00096 0.501308,2.05613 0.591797,2.79101 0.194109,1.59256 1.940894,6.85562 3.001953,8.90625 0.2731,0.52607 0.443648,0.94443 0.484375,1.36914 0.02036,0.21236 0.06506,0.53573 -0.302734,0.82227 -0.183895,0.14327 -0.435897,0.17573 -0.601563,0.14844 -0.165666,-0.0273 -0.276498,-0.0863 -0.376953,-0.14844 -0.173838,-0.10753 -0.180948,-0.1529 -0.220703,-0.20313 -0.03976,-0.0502 -0.07335,-0.0981 -0.109375,-0.15234 -0.07205,-0.10855 -0.151492,-0.23869 -0.240235,-0.39258 -0.177485,-0.30777 -0.390401,-0.70617 -0.603515,-1.13086 -3.034877,-6.05189 -5.695485,-9.52014 -9.367188,-12.28125 -0.794315,-0.59727 -2.100104,-1.41732 -3.208984,-2.04492 -0.420041,-0.23773 -0.756117,-0.40634 -1.080078,-0.56836 0.05701,0.27577 0.102895,0.52523 0.195312,0.89063 0.282149,1.11553 0.711541,2.56957 1.1875,3.96289 2.543346,7.44295 6.576268,12.48867 12.40625,15.60547 3.855858,2.06267 5.599116,3.6896 8.898438,8.30664 1.222642,1.7115 2.870073,3.86456 3.599609,4.71093 0.390381,0.45341 0.744945,0.8856 1.007813,1.22461 0.131433,0.16951 0.23851,0.315 0.322265,0.4375 0.04188,0.0613 0.07846,0.11569 0.113282,0.17774 0.01741,0.031 0.03451,0.0627 0.05469,0.11133 0.02018,0.0486 0.05664,0.0962 0.05664,0.27734 0,0.10216 -0.0026,0.22413 -0.08008,0.38867 -0.07744,0.16454 -0.289212,0.35931 -0.498047,0.41016 -0.417671,0.1017 -0.584414,-0.0617 -0.759766,-0.16797 -0.350403,-0.21238 -0.741893,-0.5559 -1.363281,-1.1211 h -0.002 c -1.215603,-1.10441 -4.953823,-4.09335 -6.060547,-4.85156 -2.664345,-1.82557 -7.355398,-3.41794 -11.03125,-3.71679 l -0.277344,-0.0215 0.666016,0.96875 a 0.65494977,0.65494977 0 0 1 0.002,0 c 5.894225,8.60158 10.094327,11.68791 17.748047,13.08789 5.600081,1.02331 7.047801,1.57319 10.974611,4.1582 1.40673,0.92634 2.81586,1.84925 4.22656,2.76954 l 3.08984,2.01171 c 0.53909,0.35162 0.93034,0.63232 1.20313,0.86719 0.13639,0.11744 0.24189,0.21443 0.3457,0.36133 0.0519,0.0735 0.11261,0.15691 0.14649,0.33008 0.0339,0.17317 -0.0368,0.50356 -0.22461,0.66797 -0.18781,0.16441 -0.35092,0.1751 -0.45899,0.18164 -0.10807,0.007 -0.18647,-0.004 -0.26562,-0.0176 -0.1583,-0.0267 -0.31188,-0.0709 -0.4961,-0.13477 -0.36842,-0.12769 -0.84605,-0.33174 -1.45312,-0.62109 -2.50517,-1.19406 -6.14844,-2.59238 -7.92383,-3.05664 -2.79642,-0.72946 -8.123349,-0.70674 -12.681639,0.0176 l 0.261718,0.24219 c 2.75095,2.53919 8.529984,5.88466 12.451171,7.1914 3.56394,1.18703 9.87819,1.51597 12.95703,0.7207 2.3429,-0.60451 5.52756,-0.5405 7.66407,0.1836 4.95776,1.67794 7.4206,2.54237 8.30468,2.93555 l -0.01,-0.006 c 0.89133,0.37807 1.79023,0.73747 2.69726,1.07617 a 0.65494977,0.65494977 0 0 1 0.002,0 c 0.68534,0.25802 1.19896,0.47254 1.5664,0.65625 0.18372,0.0918 0.3294,0.17161 0.4668,0.27539 0.0687,0.0519 0.13666,0.10588 0.21484,0.21094 0.0782,0.10505 0.19666,0.31333 0.13672,0.59179 -0.0599,0.27847 -0.27807,0.44005 -0.40625,0.5 -0.12817,0.06 -0.22004,0.0713 -0.30664,0.082 -0.1732,0.0215 -0.33526,0.0165 -0.53711,0.002 -0.4037,-0.029 -0.94648,-0.10738 -1.66016,-0.23633 -1.56139,-0.28201 -5.90167,-0.32859 -7.43749,-0.082 -2.37402,0.3821 -5.50595,1.65355 -8.14649,3.29297 2.0711,0.96178 5.88301,1.95976 8.45703,2.13476 2.02896,0.13888 4.00258,-0.20231 7.91406,-1.41211 3.16554,-0.97909 4.9185,-1.49971 6.28711,-1.67383 1.36861,-0.17411 2.3369,0.0436 3.64063,0.4629 0.20607,0.0664 0.36947,0.0798 0.61914,0.30859 0.12483,0.11442 0.28222,0.3883 0.24805,0.6582 -0.0342,0.2699 -0.17256,0.41238 -0.27344,0.50586 -0.20177,0.18697 -0.39378,0.27497 -0.67383,0.41016 -0.28005,0.13519 -0.63939,0.2929 -1.10352,0.49023 -2.34991,0.99936 -6.88125,3.77931 -11.15039,6.88477 -1.16559,0.84757 -2.47215,1.8821 -3.47851,2.73047 -0.50318,0.42418 -0.93292,0.80383 -1.22461,1.08203 -0.004,0.004 -0.005,0.006 -0.01,0.01 0.0288,0.0213 0.0394,0.0321 0.0703,0.0547 0.37005,0.26993 0.88962,0.63132 1.46093,1.01367 a 0.65494977,0.65494977 0 0 1 0.002,0 c 0.57424,0.38482 1.10759,0.73507 1.5,0.98633 0.11151,0.0714 0.17968,0.11231 0.26562,0.16602 0.0691,-0.062 0.12134,-0.10684 0.20899,-0.1875 0.33246,-0.30597 0.78352,-0.73397 1.26757,-1.20313 2.78941,-2.70379 6.14104,-5.32649 9.31055,-7.39062 3.16951,-2.06414 6.1198,-3.57359 8.28125,-4.02735 a 0.65494977,0.65494977 0 0 1 0.002,0 l 0.95704,-0.19922 a 0.65494977,0.65494977 0 0 1 0.43554,0.0586 l 3.08203,1.60156 c 3.16901,1.64494 5.39509,3.04375 8.05078,5.05469 1.10934,0.83985 2.65841,2.08332 4.02735,3.21679 1.36894,1.13348 2.51445,2.10792 2.96289,2.57422 0.14618,0.15247 0.31363,0.29729 0.44141,0.38868 0.007,0.005 0.009,0.005 0.0156,0.01 0.11117,-0.0593 0.25099,-0.1363 0.42578,-0.24023 0.38839,-0.23095 0.89266,-0.54928 1.38867,-0.87305 0.49602,-0.32377 0.98677,-0.65462 1.34961,-0.91406 0.0793,-0.0567 0.12014,-0.092 0.18555,-0.14063 -0.0303,-0.0336 -0.034,-0.0445 -0.0703,-0.082 -0.2884,-0.29828 -0.7568,-0.71715 -1.34571,-1.20117 -1.17781,-0.96804 -2.84672,-2.21382 -4.67578,-3.50195 -3.65811,-2.57627 -7.9947,-5.33796 -10.31445,-6.42969 -0.29043,-0.13645 -0.50298,-0.23271 -0.71875,-0.41797 -0.10788,-0.0926 -0.2582,-0.22031 -0.30664,-0.51367 -0.0484,-0.29336 0.146,-0.61105 0.29687,-0.72852 0.30176,-0.23493 0.51377,-0.24247 0.83594,-0.30469 0.32217,-0.0622 0.7302,-0.11889 1.25391,-0.18164 0.60274,-0.0722 1.13782,-0.0827 2.04687,0.13477 0.90905,0.2175 2.25329,0.64614 4.77735,1.45898 4.1461,1.33592 5.31673,1.53266 8.30859,1.39258 3.10964,-0.14622 6.25068,-0.87304 8.76953,-2.02148 l 0.20899,-0.0957 -1.48438,-0.75 c -3.13537,-1.58406 -4.65635,-2.12599 -6.99023,-2.5039 -2.5267,-0.41059 -6.3893,-0.32507 -8.76172,0.18555 -0.32692,0.0704 -0.50464,0.15325 -0.89453,0.0215 -0.0975,-0.0329 -0.22689,-0.0927 -0.3418,-0.23242 -0.11491,-0.13971 -0.17374,-0.35985 -0.1582,-0.51953 0.0311,-0.31936 0.16862,-0.42058 0.26172,-0.51368 0.37237,-0.37237 0.86335,-0.58142 1.60156,-0.83789 0.66849,-0.23203 2.75581,-1.02035 4.57812,-1.72851 l 0.002,-0.002 c 3.34623,-1.30416 5.41776,-2.07798 6.93945,-2.53321 1.52221,-0.45538 2.52146,-0.58774 3.5918,-0.58984 a 0.65494977,0.65494977 0 0 1 0.002,0 c 1.17801,-0.001 2.715,0.1601 4.08984,0.42187 2.8878,0.55111 7.66909,0.54127 10.22266,-0.006 3.87892,-0.83037 9.14478,-3.48174 13.6543,-6.93164 0.84752,-0.64827 1.13996,-0.96846 1.41796,-1.25781 -0.10059,-0.0102 -0.15413,-0.0107 -0.29492,-0.0254 -0.35524,-0.037 -0.80242,-0.0863 -1.26172,-0.14062 a 0.65494977,0.65494977 0 0 1 -0.002,0 c -3.51393,-0.41878 -9.18123,-0.12667 -11.64648,0.55859 -1.74483,0.48483 -6.28978,2.30255 -7.55078,3.00391 -0.3969,0.22111 -0.70917,0.37644 -0.99219,0.47265 -0.14151,0.0481 -0.27337,0.0873 -0.45508,0.0899 -0.18171,0.003 -0.51491,-0.0756 -0.69141,-0.36133 -0.0663,-0.10662 -0.11705,-0.20944 -0.15039,-0.34571 -0.0169,-0.0689 -0.0326,-0.14615 -0.0234,-0.26562 0.009,-0.11947 0.0492,-0.3296 0.25976,-0.49805 a 0.65494977,0.65494977 0 0 1 0.043,-0.0312 c 59.10623,-39.84128 -58.90031,39.60784 0.25,-0.16797 59.15031,-39.7758 -58.94431,39.54037 0.25,-0.16992 59.19431,-39.71028 -58.98629,39.47675 0.25195,-0.16797 59.23825,-39.64471 -59.03211,39.41308 0.25,-0.16601 59.28211,-39.5791 -59.07394,39.34546 0.25196,-0.16797 59.3259,-39.51343 -59.11962,39.27974 0.25,-0.16797 59.36961,-39.44771 -59.16131,39.21593 0.25195,-0.16602 58.88184,-39.02969 -55.54615,36.72782 0.25,-0.16601 l 0.002,-0.002 c 1.8091,-1.2095 3.61421,-2.42421 5.41602,-3.64454 4.72273,-3.19626 5.73681,-3.62468 11.20508,-4.73437 7.96167,-1.61454 13.38423,-5.37542 18.14648,-12.59961 0.43248,-0.65627 0.80394,-1.22246 1.11133,-1.69727 -0.19108,0.0106 -0.3354,0.0149 -0.55078,0.0293 -2.77555,0.1874 -4.72853,0.75015 -7.75586,2.24805 v -0.002 c -3.03974,1.50508 -4.78335,2.76391 -9.48047,6.85743 -0.47593,0.41463 -0.80354,0.67752 -1.10352,0.8457 -0.075,0.042 -0.1484,0.0812 -0.25,0.11328 -0.10159,0.0321 -0.24349,0.0839 -0.48632,0.002 -0.24283,-0.0819 -0.45295,-0.40254 -0.47461,-0.58984 -0.0217,-0.1873 0.0159,-0.28485 0.0449,-0.37305 0.11617,-0.35279 0.31029,-0.61188 0.625,-1.04492 0.31471,-0.43304 0.74428,-0.98025 1.29492,-1.64062 a 0.65494977,0.65494977 0 0 1 0.002,0 c 0.97927,-1.17355 2.71657,-3.41801 3.82813,-4.94727 3.07963,-4.23338 3.59836,-4.69551 8.44922,-7.50391 2.56819,-1.48679 3.53583,-2.23655 5.63867,-4.36914 3.02472,-3.06726 4.19443,-4.85949 5.86523,-8.97461 0.63116,-1.554 1.25494,-3.52254 1.65235,-5.07812 0.1633,-0.63922 0.25713,-1.13348 0.33007,-1.56641 -0.35532,0.18614 -0.75131,0.39485 -1.20703,0.64844 -5.88737,3.2744 -8.07265,5.59464 -11.45507,12.16992 -0.53114,1.03262 -0.95062,1.81646 -1.26758,2.36328 -0.15848,0.27342 -0.28916,0.48709 -0.40625,0.6543 -0.0585,0.0836 -0.1127,0.1548 -0.17774,0.22656 -0.065,0.0718 -0.10445,0.15837 -0.34961,0.2461 -0.12257,0.0439 -0.3582,0.0695 -0.5625,-0.043 -0.20429,-0.11243 -0.29189,-0.28942 -0.32617,-0.39649 -0.0685,-0.21414 -0.0382,-0.29793 -0.0273,-0.39257 0.0217,-0.18929 0.0684,-0.37162 0.14062,-0.6211 0.14435,-0.49894 0.3925,-1.22154 0.75,-2.19336 0.96634,-2.62804 1.28729,-3.68726 2.2168,-7.35937 1.18829,-4.69385 1.87595,-5.99943 4.93164,-9.36914 3.45344,-3.81178 5.0333,-6.93037 6.38867,-12.63282 0.76114,-3.2029 1.0669,-7.81335 0.77735,-10.17187 l -0.35352,0.29492 c -3.0137,2.51158 -6.46957,7.60687 -7.35352,10.75 -0.23052,0.82102 -0.6892,2.83145 -0.99609,4.38867 -0.31128,1.57443 -0.59686,2.99899 -0.66406,3.29493 a 0.65494977,0.65494977 0 0 1 0,0.002 c -0.0403,0.17647 -0.0696,0.30504 -0.14453,0.4668 -0.0375,0.0809 -0.0561,0.1888 -0.27735,0.33593 -0.1106,0.0736 -0.31682,0.13925 -0.50976,0.10157 -0.19295,-0.0377 -0.31813,-0.1445 -0.38672,-0.22266 -0.13718,-0.15631 -0.14696,-0.24382 -0.17188,-0.32617 -0.0249,-0.0823 -0.0403,-0.15969 -0.0547,-0.24414 -0.0287,-0.16892 -0.0517,-0.3697 -0.0723,-0.62696 -0.0823,-1.02902 -0.13549,-2.93282 -0.18555,-5.98828 -0.0646,-3.96683 -0.0709,-6.20893 0.13086,-7.85547 0.20177,-1.64653 0.63894,-2.69041 1.36328,-4.04297 4.17111,-7.7918 4.76371,-15.851 1.81055,-24.07421 -3.75264,6.7599 -4.33245,8.81677 -4.50586,16.00195 l -0.11914,4.88867 a 0.65494977,0.65494977 0 0 1 -1.2793,0.17774 l -0.42578,-1.38282 c -0.23298,-0.75771 -0.75165,-2.42115 -1.14843,-3.68945 -2.14398,-6.84766 -2.35559,-9.37429 -1.16211,-13.80664 0.65862,-2.44289 0.65712,-2.45258 0.66211,-5.58203 0.005,-3.42554 -0.0935,-4.01264 -1.22852,-7.337893 -0.46052,-1.349792 -1.71947,-3.724709 -2.94922,-5.703125 -0.61487,-0.989207 -1.22529,-1.88951 -1.71875,-2.52539 -0.14984,-0.193089 -0.25696,-0.302232 -0.3789,-0.439453 -0.1107,0.493469 -0.22562,1.205305 -0.32227,2.070312 -0.1995,1.785434 -0.3365,4.150246 -0.33008,6.367188 0.0119,4.348231 0.25501,5.642981 1.63086,8.677731 0.18854,0.41523 0.32096,0.7442 0.39649,1.03321 0.0378,0.14474 0.066,0.27615 0.0605,0.44922 -0.005,0.17306 -0.0673,0.48333 -0.36133,0.66601 a 0.65494977,0.65494977 0 0 1 -0.002,0 c -0.2308,0.14218 -0.61034,0.14145 -0.83008,0.0332 -0.21974,-0.10824 -0.34633,-0.24953 -0.47265,-0.40625 -0.25265,-0.31342 -0.49273,-0.73817 -0.81446,-1.36523 -0.22944,-0.44804 -0.75705,-1.32963 -1.12304,-1.86914 a 0.65494977,0.65494977 0 0 1 -0.002,0 c -1.05422,-1.55774 -2.15083,-3.83585 -2.91015,-6.019533 -2.14068,-6.148469 -6.21935,-10.937508 -11.47657,-13.527343 -0.57996,-0.285717 -1.94122,-0.747348 -3.12695,-1.078125 -0.52884,-0.147529 -0.99788,-0.260641 -1.38672,-0.341797 0.0737,0.26088 0.14377,0.518138 0.25,0.851562 0.29784,0.934766 0.69367,2.04945 0.99024,2.75 1.95792,4.622049 5.14196,8.25391 10.92187,12.38086 2.081,1.486416 3.87279,2.900776 4.79492,3.804686 0.57129,0.5601 1.47256,1.83241 2.49024,3.3418 1.01768,1.50939 2.07663,3.18784 2.71875,4.36523 a 0.65494977,0.65494977 0 0 1 0.004,0.008 c 0.12999,0.24591 0.10073,0.49988 0.0254,0.67968 -0.0753,0.1798 -0.19925,0.31736 -0.36133,0.41602 -0.27301,0.16618 -0.48666,0.0985 -0.59571,0.0625 -0.10904,-0.036 -0.17083,-0.075 -0.23046,-0.11328 -0.11928,-0.0767 -0.21841,-0.16097 -0.32813,-0.26172 -0.21944,-0.20151 -0.46744,-0.46762 -0.7207,-0.77539 -2.24755,-2.72979 -5.58849,-5.01683 -9.12305,-6.23438 -0.99821,-0.34406 -2.43288,-0.71411 -3.67773,-0.97265 -0.58183,-0.12085 -1.10701,-0.21112 -1.54102,-0.27149 0.27034,0.45507 0.6268,1.01577 1.08398,1.67578 1.02507,1.47985 2.3737,3.2536 3.39258,4.39258 3.38254,3.77903 5.44879,5.15541 10.13672,6.75 1.62743,0.55384 2.55986,0.88415 3.2168,1.20703 0.65694,0.32289 1.05477,0.69421 1.37695,1.12305 0.51158,0.68316 0.91398,1.38339 1.38672,2.58594 0.47274,1.20254 1.03479,2.92663 1.92578,5.77929 0.46626,1.49358 0.81473,2.66692 1.04492,3.53321 0.1151,0.43314 0.20035,0.78924 0.25782,1.07812 0.0575,0.28888 0.0954,0.48498 0.0801,0.73242 -0.008,0.12373 0.028,0.31588 -0.25781,0.5625 -0.14292,0.12332 -0.38698,0.18493 -0.55078,0.16211 -0.16379,-0.0228 -0.25756,-0.0835 -0.32617,-0.13086 -0.27446,-0.18945 -0.33036,-0.33505 -0.47266,-0.56054 -0.28459,-0.45098 -0.65777,-1.16577 -1.15625,-2.18946 -1.96882,-4.04344 -3.9114,-5.96524 -8.64258,-8.52343 a 0.65494977,0.65494977 0 0 1 -0.002,0 c -0.73145,-0.39574 -2.0408,-0.94791 -3.13476,-1.34766 -0.29055,-0.10617 -0.48799,-0.16162 -0.73438,-0.24219 0.0507,0.1093 0.0789,0.17715 0.13672,0.29883 0.37446,0.78835 0.88949,1.81895 1.43945,2.88477 1.09993,2.13163 2.3699,4.44831 2.86719,5.18554 1.87416,2.7766 4.86806,5.3876 8.5332,7.40235 1.58,0.86889 2.86751,1.91643 3.39649,3.03125 0.15883,0.33493 0.20539,0.66455 0.28711,1.17187 0.0817,0.50733 0.16107,1.14307 0.23828,1.86914 0.15441,1.45214 0.29649,3.25827 0.40429,5.02539 0.10781,1.76713 0.18032,3.49235 0.19336,4.79102 0.007,0.64933 -4.9e-4,1.1894 -0.0293,1.59375 -0.0144,0.20217 -0.0315,0.36545 -0.0684,0.52734 -0.0185,0.081 -0.036,0.1593 -0.0996,0.27735 -0.0318,0.059 -0.0749,0.13295 -0.16992,0.21484 -0.0951,0.0819 -0.26735,0.16797 -0.45118,0.16797 -0.32903,0 -0.49554,-0.17648 -0.58789,-0.28516 -0.0924,-0.10867 -0.14074,-0.20443 -0.18554,-0.30469 -0.0896,-0.2005 -0.14791,-0.41803 -0.1836,-0.66015 -0.60656,-4.10778 -1.84427,-7.09611 -4.26757,-10.30078 -1.56065,-2.06219 -3.06557,-3.35283 -5.3418,-4.8125 0.0252,0.37575 0.0406,0.72359 0.12109,1.28515 0.23263,1.6233 0.68352,3.87465 1.26172,6.1211 1.16166,4.51242 2.41682,6.89232 5.57227,10.55078 0.88116,1.02215 1.80379,2.1302 2.1289,2.57226 0.99927,1.35747 1.11561,3.44387 0.68164,6.05664 -0.43396,2.61278 -1.46701,5.78426 -3.05664,9.32227 a 0.65494977,0.65494977 0 0 1 0,0.002 c -0.19242,0.42749 -0.37965,0.85234 -0.52539,1.19141 -0.14574,0.33907 -0.26315,0.63162 -0.26758,0.64453 -0.0606,0.17765 -0.14886,0.32822 -0.27539,0.46289 -0.12715,0.13535 -0.2964,0.29883 -0.64453,0.29883 -0.3063,0 -0.64668,-0.27386 -0.74414,-0.5 -0.0974,-0.22614 -0.0965,-0.40613 -0.0879,-0.5918 0.0171,-0.37133 0.11505,-0.78048 0.2793,-1.28125 1.25647,-3.84152 0.57286,-10.45158 -1.45508,-14 -0.31764,-0.55621 -1.08211,-1.71643 -1.76953,-2.70898 -0.21977,-0.31732 -0.39675,-0.55776 -0.58594,-0.82031 -0.0757,0.31321 -0.14619,0.59333 -0.22851,0.97656 a 0.65494977,0.65494977 0 0 1 0,0.002 c -1.81547,8.42348 -1.63922,12.48685 0.79882,18.77344 0.83505,2.15287 1.22481,3.80863 1.00391,5.47461 -0.2209,1.66598 -1.03374,3.25244 -2.42383,5.32031 -0.98135,1.46063 -2.72928,3.61548 -4.25195,5.35352 -0.76134,0.86902 -1.46102,1.62796 -1.99024,2.14648 -0.2646,0.25926 -0.47684,0.45388 -0.68164,0.59961 -0.1024,0.0729 -0.16848,0.15087 -0.41992,0.19922 -0.12572,0.0242 -0.37599,0.0294 -0.58789,-0.14844 -0.21189,-0.17782 -0.24805,-0.41842 -0.24805,-0.54492 0,-0.29363 0.0624,-0.34981 0.11914,-0.48633 0.0567,-0.13651 0.12993,-0.28606 0.2168,-0.45312 0.17374,-0.33412 0.40429,-0.73185 0.66016,-1.13282 0.90109,-1.41574 2.61168,-5.45799 2.99023,-7.0664 0.23008,-0.97521 0.29437,-2.87211 0.17383,-4.85938 -0.12054,-1.98727 -0.41564,-4.10082 -0.82422,-5.61328 -0.059,-0.21867 -0.10267,-0.41581 -0.15234,-0.625 -0.29334,0.45358 -0.50421,0.75675 -1.08594,1.73438 -4.00626,6.7325 -4.79423,9.24346 -5.21289,16.61523 -0.15505,2.72474 -0.4261,4.59435 -1.10742,6.14649 -0.68132,1.55214 -1.76769,2.72148 -3.38867,4.01171 -1.17404,0.93432 -3.36469,2.40604 -5.43555,3.71289 -1.03543,0.65343 -2.03663,1.26219 -2.85938,1.73438 -0.82274,0.47219 -1.39856,0.79562 -1.85937,0.93945 -0.12495,0.0388 -0.23745,0.0685 -0.36914,0.082 -0.13169,0.0136 -0.31014,0.0568 -0.57813,-0.13867 -0.13399,-0.0977 -0.25246,-0.28565 -0.28125,-0.44922 -0.0288,-0.16356 0.001,-0.285 0.0312,-0.37304 0.0596,-0.17609 0.13069,-0.26259 0.20508,-0.35352 0.29759,-0.3637 0.77202,-0.73434 1.5,-1.25 4.22909,-2.99455 6.31728,-6.61801 7.96485,-13.97266 0.17176,-0.76825 0.32856,-1.57498 0.4414,-2.24609 0.0871,-0.51795 0.11462,-0.82313 0.13672,-1.07031 l -0.0918,0.0625 c -3.36511,2.25615 -7.04166,5.64047 -9.04297,8.30469 -1.83907,2.45011 -2.42889,3.61323 -4.42382,8.71484 -0.9058,2.31658 -1.4276,3.60558 -2.0586,4.53906 -0.631,0.93349 -1.37352,1.4367 -2.45898,2.04883 -0.98837,0.55821 -3.79295,1.69808 -7.0957,2.97461 -3.30276,1.27653 -7.01805,2.6377 -9.54688,3.46484 -1.14691,0.37346 -3.17174,1.09455 -4.45898,1.58789 l -2.36719,0.90821 a 0.65494977,0.65494977 0 0 1 -0.43945,0.01 l -3.99805,-1.32422 c -2.21388,-0.73259 -4.82491,-1.67468 -5.89844,-2.13476 -0.97753,-0.41894 -3.77521,-1.5062 -6.1543,-2.39063 -2.27539,-0.84471 -4.4834,-1.76203 -6.23828,-2.57226 -0.87744,-0.40512 -1.64077,-0.78217 -2.24804,-1.11524 -0.60728,-0.33306 -1.04157,-0.59335 -1.35352,-0.89062 a 0.65494977,0.65494977 0 0 1 -0.002,0 c -0.82053,-0.78329 -1.49551,-2.25861 -2.91406,-5.74024 h 0.002 c -1.72659,-4.2341 -2.97548,-6.34469 -5.35352,-9.06836 -1.18077,-1.35257 -6.0829,-5.70175 -7.64062,-6.77148 l -0.24805,-0.17187 c 0.0844,1.7051 0.71049,4.34938 1.66211,6.9746 1.01694,2.80542 2.35955,5.54737 3.47461,6.9336 0.42795,0.53286 1.67276,1.68231 2.69727,2.45117 a 0.65494977,0.65494977 0 0 1 0.002,0 c 0.52216,0.39263 1.00406,0.75623 1.36328,1.02734 0.17961,0.13556 0.32849,0.24874 0.43555,0.33008 0.0535,0.0407 0.0965,0.0728 0.1289,0.0977 0.0324,0.0249 0.0258,0.0162 0.084,0.0664 0.16424,0.14185 0.23656,0.35665 0.24414,0.50196 0.008,0.14531 -0.0231,0.24591 -0.0547,0.32812 -0.0629,0.16383 -0.14655,0.26965 -0.25,0.3711 -0.28293,0.27753 -0.48743,0.20998 -0.60156,0.19922 -0.11414,-0.0108 -0.19551,-0.0337 -0.28516,-0.0606 -0.1793,-0.0537 -0.37581,-0.13143 -0.61328,-0.23633 -0.47495,-0.2098 -1.1013,-0.52745 -1.84375,-0.93164 -2.36382,-1.28771 -3.01296,-1.69885 -5.97461,-3.81445 -2.14168,-1.52933 -4.37598,-3.79594 -5.26172,-5.45899 a 0.65494977,0.65494977 0 0 1 0,-0.002 l -0.63672,-1.19727 a 0.65494977,0.65494977 0 0 1 -0.0762,-0.28711 l -0.1289,-4.33593 c -0.13853,-4.61221 -0.32223,-5.81256 -1.33204,-8.65821 -0.42663,-1.20033 -1.50428,-3.51228 -2.603512,-5.66406 -0.944373,-1.84865 -1.797698,-3.29357 -2.355469,-4.13476 -0.01833,0.056 -0.02685,0.0754 -0.04687,0.13671 -0.832342,2.54863 -1.407983,7.04085 -1.193359,8.72657 0.540756,4.23822 1.411412,6.76037 3.097656,9.09961 0.634503,0.88077 0.969119,1.33836 1.158199,1.7207 0.0473,0.0956 0.0886,0.18681 0.11524,0.32226 0.0266,0.13546 0.0348,0.3581 -0.0937,0.56641 -0.12859,0.20831 -0.33936,0.30148 -0.466798,0.33399 -0.127438,0.0325 -0.210705,0.0312 -0.285156,0.0312 -0.287159,0 -0.366607,-0.0844 -0.462891,-0.14258 -0.09628,-0.0582 -0.180976,-0.12158 -0.271484,-0.19532 -0.181018,-0.14746 -0.38274,-0.33767 -0.615235,-0.56835 -0.464989,-0.46137 -1.040948,-1.08359 -1.646484,-1.77344 -1.211073,-1.3797 -2.533041,-3.01321 -3.289063,-4.15039 a 0.65494977,0.65494977 0 0 1 -0.002,-0.002 c -0.461348,-0.69652 -1.386817,-2.38632 -2.142578,-3.88671 -0.829409,-1.64718 -1.314355,-2.79512 -1.458984,-3.9043 -0.14463,-1.10918 0.08605,-2.11893 0.55664,-3.33789 2.250755,-5.83359 2.385586,-6.42952 2.34375,-10.92188 -0.01773,-1.85112 -0.165061,-4.39867 -0.316406,-5.55078 -0.152442,-1.16268 -0.407035,-2.60929 -0.642578,-3.75 -0.05979,-0.28958 -0.108818,-0.47253 -0.164063,-0.71289 -0.214471,0.32608 -0.428126,0.6495 -0.68164,1.0625 -0.709612,1.15604 -1.484356,2.52192 -1.796875,3.20117 -1.75348,3.81343 -2.324211,8.07267 -1.603516,11.81836 0.192142,0.99984 0.330073,1.75894 0.410156,2.30469 0.04004,0.27288 0.06666,0.4902 0.07617,0.67578 0.0048,0.0928 0.007,0.17705 -0.002,0.27344 -0.009,0.0964 0.0049,0.20561 -0.144531,0.41406 -0.0747,0.10423 -0.231563,0.23597 -0.421875,0.27539 -0.190312,0.0394 -0.354973,-0.0115 -0.453125,-0.0605 -0.196304,-0.0981 -0.24367,-0.18226 -0.300781,-0.25585 -0.114222,-0.14718 -0.192525,-0.29415 -0.294922,-0.49415 -0.204795,-0.39999 -0.466719,-0.98689 -0.808594,-1.78125 -1.983546,-4.60639 -3.380815,-9.21505 -3.5625,-11.99804 -0.05719,-0.88284 0.002,-1.64126 0.478516,-2.53125 0.476512,-0.89 1.308376,-1.94473 2.830078,-3.83008 3.212809,-3.98193 4.046924,-5.45002 5.058594,-8.92578 0.749666,-2.57119 1.384484,-6.53062 1.476562,-8.76758 l -0.292969,0.20313 c -2.522774,1.74398 -6.027028,5.76148 -7.1875,8.19726 -0.484641,1.01791 -1.463325,4.61835 -1.771484,6.71094 -0.03552,0.24103 -0.09288,0.45787 -0.181641,0.6582 -0.04438,0.10017 -0.09338,0.19556 -0.185547,0.30469 -0.09217,0.10913 -0.258857,0.28711 -0.58789,0.28711 -0.181724,0 -0.344849,-0.0848 -0.433594,-0.16016 -0.08875,-0.0754 -0.128159,-0.13969 -0.15625,-0.18945 -0.05618,-0.0995 -0.06853,-0.15466 -0.08203,-0.20703 -0.027,-0.10475 -0.03641,-0.18805 -0.04687,-0.28906 -0.02092,-0.20204 -0.03321,-0.45798 -0.04102,-0.77735 -0.01562,-0.63873 -0.01145,-1.5221 0.0098,-2.55469 0.04243,-2.06517 0.152106,-4.72207 0.314453,-7.12109 0.144801,-2.14376 0.313827,-3.4907 0.916016,-4.58203 0.602188,-1.09133 1.589462,-1.77374 3.09375,-2.60352 5.486567,-3.02693 8.205713,-5.86111 11.0625,-11.53125 0.735612,-1.4603 1.41213,-2.90548 1.875,-3.97461 0.101075,-0.23346 0.143909,-0.35952 0.222656,-0.55273 -0.270092,0.0894 -0.517706,0.16912 -0.828125,0.27734 -6.105619,2.12476 -9.947111,5.42982 -12.367188,10.59375 -0.23015,0.49112 -0.416193,0.85178 -0.574218,1.11524 -0.07901,0.13173 -0.147069,0.23752 -0.236329,0.34179 -0.04463,0.0521 -0.09387,0.10622 -0.175781,0.16602 -0.08191,0.0598 -0.209996,0.1498 -0.443359,0.14648 -0.233363,-0.003 -0.486183,-0.18406 -0.576172,-0.32617 -0.08999,-0.14211 -0.102115,-0.23904 -0.113281,-0.31836 -0.02233,-0.15862 -0.01246,-0.26801 0.002,-0.39843 0.02883,-0.26085 0.094,-0.57856 0.191406,-0.98047 0.389624,-1.60766 1.315543,-4.51906 2.609375,-8.05664 0.762002,-2.08371 1.225882,-3.27558 1.884766,-4.11914 0.658884,-0.84357 1.506677,-1.21048 2.65625,-1.54883 5.440482,-1.60073 7.09505,-2.48496 10.173826,-5.44531 1.12832,-1.08431 2.97925,-3.32032 4.44531,-5.27344 0.73304,-0.97656 1.37716,-1.88953 1.79102,-2.54688 0.0184,-0.0292 0.0196,-0.0382 0.0371,-0.0664 -0.26971,0.0381 -0.52542,0.0715 -0.83984,0.125 -6.388401,1.08911 -9.297842,2.66214 -13.279301,7.17578 -0.382303,0.43338 -0.667772,0.73094 -0.923828,0.93555 -0.128029,0.1023 -0.216535,0.19751 -0.484375,0.25781 -0.133921,0.0302 -0.380821,0.0375 -0.591797,-0.11719 -0.210977,-0.15473 -0.274872,-0.38123 -0.289063,-0.51367 -0.02838,-0.26489 0.03122,-0.37967 0.08398,-0.5332 0.05277,-0.15354 0.122912,-0.31843 0.214843,-0.50977 0.183864,-0.38269 0.452539,-0.86954 0.810547,-1.47266 2.972896,-5.0064 4.381227,-6.59109 8.390625,-9.441403 7.769554,-5.522985 10.499574,-8.914392 12.287114,-15.19336 0.11889,-0.417737 0.15522,-0.60957 0.21093,-0.853515 z m 20.06836,7.314453 c -0.43337,0.03596 -0.74361,0.135828 -1.07031,0.302734 -0.99257,0.507125 -1.54677,1.338852 -1.68164,2.210938 -0.13487,0.872085 0.1407,1.781632 0.92969,2.49414 0.72879,0.658554 2.36586,1.437688 4.39843,2.039063 2.03257,0.601375 4.47107,1.059774 6.88282,1.248047 1.45604,0.113287 2.39571,0.224653 2.97851,0.404297 0.1457,0.04491 0.27043,0.07838 0.43946,0.208984 0.0845,0.0653 0.19641,0.166448 0.26171,0.363281 0.0653,0.196834 0.0174,0.464555 -0.0742,0.609371 -0.1832,0.28965 -0.34423,0.30857 -0.48633,0.36329 -0.14211,0.0547 -0.29067,0.0946 -0.46875,0.13281 -3.28327,0.70767 -5.45159,3.33125 -5.44336,6.54297 0.0121,5.10314 4.46279,10.25959 9.99804,11.44531 1.85665,0.3984 3.02137,0.38665 5.61719,-0.0684 3.08287,-0.54033 5.86089,-2.67899 7.58399,-5.375 1.72309,-2.69601 2.36519,-5.90081 1.36523,-8.5293 -0.31211,-0.8202 -1.15347,-1.85835 -2.10547,-2.63672 -0.952,-0.77836 -2.04529,-1.27637 -2.59765,-1.28125 a 0.65494977,0.65494977 0 0 1 -0.002,0 c -0.36236,-0.004 -0.67824,-0.10237 -0.95117,-0.30078 -0.13646,-0.0992 -0.27286,-0.22534 -0.36328,-0.437497 -0.0904,-0.21216 -0.0861,-0.546249 0.0547,-0.775391 a 0.65494977,0.65494977 0 0 1 0.004,-0.0059 c 0.13141,-0.208223 0.23365,-0.235046 0.3086,-0.273437 0.075,-0.03839 0.13688,-0.06105 0.20117,-0.08203 0.12857,-0.04197 0.26503,-0.07278 0.42187,-0.103515 0.3137,-0.06147 0.70192,-0.1132 1.11719,-0.146485 3.29787,-0.261595 8.49426,-1.221412 10.4961,-1.910156 1.24061,-0.427135 2.15888,-1.024382 2.73242,-1.691406 0.57353,-0.667024 0.82155,-1.385674 0.7539,-2.201172 -0.0476,-0.574703 -0.15119,-0.886727 -0.35156,-1.154297 -0.20037,-0.267569 -0.55266,-0.53398 -1.19531,-0.857422 a 0.65494977,0.65494977 0 0 1 0,-0.002 c -0.88637,-0.44668 -1.46747,-0.600527 -2.65039,-0.453125 -1.18293,0.147402 -2.93859,0.652607 -5.8418,1.609375 -5.96866,1.96682 -8.62981,2.554739 -11.77734,2.574219 -3.40903,0.0202 -4.84577,-0.255314 -10.10157,-1.953125 -5.62398,-1.817762 -8.08181,-2.418507 -9.38281,-2.310547 z m 25.88672,12.263675 c 0.91193,0.0156 1.61248,0.67003 2.16211,1.5039 0.54963,0.83388 0.9356,1.92711 0.93945,3.10547 0.0132,3.8166 -2.93328,7.16842 -7.07422,8.24219 -3.40613,0.88291 -7.27035,-0.0706 -9.92382,-2.43945 -1.55207,-1.38586 -2.47202,-3.28285 -2.69922,-5.0918 -0.2272,-1.80896 0.25541,-3.61691 1.6875,-4.56836 a 0.65494977,0.65494977 0 0 1 0.002,0 c 0.45036,-0.29882 0.79906,-0.56508 1.35352,-0.48633 0.27722,0.0394 0.52708,0.21094 0.67968,0.38672 0.15261,0.17578 0.24913,0.35972 0.34766,0.56641 l 0.12891,0.27343 1.94922,0.12696 c 3.06137,0.20026 5.38807,0.16604 7.43164,-0.10352 0.84317,-0.11132 1.27022,-0.19448 1.36523,-0.23437 0.0475,-0.02 0.0119,0.003 0.0215,-0.01 0.01,-0.0123 0.0545,-0.0882 0.125,-0.23633 0.29688,-0.62237 0.89512,-1.04556 1.50391,-1.03515 z m 7.125,12.85156 c -0.0493,0.0629 -0.1478,0.21871 -0.29687,0.45508 a 0.65494977,0.65494977 0 0 1 -0.002,0 c -0.86245,1.36519 -2.72473,3.14952 -4.16015,4.04883 0.88703,0.21105 1.96412,0.49053 3.48632,0.9414 1.90924,0.56551 3.97105,1.21256 5.28516,1.67774 7.0188,2.48323 14.50732,6.65514 20.10352,11.20117 a 0.65494977,0.65494977 0 0 1 0.002,0 c 0.69675,0.56717 1.81962,1.47312 2.49023,2.01562 2.0321,1.64218 4.63649,4.09121 5.89844,5.5586 l 2.26563,2.63476 c -3.71395,-8.50071 -8.97579,-14.68227 -17.8125,-20.64258 -4.8695,-3.2838 -11.72822,-6.53687 -15.95118,-7.60156 -0.90803,-0.22884 -1.31999,-0.27881 -1.30859,-0.28906 z m -27.91992,0.004 c -0.34582,0.017 -1.27471,0.27948 -3.04883,0.8457 -7.0641,2.25591 -11.92087,4.96694 -19.25,10.75 -5.33678,4.21107 -10.37024,10.64235 -12.89453,16.45898 -0.16719,0.38535 -0.24035,0.56212 -0.38867,0.90625 3.40232,-3.92797 8.00994,-8.29172 12.20898,-11.44726 8.53048,-6.41119 14.87337,-9.4103 26.83789,-12.69141 0.5255,-0.14417 0.93741,-0.26701 1.34571,-0.38867 -0.62299,-0.38593 -1.34991,-0.95808 -2.14063,-1.68945 -0.89757,-0.8302 -1.74807,-1.70007 -2.20312,-2.35743 -0.1578,-0.22749 -0.25697,-0.3429 -0.28711,-0.36523 -0.0302,-0.0223 -0.007,-0.03 -0.17969,-0.0215 z m 14.72266,10.29296 c -1.74756,-0.0263 -3.4609,0.0215 -5.08204,0.14844 -11.13022,0.87012 -20.2455,4.15711 -29.70117,10.71875 a 0.65494977,0.65494977 0 0 1 0,0.002 c -3.91269,2.71354 -9.29959,7.83893 -12.24023,11.64649 -0.60104,0.77866 -1.04586,1.36143 -1.32031,1.79101 -0.27445,0.42959 -0.35074,0.68482 -0.35157,0.79688 -8.2e-4,0.11206 0.0254,0.20257 0.26368,0.45703 0.23832,0.25446 0.6685,0.60409 1.25976,1.07031 1.76677,1.39271 8.55762,7.49468 11.39649,10.22657 7.27363,6.99709 18.38228,12.41433 28.42968,13.85937 1.20332,0.17319 1.84531,0.14978 2.41797,0.6543 0.28633,0.25226 0.41256,0.642 0.4375,0.96679 0.0249,0.3248 -0.005,0.64806 -0.0332,1.06446 -0.15661,2.28241 -1.00003,5.10232 -2.63477,9.00976 -3.56776,8.52732 -4.45293,11.78975 -4.29492,15.58008 0.11108,2.66395 1.38282,5.26236 3.58789,7.25195 1.0015,0.90453 3.25885,1.9124 5.24414,2.25586 4.99167,0.86303 10.27528,-2.28384 11.78125,-6.99023 1.24322,-3.88422 0.65427,-7.95791 -2.29883,-14.94336 -1.43176,-3.38674 -2.58561,-6.60192 -3.29882,-9.08203 -0.35661,-1.24006 -0.60306,-2.29427 -0.71875,-3.11914 -0.0579,-0.41244 -0.085,-0.76504 -0.0664,-1.08203 0.0186,-0.317 0.0429,-0.63041 0.34375,-0.93164 a 0.65494977,0.65494977 0 0 1 0.004,-0.004 c 0.13177,-0.12965 0.18073,-0.12979 0.2246,-0.14844 0.0439,-0.0186 0.0762,-0.0294 0.10743,-0.0391 0.0625,-0.0192 0.12218,-0.0331 0.1914,-0.0488 0.13845,-0.0314 0.31132,-0.0637 0.51758,-0.0996 0.41252,-0.0717 0.95389,-0.1549 1.53711,-0.23047 6.34888,-0.82241 13.10152,-3.1548 18.28906,-6.30859 5.72396,-3.47964 8.03862,-5.23383 12.95313,-9.82031 a 0.65494977,0.65494977 0 0 1 0.002,-0.002 c 30.78596,-28.61264 -30.38762,28.13366 0.45313,-0.41992 30.84075,-28.55357 -30.44231,28.07449 0.45312,-0.41992 30.89543,-28.4944 -30.49491,28.01716 0.45508,-0.41797 30.94999,-28.43513 -30.54741,27.95778 0.45703,-0.41797 31.00444,-28.37574 -30.60175,27.8983 0.45703,-0.41797 31.05878,-28.31626 -30.65597,27.84066 0.45703,-0.41601 31.11301,-28.25668 -30.70812,27.78097 0.45899,-0.41602 31.16711,-28.19698 -30.76212,27.72313 0.45898,-0.41406 31.22111,-28.13719 -30.816,27.66323 0.45899,-0.41406 31.27498,-28.07729 -30.86781,27.60517 0.46093,-0.41211 31.32875,-28.01729 -30.92146,27.54507 0.46094,-0.41211 31.3824,-27.95718 -30.97304,27.48681 0.46289,-0.41016 31.43593,-27.89697 -31.02646,27.42651 0.46289,-0.41015 31.48935,-27.83666 -31.07976,27.36609 0.46289,-0.41016 31.54265,-27.77625 -31.13099,27.30753 0.46485,-0.4082 31.59583,-27.71573 -31.18407,27.24886 0.46484,-0.40625 a 0.65494977,0.65494977 0 0 1 0.004,-0.002 c 0.94982,-0.82251 1.81303,-1.59822 2.43359,-2.17773 0.31028,-0.28976 0.55941,-0.53156 0.72266,-0.69922 0.003,-0.003 0.003,-0.003 0.006,-0.006 -0.0134,-0.0335 -7.6e-4,0.004 -0.0215,-0.0332 -0.1031,-0.18589 -0.27254,-0.44621 -0.48828,-0.75195 -0.43148,-0.61148 -1.05513,-1.40901 -1.78516,-2.28321 -1.46004,-1.7484 -3.34736,-3.81228 -5.0039,-5.4082 -7.60726,-7.32753 -15.10544,-11.69284 -25.04883,-14.58594 -4.31925,-1.25702 -9.87256,-2.00122 -15.11523,-2.08008 z m -8.19336,7.73438 c 0.0972,0.003 0.21172,0.006 0.38281,0.0977 0.17108,0.0915 0.3789,0.38545 0.3789,0.6289 0,8.3e-4 -0.007,0.10748 -0.0137,0.14063 -0.007,0.0332 -0.0149,0.0567 -0.0215,0.0762 -0.0132,0.0389 -0.024,0.0626 -0.0332,0.082 -0.0185,0.0389 -0.0332,0.061 -0.0469,0.084 -0.0274,0.046 -0.0533,0.0871 -0.0859,0.13477 -0.0653,0.0954 -0.15179,0.21356 -0.25586,0.35352 -0.20812,0.27991 -0.48815,0.64598 -0.79882,1.0371 -1.1197,1.40901 -2.93152,4.9818 -3.19727,6.16797 -0.23459,1.04506 -0.1829,4.31469 0.0957,5.41993 1.00319,3.98066 4.19509,7.1749 8.10547,8.13085 1.1944,0.29246 5.06113,0.23653 6.31641,-0.10156 3.98386,-1.07434 7.13933,-4.70506 8.13672,-9.51172 0.24775,-1.19494 0.21589,-4.97184 -0.043,-6.10156 -0.0542,-0.23638 -0.0956,-0.46267 0.0195,-0.75781 0.1151,-0.29514 0.53009,-0.53482 0.80273,-0.5293 0.54528,0.0111 0.80147,0.26895 1.1543,0.56055 0.70567,0.58319 1.50116,1.52848 2.00781,2.57031 0.69917,1.43715 0.95939,3.38827 0.89649,5.38477 -0.0629,1.99649 -0.45838,4.02848 -1.22657,5.59961 -2.19327,4.48232 -6.34107,7.88232 -11.13671,9.11718 -10.01456,2.57968 -20.02689,-4.15292 -21.22266,-14.29101 -0.27806,-2.35878 0.16077,-4.91414 1.07422,-7.16211 0.91345,-2.24798 2.29603,-4.20053 4.0332,-5.29492 0.79381,-0.50107 1.9172,-1.00967 2.88086,-1.3711 0.48183,-0.18071 0.91591,-0.32291 1.27344,-0.40234 0.17876,-0.0397 0.32904,-0.0694 0.52344,-0.0625 z m 26.27734,0.53125 c 0.76314,0 1.65935,0.31927 2.80859,0.81055 1.14924,0.49128 2.50197,1.17603 3.92383,1.97461 2.84373,1.59714 5.95817,3.64573 8.20703,5.52148 1.06194,0.88631 2.65892,2.34994 4.07422,3.70312 0.70765,0.6766 1.36739,1.32515 1.89063,1.85743 0.52323,0.53228 0.88552,0.90655 1.09961,1.20703 a 0.65494977,0.65494977 0 0 1 0,0.002 l 0.37109,0.52149 a 0.65494977,0.65494977 0 0 1 0.0234,0.7246 l -0.38282,0.61719 c -0.30862,0.49914 -0.87584,1.12561 -1.6582,1.93164 -0.78281,0.80651 -1.76752,1.75739 -2.83789,2.7461 -2.14073,1.97741 -4.61719,4.10294 -6.50195,5.50976 -8.23262,6.14279 -14.21914,8.86928 -22.58594,10.27149 -2.77107,0.46443 -8.06386,0.74612 -10.32812,0.52734 -4.7763,-0.46232 -10.07641,-1.68927 -13.70704,-3.1875 -4.57817,-1.88884 -10.39808,-5.29506 -13.47851,-7.91016 h -0.002 c -0.85524,-0.72084 -1.71883,-1.4316 -2.5918,-2.13086 h -0.002 c -0.84397,-0.67333 -2.64396,-2.38284 -4.35157,-4.0625 -0.85401,-0.84003 -1.67583,-1.66593 -2.32031,-2.33593 -0.64448,-0.67001 -1.06212,-1.09392 -1.30078,-1.46094 a 0.65494977,0.65494977 0 0 1 0,-0.002 c -0.0826,-0.12734 -0.15717,-0.23468 -0.22656,-0.38868 -0.0694,-0.15399 -0.12407,-0.38632 -0.0899,-0.60156 0.0685,-0.43047 0.27318,-0.61648 0.5293,-0.95898 a 0.65494977,0.65494977 0 0 1 0.002,0 c 3.39265,-4.53122 12.48368,-11.17885 18.77735,-13.8125 0.78911,-0.33013 1.24311,-0.54794 1.83007,-0.49024 0.14675,0.0144 0.32729,0.0584 0.4961,0.19532 0.1688,0.13689 0.27732,0.3648 0.29883,0.54687 0.043,0.36415 -0.0779,0.57443 -0.20118,0.81055 -3.46319,6.63525 -3.68355,12.49873 -0.73046,18.9707 2.85702,6.26256 9.80606,11.12178 17.14062,11.93555 5.2261,0.58025 11.66037,-1.02477 15.98242,-3.98438 3.8143,-2.61329 7.25831,-8.0751 8.21875,-13.11718 0.73117,-3.83863 -0.39598,-10.02214 -2.45703,-13.4336 -0.4645,-0.76918 -0.68772,-1.06443 -0.81836,-1.47461 -0.0327,-0.10254 -0.076,-0.23559 -0.0293,-0.44726 0.0467,-0.21167 0.25803,-0.43677 0.41601,-0.50782 0.31597,-0.14209 0.40671,-0.0781 0.51172,-0.0781 z m -19.89063,1.37695 c 1.91784,0.35983 3.04045,2.15749 3.29493,3.97461 0.25447,1.81713 -0.32995,3.8549 -2.07032,4.74219 -2.71251,1.38241 -5.9414,-0.78115 -5.9414,-3.90234 0,-1.2835 0.64698,-2.51829 1.51758,-3.43946 0.87059,-0.92116 2.01107,-1.59795 3.19921,-1.375 z m -1.88085,55.27149 c 0.34924,0.0226 0.58793,0.28548 0.68945,0.4707 0.20303,0.37045 0.23871,0.7296 0.29687,1.29492 0.11633,1.13064 0.16236,2.9872 0.20703,5.84766 l 0.0996,6.41797 a 0.65494977,0.65494977 0 0 1 -0.17578,0.45703 l -0.5625,0.59961 c -0.74327,0.79282 -1.82803,1.0157 -2.76562,0.73242 -0.93759,-0.28328 -1.7557,-1.03546 -2.16406,-2.10547 -0.47122,-1.23319 -0.23401,-3.03045 0.28515,-5.18555 0.51916,-2.1551 1.3953,-4.60334 2.50195,-6.80078 0.32619,-0.64727 0.53001,-1.09172 0.89258,-1.44336 0.136,-0.13189 0.34607,-0.30779 0.69532,-0.28515 z"><desc
     id="desc1">
      Traced logo based on chatgpt-generated design.
    </desc></path>
<path
   d="m 129.82019,237.73444 c -1.155,-0.773 -2.1,-1.463 -2.1,-1.532 0,-0.273 2.896,-2.713 5.26,-4.432 4.296,-3.125 8.81,-5.91 11.279,-6.96 1.844,-0.784 1.977,-0.908 1.238,-1.146 -2.565,-0.825 -3.208,-0.743 -9.532,1.213 -3.938,1.218 -6.02,1.586 -8.153,1.44 -2.824,-0.192 -6.98,-1.26 -9.105,-2.342 l -0.71,-0.36 0.84,-0.532 c 2.752,-1.746 6.04,-3.08 8.606,-3.493 1.713,-0.275 5.926,-0.229 7.659,0.084 2.806,0.507 2.874,0.191 0.178,-0.824 a 67,67 0 0 1 -2.726,-1.087 c -0.787,-0.35 -3.293,-1.235 -8.248,-2.912 -1.946,-0.66 -5.108,-0.732 -7.29,-0.169 -3.314,0.856 -9.59,0.51 -13.328,-0.735 -4.051007,-1.35 -9.818007,-4.682 -12.689007,-7.332 l -1.288,-1.189 0.642,-0.115 c 4.784,-0.858 10.545007,-0.887 13.677007,-0.07 1.87,0.489 5.492,1.885 8.039,3.099 2.375,1.132 2.666,0.877 0.564,-0.494 l -3.09,-2.013 a 1176,1176 0 0 1 -4.229,-2.77 c -3.904,-2.57 -5.151,-3.042 -10.733007,-4.062 -7.785,-1.424 -12.235,-4.696 -18.172,-13.36 l -1.442,-2.104 1.646,0.133 c 3.813,0.31 8.542,1.904 11.35,3.828 1.194,0.818 4.86,3.753 6.13,4.907 1.228,1.117 1.608,1.347 1.608,0.975 0,-0.098 -0.628,-0.908 -1.396,-1.8 -0.768,-0.891 -2.405,-3.032 -3.638,-4.758 -3.28,-4.59 -4.868,-6.074 -8.674,-8.11 -5.98,-3.197 -10.133,-8.414 -12.716,-15.973 -0.964,-2.822 -1.733,-5.86 -1.534,-6.06 0.199,-0.2 3.778,1.826 5.455,3.087 3.762,2.829 6.498,6.41 9.557,12.51 0.416,0.829 0.836,1.557 0.933,1.617 0.433,0.268 0.372,-0.367 -0.13,-1.334 -1.128,-2.18 -2.845,-7.282 -3.07,-9.128 -0.165,-1.34 -0.926,-4.205 -1.327,-4.988 -0.393,-0.768 -1.796,-2.553 -3.697,-4.702 -3.858,-4.363 -5.648,-8.188 -6.547,-13.99 -0.417,-2.692 -0.573,-7.464 -0.288,-8.81 l 0.148,-0.7 0.914,0.765 c 1.493,1.25 4.131,4.45 5.269,6.391 0.584,0.997 1.213,2.02 1.397,2.273 0.298,0.409 0.637,1.223 1.563,3.757 0.144,0.391 0.464,1.927 0.713,3.414 0.556,3.32 0.606,3.533 0.827,3.533 0.108,0 0.176,-1.729 0.175,-4.439 -0.002,-2.441 0.093,-5.327 0.21,-6.413 0.35,-3.242 -0.04,-4.914 -1.971,-8.47 -2.664,-4.909 -3.829,-12.405 -2.774,-17.865 0.928,-4.807 1.664,-7.168 2.055,-6.602 1.635,2.36 3.763,6.824 4.313,9.048 0.777,3.136 0.854,3.917 0.83,8.393 -0.014,2.432 0.047,4.336 0.135,4.282 0.088,-0.054 0.322,-0.656 0.52,-1.336 3.028,-10.433 3.297,-12.41 2.245,-16.495 q -2.358,-9.155 1.598,-17.036995 c 0.604,-1.204 4.613,-6.898 4.868,-6.913 0.112,-0.007 0.316,1.478 0.74,5.39 0.506,4.694 -0.061,10.065995 -1.408,13.319995 -0.369,0.891 -0.63,1.662 -0.579,1.712 q 0.275,0.273 0.95,-1.058 c 0.252,-0.496 0.904,-1.59 1.45,-2.432 1.332,-2.052 1.612,-2.645 2.428,-5.127995 2.355,-7.172 7.780007,-13.389 13.282007,-15.222 0.904,-0.301 4.151,-1.018 4.61,-1.018 0.168,0 0.09,0.5 -0.28,1.8 -1.82,6.393 -4.72,9.99 -12.536,15.546 -3.978007,2.827995 -5.248007,4.258995 -8.207007,9.241995 -1.408,2.372 -1.355,2.866 0.127,1.186 4.04,-4.58 7.196,-6.287 13.660007,-7.389 0.982,-0.167 1.87,-0.275 1.976,-0.24 0.53,0.176 -4.464,6.83 -6.848,9.121 -3.120007,3 -4.969007,3.992 -10.441007,5.602 -2.239,0.659 -2.593,1.112 -4.111,5.263 -2.577,7.046 -3.693,11.65 -1.893,7.809 2.489,-5.311 6.519,-8.769 12.746,-10.936 1.024,-0.357 1.944,-0.649 2.044,-0.649 0.21,0 -1.032,2.872 -2.514,5.814 -2.894,5.744 -5.77,8.742 -11.331,11.81 -2.955,1.63 -3.384,2.407 -3.671,6.656 -0.323,4.773 -0.443,10.6 -0.22,10.6 0.113,0 0.251,-0.312 0.307,-0.692 0.32,-2.173 1.25,-5.682 1.828,-6.896 1.253,-2.63 4.741,-6.613 7.407,-8.456 l 1.384,-0.957 -0.002,0.704 c -0.005,2.234 -0.738,6.707 -1.564,9.54 -1.026,3.525 -1.948,5.154 -5.177,9.156 -3.038,3.764 -3.275,4.207 -3.165,5.905 0.17,2.604 1.545,7.221 3.509,11.782 1.36,3.16 1.463,3.016 0.697,-0.97 -0.75,-3.898 -0.158,-8.282 1.65,-12.214 0.686,-1.491 3.098,-5.422 3.33,-5.424 0.177,-0.003 0.887,3.439 1.198,5.811 0.16,1.218 0.305,3.751 0.323,5.63 0.042,4.51 -0.132,5.322 -2.386,11.164 -0.908,2.352 -0.764,3.457 0.875,6.712 0.747,1.483 1.694,3.201 2.104,3.82 1.44,2.166 5.28,6.539 5.742,6.539 0.395007,0 0.305007,-0.182 -0.96,-1.938 -1.756,-2.436 -2.669,-5.105 -3.217,-9.4 -0.247,-1.94 0.35,-6.345 1.221,-9.012 0.468,-1.434 0.469,-1.435 0.798,-1.015 1.137,1.448 4.542007,8.112 5.448007,10.661 1.022,2.88 1.23,4.23 1.369,8.858 l 0.129,4.337 0.636,1.197 c 0.776,1.457 3.006,3.762 5.066,5.233 2.958,2.113 3.549,2.49 5.906,3.774 1.464,0.797 2.466,1.24 2.571,1.137 0.095,-0.093 0.136,-0.2 0.092,-0.238 -0.044,-0.038 -0.934,-0.71 -1.978,-1.495 -1.066,-0.8 -2.3,-1.924 -2.814,-2.564 -2.426,-3.016 -5.342,-11.06 -5.345,-14.738 v -0.867 l 1.337,0.92 c 1.695,1.164 6.464,5.39 7.763,6.878 2.415,2.766 3.725,4.985 5.465,9.252 1.413,3.468 2.143,4.925 2.76,5.514 0.829,0.79 5.098,2.762 9.618,4.44 2.386,0.887 5.168,1.967 6.183,2.402 1.015,0.435 3.645,1.387 5.845,2.115 l 3.999,1.324 2.367,-0.908 c 1.302,-0.499 3.323,-1.22 4.49,-1.6 5.014,-1.64 14.848,-5.44 16.523,-6.386 2.135,-1.204 2.423,-1.631 4.231,-6.255 1.999,-5.112 2.65,-6.392 4.51,-8.87 2.071,-2.757 5.768,-6.155 9.2,-8.456 l 1.154,-0.773 v 0.938 c 0,0.515 -0.287,2.215 -0.636,3.776 -1.664,7.428 -3.87,11.282 -8.224,14.365 -1.416,1.003 -1.88,1.57 -1.082,1.322 1.163,-0.363 7.694,-4.484 9.942,-6.273 3.166,-2.52 3.942,-4.29 4.249,-9.685 0.421,-7.413 1.279,-10.148 5.304,-16.912 1.778,-2.988 2.073,-3.365 2.073,-2.652 0,0.202 0.163,0.97 0.362,1.707 0.855,3.165 1.181,8.556 0.653,10.794 -0.418,1.776 -2.083,5.709 -3.074,7.266 -0.492,0.771 -0.894,1.546 -0.894,1.722 0,0.655 5.091,-5.156 6.983,-7.972 2.738,-4.073 2.99,-5.97 1.352,-10.193 -2.47,-6.369 -2.657,-10.67 -0.83,-19.147 0.267,-1.243 0.536,-2.257 0.597,-2.252 0.155,0.013 2.506,3.407 3.197,4.617 2.162,3.783 2.852,10.424 1.51,14.527 -0.307,0.936 -0.333,1.516 -0.07,1.516 0.106,0 0.24,-0.145 0.3,-0.322 0.061,-0.178 0.427,-1.03 0.815,-1.892 3.146,-7.002 4.063,-12.525 2.445,-14.723 -0.278,-0.378 -1.222,-1.517 -2.097,-2.532 -3.193,-3.702 -4.535,-6.243 -5.712,-10.815 -1.168,-4.538 -1.816,-9.065 -1.249,-8.725 2.933,1.76 4.554,3.179 6.365,5.572 2.478,3.277 3.776,6.408 4.395,10.6 0.056,0.38 0.194,0.692 0.307,0.692 0.522,0 -0.297,-13.442 -0.895,-14.703 -0.4,-0.843 -1.619,-1.912 -3.121,-2.738 -3.742,-2.057 -6.812,-4.724 -8.76,-7.61 -1.115,-1.653 -4.978,-9.137 -4.978,-9.645 0,-0.277 3.674,1.065 5.258,1.922 4.79,2.59 6.91,4.684 8.92,8.812 1.977,4.06 2.027,3.25 0.168,-2.705 -1.78,-5.699 -2.242,-6.873 -3.211,-8.167 -0.583,-0.776 -1.034,-0.998 -4.281,-2.103 -4.745,-1.614 -6.993,-3.111 -10.414,-6.933 -2.104,-2.352 -5.411,-7.125 -5,-7.218 0.657,-0.15 4.358,0.618 6.444,1.337 3.652,1.258 7.081,3.603 9.416,6.439 0.474,0.576 0.937,1 1.029,0.944 0.092,-0.056 0.135,-0.16 0.098,-0.23 -1.244,-2.281 -4.226,-6.704 -5.094,-7.555 -0.86,-0.843 -2.652,-2.263 -4.717,-3.737995 -5.836,-4.167 -9.135,-7.914 -11.145,-12.659 -0.624,-1.474 -1.581,-4.477 -1.465,-4.594 0.228,-0.228 4.271,0.9 5.631,1.57 5.424,2.672 9.616,7.607 11.807,13.9 0.741,2.131 1.83,4.381995 2.835,5.866995 0.386,0.569 0.91,1.441 1.164,1.937 0.628,1.224 0.953,1.628 1.19,1.482 0.132,-0.082 0.017,-0.527 -0.345,-1.324 -1.395,-3.077 -1.677,-4.568 -1.689,-8.943995 -0.013,-4.49 0.549,-9.522 1.06,-9.494 0.85,0.046 4.913,6.581 5.913,9.512 1.14,3.339995 1.268,4.105995 1.263,7.547995 -0.005,3.135 -0.024,3.304 -0.684,5.752 -1.174,4.36 -0.98,6.622 1.155,13.441 0.397,1.269 0.914,2.93 1.148,3.691 l 0.426,1.384 0.119,-4.89 c 0.177,-7.334 0.806,-9.536 4.737,-16.585 l 0.552,-0.99 0.368,0.99 c 3.165,8.509 2.582,16.927 -1.73,24.982 -1.424,2.659 -1.546,3.654 -1.417,11.58 0.1,6.104 0.222,7.628 0.51,6.367 0.052,-0.229 0.349,-1.703 0.66,-3.276 0.31,-1.573 0.764,-3.571 1.008,-4.44 0.95,-3.378 4.413,-8.45 7.564,-11.076 l 1.292,-1.077 0.124,0.776 c 0.392,2.438 0.033,7.396 -0.784,10.834 -1.37,5.764 -3.032,9.047 -6.54,12.919 -3.036,3.348 -3.6,4.421 -4.782,9.09 -0.931,3.678 -1.266,4.789 -2.236,7.427 -1.42,3.86 -1.085,3.74 1.029,-0.37 3.408,-6.625 5.774,-9.137 11.72,-12.444 1.107,-0.616 2.087,-1.12 2.177,-1.12 0.48,0 -0.733,4.75 -2.027,7.936 -1.687,4.155 -2.95,6.087 -6.007,9.187 -2.121,2.151 -3.186,2.976 -5.777,4.476 -4.845,2.805 -5.172,3.095 -8.247,7.322 -1.123,1.545 -2.859,3.787 -3.857,4.983 -2.178,2.612 -2.432,3.384 -0.584,1.774 4.708,-4.103 6.537,-5.424 9.619,-6.95 3.072,-1.52 5.158,-2.123 8.005,-2.315 0.99,-0.066 1.8,-0.094 1.8,-0.061 0,0.033 -0.797,1.268 -1.771,2.746 -4.832,7.33 -10.461,11.237 -18.563,12.88 -5.455,1.107 -6.256,1.446 -10.968,4.635 a 1089,1089 0 0 1 -5.423,3.648 272,272 0 0 0 -2.003,1.338 c -0.035,0.028 -0.008,0.142 0.062,0.254 q 0.126,0.204 1.264,-0.43 c 1.406,-0.782 5.837,-2.545 7.694,-3.061 2.655,-0.738 8.274,-1.012 11.899,-0.58 0.913,0.108 1.785,0.2 1.938,0.202 1.192,0.019 0.803,0.649 -1.477,2.393 -4.575,3.5 -9.88,6.188 -13.916,7.052 -2.707,0.58 -7.468,0.583 -10.481,0.008 -1.334,-0.254 -2.852,-0.41 -3.968,-0.409 -2.041,0.004 -3.608,0.473 -10.297,3.08 -1.827,0.71 -3.897,1.493 -4.6,1.737 -1.373,0.477 -1.965,1.068 -0.823,0.822 2.495,-0.537 6.366,-0.62 9.006,-0.191 2.39,0.387 4.021,0.97 7.18,2.566 l 2.701,1.366 -1.45,0.66 c -2.61,1.19 -5.82,1.93 -9.01,2.08 -3.033,0.142 -4.375,-0.082 -8.54,-1.424 -5.046,-1.625 -5.384,-1.706 -6.545,-1.567 -2.07,0.248 -2.254,0.392 -1.16,0.906 4.834,2.275 17.275,11.036 16.971,11.95 -0.078,0.238 -3.912,2.741 -4.197,2.741 -0.16,0 -0.578,-0.298 -0.927,-0.662 -0.728,-0.757 -4.721,-4.065 -6.911,-5.723 -2.632,-1.993 -4.811,-3.362 -7.957,-4.995 l -3.085,-1.601 -0.957,0.2 c -3.968,0.833 -11.766,5.91 -17.272,11.247 -0.975,0.945 -1.816,1.719 -1.867,1.719 -0.052,0 -1.039,-0.633 -2.194,-1.407 z m 19.769,-24.006 c -2.104,-0.364 -4.404,-1.36 -5.571,-2.414 -2.323,-2.096 -3.684,-4.856 -3.803,-7.71 -0.163,-3.91 0.77,-7.313 4.346,-15.86 1.622,-3.877 2.435,-6.647 2.583,-8.804 0.115,-1.675 0.15,-1.645 -2.261,-1.992 -10.207,-1.468 -21.398,-6.924 -28.789,-14.034 -2.813,-2.707 -9.678,-8.868 -11.35,-10.186 -2.369,-1.868 -2.368,-1.913 0.038,-5.03 3.002,-3.887 8.387,-9.013 12.384,-11.785 9.534,-6.616 18.793,-9.956 30.024,-10.834 6.576,-0.515 14.568,0.25 20.43,1.956 10.029,2.918 17.653,7.356 25.322,14.743 3.361,3.238 7.582,8.292 7.582,9.08 0,0.132 -1.563,1.592 -3.473,3.246 a 322,322 0 0 0 -7.336,6.611 c -4.929,4.6 -7.319,6.412 -13.06,9.902 -5.28,3.21 -12.1,5.563 -18.546,6.398 -1.15,0.149 -2.141,0.322 -2.203,0.383 -0.707,0.708 1.034,6.764 3.88,13.496 2.977,7.042 3.623,11.327 2.32,15.398 -1.614,5.044 -7.19,8.357 -12.517,7.436 m -0.878,-8.59 0.562,-0.6 -0.1,-6.417 c -0.119,-7.62 -0.262,-8.14 -1.542,-5.6 -2.162,4.293 -3.452,9.647 -2.76,11.458 0.682,1.787 2.685,2.392 3.84,1.16 m 10.02,-34.538 c 8.282,-1.388 14.114,-4.043 22.3,-10.151 3.703,-2.764 9.888,-8.476 10.834,-10.007 l 0.382,-0.618 -0.371,-0.521 c -0.565,-0.793 -4.877,-4.916 -6.951,-6.647 -4.4,-3.67 -12.382,-8.153 -14.518,-8.153 -0.444,0 -0.451,-0.024 0.479,1.516 2.181,3.61 3.316,9.82 2.54,13.894 -0.997,5.234 -4.482,10.788 -8.49,13.534 -4.478,3.067 -11.013,4.696 -16.426,4.095 -7.571,-0.84 -14.695,-5.806 -17.664,-12.314 -3.022,-6.623 -2.787,-12.777 0.746,-19.546 0.391,-0.749 -0.067,-0.794 -1.592,-0.156 -6.132,2.566 -15.274,9.284 -18.507,13.602 -0.51,0.682 -0.513,0.699 -0.188,1.2 0.515,0.792 6.292,6.475 7.834,7.705 a 135,135 0 0 1 2.606,2.143 c 2.981,2.531 8.807,5.948 13.308,7.805 3.538,1.46 8.809,2.684 13.52,3.14 2.101,0.203 7.485,-0.073 10.158,-0.521 m -3.329,-9.333 c 4.602,-1.185 8.606,-4.464 10.713,-8.77 1.415,-2.894 1.571,-7.856 0.328,-10.411 -0.906,-1.863 -3.07,-3.652 -2.755,-2.277 0.313,1.366 0.338,4.962 0.044,6.38 -1.04,5.012 -4.35,8.864 -8.607,10.012 -1.5,0.404 -5.185,0.464 -6.643,0.107 -4.156,-1.016 -7.52,-4.39 -8.583,-8.608 -0.334,-1.325 -0.389,-4.44 -0.101,-5.723 0.328,-1.464 2.1,-4.894 3.323,-6.433 0.614,-0.773 1.116,-1.447 1.116,-1.5 0,-0.37 -2.988,0.75 -4.436,1.664 -3.135,1.975 -5.332,7.38 -4.808,11.825 1.15,9.75 10.763,16.219 20.41,13.734 m -3.96,-17.91 c 2.848,-1.452 2.086,-6.899 -1.048,-7.487 -1.684,-0.316 -3.942,2.073 -3.942,4.17 0,2.68 2.708,4.481 4.99,3.318 m -51.675007,4.611 c -0.006,-0.106 0.738007,-1.89 2.037007,-4.884 2.58,-5.945 7.657,-12.427 13.09,-16.714 7.362,-5.809 12.33,-8.582 19.457,-10.858 3.55,-1.133 3.61,-1.136 4.253,-0.209 0.767,1.108 3.39,3.534 4.4,4.07 0.475,0.252 0.864,0.5 0.864,0.553 0,0.052 -1.183,0.419 -2.63,0.816 -11.924,3.27 -18.135,6.207 -26.62,12.584 -5.195,3.904 -11.175,9.782 -14.436,14.188 -0.225007,0.304 -0.412007,0.509 -0.415007,0.454 m 101.118007,-2.805 -3.057,-3.553 c -1.204,-1.4 -3.818,-3.862 -5.814,-5.475 -0.67,-0.542 -1.792,-1.45 -2.491,-2.019 -5.526,-4.489 -12.971,-8.637 -19.91,-11.092 -2.582,-0.914 -8.239,-2.59 -9.557,-2.83 l -0.697,-0.129 1.155,-0.67 c 1.281,-0.744 3.357,-2.745 4.153,-4.005 0.596,-0.945 0.463,-0.919 2.32,-0.451 4.363,1.1 11.218,4.364 16.156,7.694 9.37,6.32 14.896,12.89 18.676,22.205 0.432,1.065 0.87,2.043 0.971,2.173 0.102,0.129 0.15,0.27 0.105,0.315 -0.044,0.044 -0.948,-0.93 -2.01,-2.163 m -51.851,-25.988 c -5.84,-1.251 -10.503,-6.61 -10.516,-12.084 -0.009,-3.513 2.404,-6.42 5.962,-7.185995 1.264,-0.271 0.313,-0.564 -2.566,-0.788 -4.919,-0.384 -9.906,-1.86 -11.67,-3.454 -1.888,-1.705 -1.442,-4.582 0.893,-5.775 1.562,-0.798 3.442,-0.46 10.954,1.968 5.244,1.694 6.52,1.942 9.896,1.922 3.07,-0.019 5.625,-0.58 11.576,-2.541 5.823,-1.919 7.09,-2.077 8.993,-1.118 1.367,0.688 1.798,1.263 1.904,2.542 0.164,1.977 -1.28,3.656 -3.926,4.567 -2.145,0.738 -7.29,1.676 -10.656,1.943 -0.786,0.063 -1.482,0.2 -1.547,0.303 -0.137,0.223 0.258,0.51 0.708,0.515 1.698,0.01499 4.552,2.347995 5.31,4.339995 2.189,5.754 -2.84,13.624 -9.447,14.782 -2.63,0.461 -3.948,0.476 -5.868,0.064 m 5.222,-4.526 c 3.895,-1.01 6.597,-4.129 6.585,-7.605 -0.009,-2.754 -2.468,-5.165 -3.36,-3.295 -0.29,0.609 -0.329,0.625 -2.018,0.848 -2.1,0.277 -4.472,0.312 -7.56,0.11 l -2.331,-0.153 -0.296,-0.62 c -0.348,-0.73 -0.584,-0.764 -1.428,-0.204 -2.333,1.55 -1.763,6.083 1.085,8.626 2.48,2.214 6.148,3.116 9.323,2.293 m -5.13,-22.979995 a 30,30 0 0 1 -1.845,-0.394 l -0.923,-0.234 v -3.414 c 0,-4.023 -0.056,-4.205 -2.016,-6.52 -3.19,-3.768 -4.027,-8.994 -1.997,-12.459 2.426,-4.141 7.645,-6.3 12.325,-5.099 4.269,1.096 7.816,5.446 7.831,9.603 0.01,2.519 -0.572,4.134 -2.705,7.517 -1.989,3.155 -1.989,3.156 -1.965,6.9 l 0.02,3.172 -1.687,0.39 c -3.076,0.712 -5.131,0.868 -7.038,0.537"
   style="display:none;opacity:1;fill:#000000;fill-opacity:1;stroke:none;stroke-width:0.999998;stroke-dasharray:none;stroke-opacity:1"
   id="path4"
   inkscape:label="Ministry Logotype (Original)"
   sodipodi:insensitive="true">
    <desc
   id="desc4">
      Traced logo based on chatgpt-generated design.
    </desc>
  </path><circle
   style="display:inline;fill:none;stroke:#000000;stroke-width:1.32299907;stroke-dasharray:none;paint-order:stroke fill markers"
   id="path2"
   cx="151.181"
   cy="151.181"
   r="125.95718"
   inkscape:label="Inner Circle" /><circle
   style="fill:none;stroke:#000000;stroke-width:3.88245;stroke-dasharray:none;paint-order:stroke fill markers"
   id="circle2"
   cx="151.181"
   cy="151.181"
   r="130.60204"
   inkscape:label="Outer Circle" /><path
   id="circle3"
   style="display:none;fill:none;stroke:#ffd541;stroke-width:1.06306;paint-order:stroke fill markers"
   inkscape:label="Top Text Circle"
   d="M 65.83729,107.93468 A 95.675452,95.675452 0 0 1 194.42732,65.837289 95.675452,95.675452 0 0 1 236.5247,194.42732 95.675452,95.675452 0 0 1 107.93467,236.5247 95.675452,95.675452 0 0 1 65.83729,107.93468 Z" /><path
   id="circle3-8"
   style="display:none;fill:none;stroke:#fa6a0a;stroke-width:1.31704;paint-order:stroke fill markers"
   inkscape:label="Bottom Text Circle"
   d="M 64.032697,231.52546 A 118.53294,118.53294 0 0 0 231.52546,238.32929 118.53294,118.53294 0 0 0 238.3293,70.836534 118.53294,118.53294 0 0 0 70.836527,64.0327 118.53294,118.53294 0 0 0 64.032697,231.52546 Z" /><text
   xml:space="preserve"
   id="Top Text"
   x="290.32962"
   y="0"
   style="font-style:normal;font-variant:normal;font-weight:normal;font-stretch:normal;font-size:26.6666px;font-family:&quot;Libre Baskerville&quot;;-inkscape-font-specification:&quot;Libre Baskerville&quot;;direction:ltr;display:inline;letter-spacing:1.04999926px"
   transform="translate(-0.13206174)"><textPath
     xlink:href="#circle3"
     id="textPath3"><tspan
       id="tspan3"
       dx="0"
       style="font-style:normal;font-variant:normal;font-weight:normal;font-stretch:normal;font-size:26.6666px;font-family:&quot;Libre Baskerville&quot;;-inkscape-font-specification:&quot;Libre Baskerville&quot;;direction:ltr;letter-spacing:1.04999926px">MINISTRY OF</tspan></textPath></text><text
   xml:space="preserve"
   id="Top Text-8"
   x="290.32962"
   y="0"
   style="font-style:normal;font-variant:normal;font-weight:normal;font-stretch:normal;font-size:26.6666px;font-family:&quot;Libre Baskerville&quot;;-inkscape-font-specification:&quot;Libre Baskerville&quot;;direction:ltr;display:inline"
   inkscape:label="Bottom Text"
   transform="translate(1.3844599)"><textPath
     xlink:href="#circle3-8"
     id="textPath3-3"><tspan
       id="tspan3-8"
       dx="0"
       style="font-style:normal;font-variant:normal;font-weight:normal;font-stretch:normal;font-size:26.6666px;font-family:&quot;Libre Baskerville&quot;;-inkscape-font-specification:&quot;Libre Baskerville&quot;;direction:ltr;letter-spacing:7.59999464px">OFFENCE</tspan></textPath></text><circle
   style="fill:#000000;stroke:none;stroke-width:1.07759;stroke-dasharray:none;paint-order:stroke fill markers"
   id="path3"
   cx="46.997116"
   cy="151.181"
   r="4.2344518" /><circle
   style="fill:#000000;stroke:none;stroke-width:1.07759;stroke-dasharray:none;paint-order:stroke fill markers"
   id="circle4"
   cx="255.36487"
   cy="151.181"
   r="4.2344518" /></svg>
